<?xml version="1.0" encoding="utf-8"?>
<!-- Generator: Adobe Illustrator 16.0.0, SVG Export Plug-In . SVG Version: 6.00 Build 0)  -->
<!DOCTYPE svg PUBLIC "-//W3C//DTD SVG 1.1//EN" "http://www.w3.org/Graphics/SVG/1.1/DTD/svg11.dtd">
<svg version="1.1" id="图层_1" xmlns="http://www.w3.org/2000/svg" xmlns:xlink="http://www.w3.org/1999/xlink" x="0px" y="0px"
	 width="1000px" height="1000px" viewBox="0 0 1000 1000" enable-background="new 0 0 1000 1000" xml:space="preserve">
<g>
	<path fill-rule="evenodd" clip-rule="evenodd" fill="#0A122E" d="M768.846-39c230.639,0,461.275,0,691.914,0
		c0,358.07,0,716.141,0,1074.211c0,5.654,0,5.654-5.762,5.654c-638,0-1275.999,0-1913.998,0c0-358.354,0.008-716.708-0.103-1075.063
		c-0.001-3.939,0.628-4.923,4.797-4.921C-224.9-38.985,4.507-39,233.913-39c5.289,10.579,10.561,21.166,15.888,31.726
		c0.744,1.474,1.308,3.051,2.53,4.251c5.88,13.748,13.227,26.764,19.685,40.216c0.368,0.767,0.921,1.66,1.746,1.616
		c4.75-0.257,10.12,2.159,13.798-2.98c2.377-3.32,5.583-3.921,9.539-3.918c135.544,0.098,271.09,0.092,406.635,0.023
		c3.575-0.002,6.431,0.249,7.866,4.161c0.89,2.427,2.937,3.155,5.613,2.971c3.142-0.215,6.108-1.501,9.324-1.213
		c1.306,0.117,1.918-1.12,2.468-2.178c4.975-9.585,9.892-19.2,15.298-28.556c0.576-0.997,0.721-2.192,0.912-3.324
		c5.524-6.204,8.25-14.076,12.216-21.187C761.388-24.492,765.544-31.535,768.846-39z"/>
	<path fill-rule="evenodd" clip-rule="evenodd" fill="#FFFFFF" d="M-459,1040.865c638.017,0,1276.033-0.006,1914.051,0.117
		c4.683,0.001,5.841-0.867,5.839-5.734c-0.143-358.083-0.13-716.166-0.13-1074.248c0.308,0.218,1.043-0.506,1.011,0.5
		c-0.043,1.332-0.011,2.666-0.011,3.999c0,357.289-0.007,714.578,0.093,1071.866c0.001,3.748-0.844,4.593-4.593,4.592
		c-637.253-0.097-1274.506-0.092-1911.76-0.154C-455.963,1041.803-457.891,1042.956-459,1040.865z"/>
	<path fill-rule="evenodd" clip-rule="evenodd" fill="#284280" d="M768.846-39c-7.383,13.879-14.764,27.759-22.17,41.625
		c-0.112,0.21-0.544,0.25-0.827,0.369c-0.045-0.971-1.249-1.391-1.15-2.43c4.626-6.906,8.269-14.373,12.141-21.692
		c3.878-7.332-2.198-16.863-10.523-16.865C687.199-38.007,628.082-38,568.966-38c-104.078,0-208.156,0-312.234,0
		c-9.563,0-15.277,9.33-10.823,17.917c2.581,4.973,4.482,10.316,7.903,14.84c0.108,1.551-1.081,1.111-1.901,1.238
		C245.457-14.555,240.714-25.985,235-36.916c-0.363-0.695-0.725-1.39-1.087-2.084C412.224-39,590.535-39,768.846-39z"/>
	<path fill-rule="evenodd" clip-rule="evenodd" fill="#1C3361" d="M-425.004,544.927c301.296,0,602.592,0,903.887,0
		c-0.185,2.942,2.039,1.92,3.43,1.969c5.491,0.195,5.463,0.151,5.595,5.825c0.024,1.068-0.566,2.333,1.542,3.809
		c0.825-4.133,0.248-7.913,0.431-11.603c2.3,0.975,0.928,2.921,0.928,4.296c0.078,127.068,0.072,254.138,0.072,381.206
		c0,25.813,0,51.627,0,77.44c-3.32-0.055-1.898,2.489-1.939,3.91c-0.202,7.017-0.132,6.946-7.148,7.148
		c-1.421,0.041-3.965-1.381-3.911,1.939c-303.934,0-607.867-0.013-911.8,0.124c-4.522,0.002-5.182-1.248-5.179-5.368
		c0.112-155.466,0.09-310.932,0.166-466.398c0.001-1.375-1.373-3.322,0.928-4.298c0.259,3.979-0.53,8.033,0.761,13.174
		c1.785-3.04,1.347-5.34,1.162-7.374c-0.336-3.685,0.591-5.315,4.7-4.937C-429.366,545.976-426.835,547.174-425.004,544.927z"/>
	<path fill-rule="evenodd" clip-rule="evenodd" fill="#1D3462" d="M1439.762,544.927c2.301,0.975,0.927,2.921,0.928,4.296
		c0.078,127.734,0.072,255.47,0.072,383.204c0,25.147,0,50.295,0,75.442c-3.319-0.055-1.897,2.489-1.938,3.91
		c-0.202,7.017-0.132,6.946-7.149,7.148c-1.42,0.041-3.965-1.381-3.91,1.939c-303.934,0-607.866-0.013-911.8,0.124
		c-4.523,0.002-5.183-1.248-5.18-5.368c0.112-155.466,0.09-310.932,0.166-466.398c0.001-1.375-1.371-3.322,0.928-4.298
		c0.259,3.979-0.53,8.034,0.761,13.173c1.785-3.039,1.347-5.339,1.162-7.373c-0.336-3.685,0.591-5.315,4.7-4.937
		c2.014,0.186,4.546,1.384,6.376-0.863c301.295,0,602.592,0,903.887,0c-0.184,2.942,2.039,1.92,3.43,1.97
		c5.491,0.194,5.464,0.15,5.596,5.824c0.024,1.068-0.567,2.333,1.541,3.809C1440.155,552.396,1439.578,548.616,1439.762,544.927z"/>
	<path fill-rule="evenodd" clip-rule="evenodd" fill="#1D3462" d="M1440.762,69.986c0,149.611-0.025,299.224,0.121,448.835
		c0.004,4.462-1.164,5.208-5.341,5.206c-304.555-0.107-609.11-0.098-913.665-0.098c-0.354-3.777-3.34-1.961-4.872-1.855
		c-3.479,0.242-4.514-0.793-4.271-4.271c0.106-1.531,1.922-4.519-1.854-4.872c0-150.981,0-301.962,0-452.943
		c3.776-0.354,1.96-3.341,1.854-4.873c-0.242-3.478,0.793-4.513,4.271-4.271c1.531,0.106,4.519,1.922,4.872-1.855
		c66.659,0,133.316,0,199.975,0c0.002,0.497-0.137,1.251,0.186,1.436c5.726,3.273,12.86-0.076,13.813-6.436
		c1.967-3.355,3.898-6.839,5.423-10.303c1.934-4.395,4.665-4.75,8.621-4.748c216.957,0.06,433.915,0.053,650.873,0.053
		c-0.332,2.533,1.497,2.109,2.882,1.974c4.737-0.464,8.81,0.278,11.175,5.102c0.547,1.114,0.832,0.974,1.94-1.077
		c6.745,5.919,13.079,12.252,18.998,18.998c-1.616-0.018-3.142,0.703-1.281,2.052c4.366,3.166,4.786,7.412,4.266,12.107
		C1438.563,69.814,1439.43,70.1,1440.762,69.986z"/>
	<path fill-rule="evenodd" clip-rule="evenodd" fill="#1C3361" d="M490.881,127.979c0,2,0,4,0,5.999
		c-0.787-0.067-0.82-1.113-1.22-1.221c-1.473-0.396-0.723,0.869-0.746,1.355c-0.102,2.187-0.226,4.429,1.965,5.865
		c0,1.666,0,3.333,0,5c-0.787-0.067-0.82-1.114-1.22-1.221c-1.473-0.396-0.723,0.869-0.746,1.356
		c-0.102,2.186-0.226,4.429,1.965,5.864c0,1.333,0,2.666,0,4c-0.787-0.067-0.82-1.114-1.22-1.221
		c-1.473-0.396-0.723,0.869-0.746,1.356c-0.102,2.186-0.226,4.429,1.965,5.864c0,1.333,0,2.667,0,4
		c-0.787-0.067-0.82-1.113-1.22-1.221c-1.473-0.396-0.723,0.869-0.746,1.355c-0.102,2.187-0.226,4.429,1.965,5.865
		c0,1.333,0,2.666,0,4c-0.787-0.067-0.82-1.114-1.22-1.221c-1.473-0.396-0.723,0.869-0.746,1.356
		c-0.102,2.186-0.226,4.429,1.965,5.864c0,1.667,0,3.333,0,5c-2.928,1.792-2.928,12.207,0,13.998
		c0,106.476-0.027,212.952,0.099,319.427c0.005,4.28-0.695,5.655-5.395,5.653c-306.764-0.133-613.526-0.118-920.289-0.191
		c-1.376-0.001-3.323,1.371-4.298-0.929c307.596,0,615.192,0,922.789,0c6.093,0,6.095,0,6.095-6.041
		c0-42.99,0.013-85.98-0.049-128.97c-0.002-1.625,0.932-3.617-1.061-5.084c-1.638,1.608-0.844,3.524-0.846,5.177
		c-0.056,42.657-0.114,85.314,0.066,127.971c0.018,4.182-0.996,5.051-5.103,5.049c-304.931-0.111-609.861-0.11-914.791-0.005
		c-4.04,0.001-5.374-0.736-5.215-5.032c0.363-9.818,0.147-19.659,0.079-29.49c-0.01-1.415,0.997-3.666-1.964-3.57
		c0-60.326,0-120.651,0-180.978c2.929-1.792,2.929-12.207,0-13.998c0-2.333,0-4.666,0-7c0.787,0.067,0.82,1.114,1.219,1.221
		c1.474,0.396,0.724-0.869,0.746-1.355c0.102-2.187,0.226-4.429-1.965-5.865c0-1.333,0-2.666,0-4
		c0.787,0.067,0.82,1.114,1.219,1.221c1.474,0.396,0.724-0.869,0.746-1.356c0.102-2.186,0.226-4.429-1.965-5.864
		c0-1.333,0-2.667,0-4c0.787,0.067,0.82,1.113,1.219,1.221c1.474,0.396,0.724-0.869,0.746-1.355
		c0.102-2.187,0.226-4.429-1.965-5.865c0-1.333,0-2.666,0-4c0.787,0.067,0.82,1.114,1.219,1.221
		c1.474,0.396,0.724-0.869,0.746-1.356c0.102-2.186,0.226-4.429-1.965-5.864c0-1.667,0-3.333,0-5
		c0.787,0.067,0.82,1.114,1.219,1.221c1.474,0.396,0.724-0.869,0.746-1.356c0.102-2.186,0.226-4.429-1.965-5.864c0-2,0-4,0-6
		c0.787,0.067,0.82,1.114,1.219,1.221c1.474,0.396,0.724-0.869,0.746-1.356c0.102-2.186,0.226-4.429-1.965-5.864
		c0-1.667,0-3.333,0-5c0.787,0.067,0.82,1.114,1.219,1.221c1.474,0.396,0.724-0.868,0.746-1.355
		c0.102-2.187,0.225-4.429-1.965-5.865c0-2,0-4,0-5.999c0.787,0.067,0.82,1.114,1.219,1.221c1.474,0.396,0.724-0.869,0.746-1.356
		c0.102-2.186,0.225-4.429-1.965-5.865c0-2.333,0-4.666,0-6.999c1.943,0.233,2.024-0.955,2.019-2.44
		c-0.035-11.705-0.035-23.41,0-35.115c0.005-1.485-0.076-2.673-2.019-2.44c0-7.666,0-15.332,0-22.998
		c4.404,3.287,8.887,6.461,13.426,9.584c1.234-1.259-0.04-3.092,1.252-4.187c0.161-0.051,0.444-0.079,0.455-0.149
		c1.061-6.786,2.226-13.58-0.861-20.19c-1.141-0.023-1.439-0.689-1.298-1.694c-2.966-4.722-3.115-9.943-3.024-15.314
		c0.169-9.994,0.205-19.996-0.023-29.987c-0.102-4.425,0.998-8.182,3.839-11.485c2.867-0.888,4.426-3.396,6.444-5.315
		c3.458-3.288,6.624-6.891,10.629-9.573c2.625,1.533,5.124-1.172,7.731-0.221c3.537,1.848,6.861-0.601,10.337-0.511
		c6.903,0.177,13.814,0.059,20.716,0.049c4.703-0.105,8.241,2.642,11.97,4.924c0.515,0.037,1.025,0.106,1.531,0.21
		c0.563,2.5,2.998,1.468,4.423,2.344c4.373,0.8,8.737,1.067,13.083-0.165c2.079-0.448,4.346-0.467,5.725-2.516
		c1.752,0.412,2.972,0.15,2.649-2.083c0.073-0.5,0.233-0.995,0.249-1.481c0.26-8.228,0.253-8.228,8.795-8.228
		c185.451,0,370.901,0.059,556.352-0.158c10.237-0.012,18.701,2.8,26.156,9.375c1.329,1.171,2.522,2.11,4.357,1.782
		c1.36,4.399,4.419,5.116,8.761,5.105c62.071-0.155,124.143-0.106,186.215-0.106c0.694,1.859,2.278,0.941,3.422,0.955
		c7.13,0.089,14.264,0.159,21.391-0.015c2.58-0.063,3.297,0.606,3.254,3.256c-0.172,10.777-0.1,21.558-0.036,32.337
		c0.008,1.389-0.995,3.632,1.964,3.461c0,3,0,5.999,0,8.999c-0.787-0.067-0.82-1.113-1.22-1.221
		c-1.473-0.396-0.723,0.868-0.746,1.355c-0.102,2.187-0.226,4.429,1.965,5.865c0,2,0,4,0,5.999c-0.787-0.067-0.82-1.113-1.22-1.221
		c-1.473-0.396-0.723,0.868-0.746,1.355c-0.102,2.187-0.226,4.429,1.965,5.865c0,1.666,0,3.333,0,4.999
		c-0.787-0.067-0.82-1.113-1.22-1.221c-1.473-0.396-0.723,0.869-0.746,1.355C488.814,124.301,488.69,126.543,490.881,127.979z"/>
	<path fill-rule="evenodd" clip-rule="evenodd" fill="#1E3463" d="M265.909,44.989c-4.991-0.167-7.309-4.755-11.186-6.825
		c-4.235-2.261-8.413-4.181-13.311-4.181c-188.28,0.009-376.559,0.008-564.839,0.008c-6.637,0-6.585-0.006-5.994,7.003
		c0.11,1.306-0.381,2.663-0.595,3.995c-3.723-2.985-4.708-7.827-7.647-11.394c-0.829-1.005-2.011-2.127-2.352-3.604
		c196.627,0,393.253,0.042,589.88-0.192c6.325-0.008,9.711,2.039,12.072,7.308C263.14,39.789,264.577,42.365,265.909,44.989z"/>
	<path fill-rule="evenodd" clip-rule="evenodd" fill="#FFFFFF" d="M-439.002,483.935c3.021-0.293,1.961,1.974,1.969,3.346
		c0.058,10.498,0.132,20.998-0.04,31.492c-0.043,2.642,0.646,3.583,3.25,3.187c1.14-0.174,2.329-0.029,3.495-0.029
		c304.275,0,608.551-0.012,912.825,0.111c4.533,0.002,5.513-1.142,5.495-5.557c-0.183-42.491-0.109-84.983-0.109-127.476
		c0-1.166,0.026-2.333-0.011-3.498c-0.022-0.695,0.018-1.38,0.851-1.451c1.185-0.1,1.205,0.725,1.162,1.626
		c-0.056,1.164-0.003,2.332-0.003,3.498c0.001,43.159-0.056,86.317,0.093,129.475c0.014,4.056-0.561,5.401-5.151,5.399
		c-307.942-0.143-615.883-0.129-923.824-0.129C-439.002,510.598-439.002,497.266-439.002,483.935z"/>
	<path fill-rule="evenodd" clip-rule="evenodd" fill="#FFFFFF" d="M501.119,32.991c67.485,0,134.973,0,202.458-0.003
		c0.997,0,2.028-0.231,2.981-0.042c1.349,0.266,2.463,0.99,2.293,2.659c-0.151,1.496-0.998,2.352-2.51,2.423
		c-0.994,0.047-1.995-0.035-2.992-0.035c-134.973-0.002-269.945-0.002-404.917-0.003c-0.834,0-1.677-0.099-2.498,0
		c-1.835,0.22-2.884-0.691-2.988-2.365c-0.133-2.145,1.304-2.748,3.214-2.629c0.83,0.052,1.666-0.003,2.499-0.003
		C366.146,32.991,433.632,32.991,501.119,32.991z"/>
	<path fill-rule="evenodd" clip-rule="evenodd" fill="#FFFFFF" d="M-340.015,29.991c3.807,4.683,5.652,10.675,9.999,14.998
		c-0.439,2.016-2.031,0.574-3,1c-7.666,0-15.332,0-22.997,0c-0.333,0-0.667,0-1,0c-2.468-7.687-2.88-7.999-10.539-7.999
		c-13.486,0-26.974,0.075-40.458-0.065c-2.559-0.027-4.352,0.648-6.039,2.546c-5.173,5.821-11.384,10.642-16.165,16.874
		c-1.433,1.869-1.838,3.657-1.827,5.887c0.071,14.152,0.276,28.311-0.095,42.453c-0.129,4.92,1.813,7.208,6.13,8.296
		c-0.016,0.682,0.318,1.015,1,1c0,6.999,0,13.999,0,20.998c0,1.284,0,2.567,0,4.118c-4.837-3.496-9.418-6.807-13.998-10.118
		c0-24.293,0.043-48.586-0.063-72.879c-0.011-2.516,0.576-4.281,2.414-6.051c6.35-6.117,12.588-12.356,18.706-18.706
		c1.771-1.837,3.534-2.426,6.051-2.415C-387.937,30.035-363.976,29.991-340.015,29.991z"/>
	<path fill-rule="evenodd" clip-rule="evenodd" fill="#2295A7" d="M251.911-4.004c0.667,0,1.333,0,2,0
		c2.898,8.296,8.285,15.339,11.739,23.364c1.774,4.122,3.978,8.052,5.979,12.072c2.522,5.066,10.511,6.817,14.408,2.77
		c3.189-3.313,6.646-4.289,11.102-4.284c98.754,0.096,197.514,0.652,296.261-0.228c36.586-0.326,73.179-0.099,109.761-0.749
		c4.537-0.081,8.177,0.591,9.986,5.431c0.859,2.296,3.027,3.125,5.377,2.488c1.941-0.527,3.836-1.08,5.858-0.86
		c1.919,0.208,2.527-1.167,3.26-2.507c5.735-10.5,11.136-21.183,17.208-31.499c0.681-0.016,1.015,0.318,0.999,1
		c-4.96,11.386-11.556,21.927-17.104,33.012c-1.818,3.633-14.615,4.34-16.403,0.811c-2.253-4.445-5.438-4.943-9.968-4.938
		c-135.722,0.137-271.442,0.134-407.164-0.013c-3.582-0.004-5.683,1.498-7.424,3.839c-3.869,5.201-9.299,2.769-14.125,3.175
		c-0.7,0.059-1.285-1.085-1.758-2.043c-6.573-13.324-13.296-26.574-19.963-39.853C251.806-3.282,251.915-3.671,251.911-4.004z"/>
	<path fill-rule="evenodd" clip-rule="evenodd" fill="#FFFFFF" d="M490.881,89.984c-2.989,0.299-1.965-1.938-1.972-3.312
		c-0.052-10.758-0.129-21.517,0.043-32.271c0.044-2.761-0.619-3.571-3.448-3.486c-7.276,0.219-14.562,0.105-21.843,0.032
		c-0.938-0.01-2.42,0.959-2.776-0.958c0.361-1.925,1.852-0.948,2.793-0.958c7.65-0.074,15.31,0.146,22.951-0.129
		c3.344-0.121,4.437,0.517,4.356,4.157C490.712,65.362,490.881,77.675,490.881,89.984z"/>
	<path fill-rule="evenodd" clip-rule="evenodd" fill="#FEFEFF" d="M-439.002,152.976c1.837-0.227,2.044,0.69,2.032,2.329
		c-0.086,11.779-0.086,23.559,0,35.337c0.012,1.638-0.195,2.555-2.032,2.329C-439.002,179.639-439.002,166.308-439.002,152.976z"/>
	<path fill-rule="evenodd" clip-rule="evenodd" fill="#FEF5F3" d="M524.877,544.927c-2.327,2.176-5.17,0.892-7.696,0.873
		c-2.903-0.022-3.277,0.961-3.444,3.567c-0.158,2.463,1.786,5.398-1.106,7.471c-1.662-2.346-0.395-4.984-0.718-7.47
		c-0.189-1.457-0.034-2.959-0.034-4.441C516.211,543.31,520.544,543.31,524.877,544.927z"/>
	<path fill-rule="evenodd" clip-rule="evenodd" fill="#FEF5F3" d="M-425.004,544.927c-2.326,2.176-5.169,0.892-7.696,0.873
		c-2.903-0.022-3.277,0.961-3.444,3.567c-0.158,2.463,1.786,5.398-1.106,7.471c-1.664-2.346-0.394-4.984-0.717-7.47
		c-0.19-1.457-0.035-2.959-0.035-4.441C-433.67,543.31-429.337,543.31-425.004,544.927z"/>
	<path fill-rule="evenodd" clip-rule="evenodd" fill="#FEF5F3" d="M1427.764,1020.867c0.225-4.027,3.438-2.012,4.819-1.838
		c5.217,0.656,6.997-1.125,6.342-6.341c-0.174-1.382-2.19-4.595,1.837-4.819c-0.102,4.23,1.408,10.073-0.758,12.239
		C1437.837,1022.275,1431.994,1020.766,1427.764,1020.867z"/>
	<path fill-rule="evenodd" clip-rule="evenodd" fill="#FEF5F3" d="M477.883,1020.867c0.225-4.027,3.438-2.012,4.819-1.838
		c5.216,0.656,6.996-1.126,6.341-6.341c-0.174-1.382-2.19-4.595,1.837-4.819c-0.102,4.23,1.408,10.072-0.759,12.239
		C487.956,1022.275,482.113,1020.766,477.883,1020.867z"/>
	<path fill-rule="evenodd" clip-rule="evenodd" fill="#FEF5F3" d="M521.877,48.989c-0.223,4.033-3.372,1.921-4.829,1.836
		c-3.516-0.207-4.541,0.818-4.334,4.333c0.086,1.457,2.197,4.607-1.835,4.83c0.102-3.565-1.15-8.482,0.683-10.315
		C513.395,47.839,518.313,49.09,521.877,48.989z"/>
	<path fill-rule="evenodd" clip-rule="evenodd" fill="#FEF5F3" d="M510.879,512.931c4.032,0.222,1.921,3.373,1.835,4.829
		c-0.207,3.516,0.818,4.541,4.334,4.334c1.457-0.086,4.607-2.197,4.829,1.836c-3.564-0.101-8.482,1.15-10.315-0.684
		C509.729,521.413,510.98,516.496,510.879,512.931z"/>
	<path fill-rule="evenodd" clip-rule="evenodd" fill="#FEF5F3" d="M1439.762,544.927c-0.002,3.121-0.031,6.241,0.01,9.362
		c0.012,0.926-0.111,1.679-1.228,1.528c-0.785-0.106-0.862-0.793-0.786-1.48c0.036-0.324-0.055-0.669,0.015-0.982
		c1.304-5.852-1.592-7.328-6.719-6.43c-1.653,0.289-2.512-0.202-2.29-1.998C1432.43,544.927,1436.096,544.927,1439.762,544.927z"/>
	<path fill-rule="evenodd" clip-rule="evenodd" fill="#FEF5F3" d="M489.881,544.927c-0.003,3.121-0.031,6.241,0.009,9.361
		c0.012,0.927-0.11,1.681-1.228,1.528c-0.784-0.106-0.861-0.793-0.784-1.479c0.036-0.324-0.057-0.67,0.014-0.982
		c1.305-5.854-1.593-7.327-6.719-6.43c-1.653,0.289-2.512-0.202-2.29-1.998C482.549,544.927,486.214,544.927,489.881,544.927z"/>
	<path fill-rule="evenodd" clip-rule="evenodd" fill="#F5EDEC" d="M1416.765,34.991c-0.095,1.067-0.724,3.167-1.564,1.511
		c-2.847-5.597-7.453-6.026-12.64-5.482c-1.811,0.19-1.805-0.817-1.793-2.028C1406.905,28.844,1413.35,27.878,1416.765,34.991z"/>
	<path fill-rule="evenodd" clip-rule="evenodd" fill="#F3EBEB" d="M1440.762,69.986c-2.448,0.336-2.153-1.367-1.982-2.803
		c0.508-4.296-0.114-8.03-4.008-10.783c-1.89-1.336-1.463-2.47,0.991-2.412C1441.27,58.121,1441.24,63.983,1440.762,69.986z"/>
	<path fill-rule="evenodd" clip-rule="evenodd" fill="#F2EAEA" d="M735.851,43.989c-0.824,6.358-8.366,9.879-13.829,6.411
		c-0.254-0.161-0.121-0.927-0.17-1.411c1.141,0,2.29-0.091,3.421,0.017c3.953,0.375,7.59,0.27,8.849-4.6
		C734.191,44.136,735.251,44.122,735.851,43.989z"/>
	<path fill-rule="evenodd" clip-rule="evenodd" fill="#FAFBFD" d="M490.881,199.97c-0.753-0.102-1.955,0.234-1.986-0.848
		c-0.119-4.098-0.119-8.204,0-12.302c0.031-1.083,1.233-0.746,1.986-0.848C490.881,190.638,490.881,195.304,490.881,199.97z"/>
	<path fill-rule="evenodd" clip-rule="evenodd" fill="#FBFBFD" d="M-439.002,288.959c0.752,0.102,1.955-0.234,1.986,0.848
		c0.119,4.098,0.119,8.204,0,12.302c-0.031,1.083-1.233,0.746-1.986,0.848C-439.002,298.291-439.002,293.625-439.002,288.959z"/>
	<path fill-rule="evenodd" clip-rule="evenodd" fill="#D4D6E0" d="M-439.002,222.967c2.788,2.124,1.805,5.049,2.027,7.923
		c-1.394-0.292-0.59-2.141-2.027-1.924C-439.002,226.967-439.002,224.967-439.002,222.967z"/>
	<path fill-rule="evenodd" clip-rule="evenodd" fill="#CCCED9" d="M490.881,116.98c-2.787-2.125-1.806-5.049-2.027-7.923
		c1.392,0.292,0.59,2.14,2.027,1.924C490.881,112.981,490.881,114.98,490.881,116.98z"/>
	<path fill-rule="evenodd" clip-rule="evenodd" fill="#D4D6E0" d="M-439.002,211.968c2.788,2.125,1.805,5.049,2.027,7.923
		c-1.394-0.292-0.59-2.14-2.027-1.924C-439.002,215.968-439.002,213.968-439.002,211.968z"/>
	<path fill-rule="evenodd" clip-rule="evenodd" fill="#D4D6E0" d="M-439.002,199.97c2.788,2.125,1.805,5.049,2.027,7.923
		c-1.394-0.292-0.59-2.14-2.027-1.924C-439.002,203.969-439.002,201.97-439.002,199.97z"/>
	<path fill-rule="evenodd" clip-rule="evenodd" fill="#CCCED9" d="M490.881,180.972c-2.787-2.124-1.806-5.049-2.027-7.923
		c1.392,0.292,0.59,2.141,2.027,1.924C490.881,176.973,490.881,178.973,490.881,180.972z"/>
	<path fill-rule="evenodd" clip-rule="evenodd" fill="#CCCED9" d="M490.881,160.975c-2.787-2.124-1.806-5.049-2.027-7.923
		c1.392,0.292,0.59,2.14,2.027,1.924C490.881,156.976,490.881,158.975,490.881,160.975z"/>
	<path fill-rule="evenodd" clip-rule="evenodd" fill="#CCCED9" d="M490.881,170.974c-2.787-2.125-1.806-5.049-2.027-7.923
		c1.392,0.292,0.59,2.14,2.027,1.924C490.881,166.974,490.881,168.974,490.881,170.974z"/>
	<path fill-rule="evenodd" clip-rule="evenodd" fill="#CCCED9" d="M490.881,150.976c-2.787-2.124-1.806-5.049-2.027-7.923
		c1.392,0.292,0.59,2.141,2.027,1.924C490.881,146.977,490.881,148.977,490.881,150.976z"/>
	<path fill-rule="evenodd" clip-rule="evenodd" fill="#D4D6E0" d="M-439.002,275.96c2.788,2.124,1.805,5.049,2.027,7.923
		c-1.394-0.292-0.59-2.141-2.027-1.924C-439.002,279.96-439.002,277.96-439.002,275.96z"/>
	<path fill-rule="evenodd" clip-rule="evenodd" fill="#D4D6E0" d="M-439.002,265.962c2.788,2.124,1.805,5.049,2.027,7.923
		c-1.394-0.292-0.59-2.14-2.027-1.924C-439.002,269.961-439.002,267.961-439.002,265.962z"/>
	<path fill-rule="evenodd" clip-rule="evenodd" fill="#CCCED9" d="M490.881,127.979c-2.787-2.125-1.806-5.049-2.027-7.923
		c1.392,0.292,0.59,2.14,2.027,1.924C490.881,123.979,490.881,125.979,490.881,127.979z"/>
	<path fill-rule="evenodd" clip-rule="evenodd" fill="#CCCED9" d="M490.881,104.982c-2.787-2.125-1.806-5.049-2.027-7.923
		c1.392,0.292,0.59,2.14,2.027,1.924C490.881,100.982,490.881,102.982,490.881,104.982z"/>
	<path fill-rule="evenodd" clip-rule="evenodd" fill="#D4D6E0" d="M-439.002,255.963c2.788,2.125,1.805,5.049,2.027,7.923
		c-1.394-0.292-0.59-2.14-2.027-1.924C-439.002,259.962-439.002,257.963-439.002,255.963z"/>
	<path fill-rule="evenodd" clip-rule="evenodd" fill="#D4D6E0" d="M-439.002,245.964c2.788,2.124,1.805,5.049,2.027,7.923
		c-1.394-0.292-0.59-2.141-2.027-1.924C-439.002,249.964-439.002,247.964-439.002,245.964z"/>
	<path fill-rule="evenodd" clip-rule="evenodd" fill="#D4D6E0" d="M-439.002,234.966c2.788,2.124,1.805,5.049,2.027,7.923
		c-1.394-0.292-0.59-2.14-2.027-1.924C-439.002,238.965-439.002,236.965-439.002,234.966z"/>
	<path fill-rule="evenodd" clip-rule="evenodd" fill="#CCCED9" d="M490.881,139.978c-2.787-2.125-1.806-5.049-2.027-7.923
		c1.392,0.292,0.59,2.14,2.027,1.924C490.881,135.978,490.881,137.978,490.881,139.978z"/>
	<path fill-rule="evenodd" clip-rule="evenodd" fill="#1D3367" d="M744.85,1.995c-5.839,10.681-11.709,21.345-17.478,32.063
		c-0.765,1.42-1.413,2.153-3.206,2.019c-1.52-0.113-3.034-0.157-4.729,0.578c-2.686,1.164-5.431,0.494-6.579-2.909
		c-1.36-4.024-4.45-4.812-8.335-4.801c-31.322,0.083-62.654-0.463-93.965,0.14c-105.325,2.03-210.656,0.293-315.982,0.854
		c-2.813,0.015-5.326,0.582-6.827,2.814c-3.341,4.97-8.368,2.684-12.703,3.283c-0.586,0.08-1.61-0.73-1.935-1.377
		c-6.444-12.866-12.815-25.768-19.201-38.662c-2.487-4.986-4.957-9.98-7.465-14.955c-3.567-7.075-2.273-12.677,3.735-17.936
		c1.702-1.489,3.364-1.08,5.08-1.08C374.891-38.003,494.521-38,614.15-38c44.154,0,88.309,0.156,132.459-0.142
		c8.05-0.054,13.688,11.286,10.419,16.646c-4.271,7.008-7.923,14.396-11.804,21.64C744.941,0.675,744.968,1.374,744.85,1.995z"/>
	<path fill-rule="evenodd" clip-rule="evenodd" fill="#17244A" d="M25.907,1010.868c-147.137,0-294.273-0.032-441.41,0.091
		c-7.659,0.007-13.593-6.014-13.587-13.513c0.118-143.138,0.117-286.275-0.004-429.413c-0.006-6.998,6.078-13.211,13.406-13.207
		c294.44,0.117,588.88,0.117,883.32-0.003c7.169-0.003,13.359,6.24,13.352,13.274c-0.136,143.139-0.139,286.275,0.006,429.413
		c0.007,7.314-6.243,13.482-13.672,13.475C320.181,1010.828,173.044,1010.868,25.907,1010.868z"/>
	<path fill-rule="evenodd" clip-rule="evenodd" fill="#FEF5F3" d="M-437.236,1014.209c0.944-1.767-1.042-4.998,1.278-5.023
		c1.99-0.023,0.984,3.328,0.842,5.028c-0.262,3.14,0.727,4.196,3.788,3.688c1.295-0.216,2.655-0.032,3.986-0.055
		c0.755-0.014,1.292,0.199,1.25,1.072c-0.042,0.878-0.646,0.97-1.357,0.964c-2.662-0.021-5.411,0.407-7.963-0.124
		C-438.876,1019.04-435.902,1015.877-437.236,1014.209z"/>
	<path fill-rule="evenodd" clip-rule="evenodd" fill="#17244A" d="M975.842,1011.868c-146.138,0-292.276,0.069-438.414-0.12
		c-12.891-0.017-17.409-4.71-17.427-17.371c-0.196-140.973-0.196-281.944-0.003-422.917c0.018-12.825,4.663-17.408,17.386-17.415
		c292.277-0.154,584.553-0.154,876.83-0.002c12.884,0.007,17.407,4.707,17.425,17.375c0.197,140.973,0.195,281.945,0.004,422.917
		c-0.018,12.825-4.664,17.394-17.385,17.41C1268.119,1011.938,1121.98,1011.868,975.842,1011.868z"/>
	<path fill-rule="evenodd" clip-rule="evenodd" fill="#FEF5F3" d="M518.204,1019.868c-1.547-0.457-4.594,1.116-5.134-0.72
		c-0.853-2.897-0.264-6.229-0.198-9.376c0.006-0.279,0.644-0.755,0.993-0.761c0.351-0.004,0.959,0.428,1.011,0.741
		c0.132,0.804,0.142,1.672-0.019,2.472c-0.942,4.727,0.833,6.553,5.646,5.731c0.959-0.164,3.146-1.114,3.159,0.901
		c0.014,2.079-2.071,0.632-3.163,0.977C519.896,1020.023,519.184,1019.868,518.204,1019.868z"/>
	<path fill-rule="evenodd" clip-rule="evenodd" fill="#17244A" d="M519.877,286.053c0-70.146-0.143-140.294,0.125-210.439
		c0.051-13.472,5.077-17.414,17.287-17.48c59.315-0.322,118.632-0.172,177.948-0.121c10.641,0.009,19.883-3.425,27.66-10.611
		c6.854-6.334,14.767-9.451,24.158-9.449c207.939,0.05,415.88,0.025,623.82,0.06c19.015,0.003,34.281,12.897,39.7,30.557
		c0.969,3.155,1.139,6.652,1.141,9.992c0.055,139.626,0.121,279.253-0.078,418.879c-0.018,12.667-4.529,17.365-17.414,17.372
		c-292.249,0.153-584.498,0.155-876.748,0c-13.381-0.007-17.406-5.027-17.457-17.32
		C519.727,427.013,519.877,356.533,519.877,286.053z"/>
	<path fill-rule="evenodd" clip-rule="evenodd" fill="#FEF5F3" d="M1439.756,516.306c0.006,1.161-0.143,2.345,0.037,3.478
		c0.418,2.641-0.598,3.427-3.197,3.202c-2.799-0.241-5.635-0.052-8.454-0.036c-0.729,0.004-1.302-0.138-1.289-1.033
		c0.013-0.893,0.599-1.032,1.315-0.997c0.165,0.008,0.331,0.027,0.496,0.021c2.939-0.103,6.985,0.898,8.504-0.624
		c1.519-1.521,0.519-5.564,0.603-8.504c0.021-0.789-0.27-1.781,0.999-1.773c1.263,0.008,0.986,0.998,0.982,1.786
		C1439.742,513.318,1439.748,514.812,1439.756,516.306z"/>
	<path fill-rule="evenodd" clip-rule="evenodd" fill="#F2EAEA" d="M740.994,39.17c0.758-7.391,7.733-11.854,13.973-9.193
		c0.35,0.149,0.762,0.679,0.761,1.031c-0.004,1.244-1.009,0.879-1.765,0.989c-3.231,0.466-7.444-1.764-9.059,3.246
		c-0.095,0.293-0.371,0.546-0.605,0.774C743.262,37.023,742.21,38.013,740.994,39.17z"/>
	<path fill-rule="evenodd" clip-rule="evenodd" fill="#17254C" d="M-413.006,47.989c4.347-3.262,9.07-5.167,14.672-5.052
		c9.495,0.194,18.998,0.181,28.493-0.008c3.954-0.079,7.078,1.301,10.018,3.711c2.623,2.149,5.497,3.596,9.127,3.403
		c4.321-0.229,8.68-0.297,12.991,0.009c5.091,0.362,8.559-1.883,10.263-6.313c1.547-4.021,4.113-4.817,8.045-4.816
		C-133.933,39,51.534,38.986,237,39.006c7.733,0,14.632,2.655,20.242,7.904c8.52,7.971,18.377,12.106,30.079,12.097
		c59.323-0.042,118.646-0.114,177.967,0.063c11.405,0.034,16.494,5.629,16.505,16.361c0.134,141.308,0.131,282.615,0.01,423.922
		c-0.01,11.352-5.598,16.486-16.38,16.49c-292.947,0.108-585.893,0.107-878.839,0.01c-11.381-0.004-16.483-5.62-16.497-16.374
		c-0.145-116.146-0.063-232.291-0.201-348.436c-0.005-4.24,1.146-7.427,4.751-8.932c2.953-1.231,4.023-4.154,4.065-5.86
		c0.179-7.156,2.592-15.104-0.958-21.386c-8.25-14.598-3.485-30.071-4.539-45.104c-0.218-3.113,0.636-6.865,2.791-9.775
		c3.122,0,6.253-0.152,9.362,0.051c2.244,0.146,2.973-0.683,2.635-2.759C-412.509,54.2-410.938,50.899-413.006,47.989z"/>
	<path fill-rule="evenodd" clip-rule="evenodd" fill="#1E4773" d="M-426.004,113.981c-4.232-1.028-6.252-3.186-6.126-8.068
		c0.361-13.961,0.226-27.938,0.057-41.906c-0.042-3.472,0.917-6.253,3.24-8.685c0.345-0.361,0.703-0.709,1.057-1.06
		c5.432-5.384,10.004-12.781,16.543-15.574c6.322-2.7,14.67-0.672,22.128-0.693c7.317-0.02,14.635-0.005,21.953-0.004
		c7.187,0,7.836,0.514,10.14,7.999c-3.613-1.784-6.743-4.631-10.999-5c-0.247-1.084-1.086-1.05-1.922-1.009
		c-9.855,0.486-19.778-1.033-29.584,0.996c-0.477,0.099-0.992,0.013-1.49,0.013c-2.563,1.157-5.283,1.065-7.999,1
		c-3.043,0.103-4.956,2.154-6.652,4.229c-2.714,3.318-7.128,5.188-8.346,9.769c-3.676,2.36-5.041,5.82-5.018,10.072
		c0.057,10.588,0.273,21.185-0.083,31.761C-429.299,103.553-428.405,108.855-426.004,113.981z"/>
	<path fill-rule="evenodd" clip-rule="evenodd" fill="#F9FAFB" d="M-413.006,47.989c2.389,3.559,0.462,7.503,0.913,11.247
		c0.143,1.19-1.579,0.712-2.464,0.729c-3.148,0.06-6.298,0.023-9.447,0.023c-0.284-0.263-0.567-0.525-0.851-0.787
		C-420.906,55.463-416.956,51.726-413.006,47.989z"/>
	<path fill-rule="evenodd" clip-rule="evenodd" fill="#1E4773" d="M-356.013,45.989c7.666,0,15.332,0,22.997,0
		c-1.223,1.773-3.011,2.137-4.999,2c-4.666,0-9.333,0-13.999,0C-353.736,48.101-355.438,48.172-356.013,45.989z"/>
	<path fill-rule="evenodd" clip-rule="evenodd" fill="#1E4773" d="M-425.004,135.978c0-6.999,0-13.999,0-20.998
		c2.358,1.355,1.999,3.646,1.999,5.811c0.002,3.786-0.069,7.574,0.027,11.357C-422.934,133.892-422.99,135.405-425.004,135.978z"/>
	<path fill-rule="evenodd" clip-rule="evenodd" fill="#1E3463" d="M-401.007,40.99c10.031-1.768,20.155-0.753,30.237-0.956
		c0.926-0.019,2.41-0.955,2.758,0.956c-7.249,0-14.5,0.134-21.744-0.061c-3.251-0.087-6.197,1.704-9.487,1.111
		C-400.061,41.892-400.866,42.118-401.007,40.99z"/>
	<path fill-rule="evenodd" clip-rule="evenodd" fill="#1E3463" d="M-424.004,55.988c3.792-5.959,8.125-11.339,14.998-13.998
		C-414.006,46.656-419.005,51.322-424.004,55.988z"/>
	<path fill-rule="evenodd" clip-rule="evenodd" fill="#1E3463" d="M-352.014,47.989c4.666,0,9.333,0,13.999,0
		C-342.681,49.666-347.348,49.666-352.014,47.989z"/>
	<path fill-rule="evenodd" clip-rule="evenodd" fill="#16254C" d="M-197.033,628.916c-0.682-0.016-1.016,0.317-1,1
		c-13.825,0-27.649,0.006-41.474-0.003c-5.944-0.003-7.506-1.614-7.519-7.7c-0.005-2.498,0.004-4.996-0.003-7.495
		c-0.003-1.158-0.2-2.401,0.925-3.188c3.35-2.344,2.822-4.868,0.555-7.664c-2.594-3.198-0.923-7.686,3.201-7.861
		c7.148-0.307,14.782-1.655,21.374,0.286c9.759,2.877,19.295,0.979,28.888,1.508c9.964,0.549,20.299,1.645,29.875-0.353
		c7.848-1.637,15.411-0.711,23.05-1.504c2.866-0.297,4.842,0.814,5.121,3.979c0.069,3.359-0.392,6.771,1,9.999
		c0,5.282-0.179,10.573,0.064,15.846c0.155,3.362-1.194,4.25-4.317,4.201c-8.912-0.142-17.828-0.05-26.743-0.05
		c-1-0.667-2-1.333-3-2c-0.17-0.752-0.672-1.035-1.407-1.029c-8.392,0.068-16.783,0.051-25.174-0.004
		C-195.289,626.873-196.494,627.227-197.033,628.916z"/>
	<path fill-rule="evenodd" clip-rule="evenodd" fill="#17244A" d="M-310.019,629.916c-1-0.667-2-1.333-3-2
		c-0.17-0.752-0.672-1.035-1.407-1.029c-8.392,0.068-16.784,0.051-25.175-0.004c-1.67-0.01-2.875,0.344-3.415,2.033
		c-0.682-0.016-1.016,0.317-1,1c-13.824,0-27.649,0.006-41.474-0.003c-5.945-0.003-7.506-1.614-7.519-7.7
		c-0.005-2.498,0.004-4.996-0.003-7.495c-0.003-1.158-0.2-2.401,0.925-3.188c3.35-2.344,2.822-4.868,0.555-7.665
		c-2.594-3.197-0.922-7.685,3.201-7.86c7.148-0.307,14.782-1.655,21.374,0.286c9.759,2.877,19.295,0.979,28.888,1.508
		c9.963,0.549,20.299,1.645,29.875-0.353c7.848-1.637,15.411-0.711,23.05-1.504c2.866-0.297,4.843,0.813,5.121,3.979
		c0.069,3.359-0.393,6.771,1,9.999c0,5.282-0.179,10.573,0.064,15.846c0.155,3.362-1.194,4.25-4.317,4.201
		C-292.188,629.824-301.104,629.916-310.019,629.916z"/>
	<path fill-rule="evenodd" clip-rule="evenodd" fill="#17244A" d="M11.941,599.92c0.069,3.359-0.393,6.771,1,9.999
		c0,5.282-0.179,10.573,0.064,15.846c0.155,3.362-1.194,4.25-4.317,4.201c-8.913-0.142-17.829-0.05-26.743-0.05
		c-1-0.667-2-1.333-3-2c-0.169-0.752-0.672-1.035-1.407-1.029c-8.392,0.068-16.784,0.051-25.175-0.004
		c-1.67-0.01-2.875,0.344-3.415,2.033c-0.682-0.016-1.016,0.317-1,1c-13.824,0-27.649,0.006-41.474-0.003
		c-5.944-0.003-7.506-1.613-7.519-7.7c-0.005-2.498,0.004-4.996-0.003-7.495c-0.003-1.158-0.2-2.401,0.925-3.188
		c3.35-2.344,2.822-4.869,0.555-7.665c-2.594-3.197-0.923-7.685,3.201-7.86c7.148-0.307,14.782-1.655,21.374,0.286
		c9.759,2.877,19.295,0.979,28.888,1.508c9.963,0.549,20.299,1.645,29.875-0.353c7.849-1.637,15.411-0.711,23.05-1.504
		C9.687,595.645,11.663,596.756,11.941,599.92z"/>
	<path fill-rule="evenodd" clip-rule="evenodd" fill="#F8F9FA" d="M11.941,599.92c-0.287-2.687-1.703-4.018-4.482-3.998
		c-6.328,0.047-12.883-1.074-18.941,0.2c-18.874,3.973-37.863,1.593-56.719,1.344c-8.609-0.113-17.441-1.271-26.209-1.644
		c-3.221-0.137-5.088,1.438-6.419,3.657c-1.174,1.957,0.583,3.446,1.768,5.084c1.454,2.01,2.486,4.558-0.515,6.439
		c-2.179,1.365-1.396,3.499-1.456,5.391c-0.434,13.594-0.088,13.796,13.512,13.564c11.82-0.201,23.646-0.042,35.47-0.042
		c-0.237,1.565-1.401,0.979-2.298,0.979c-13.826,0.011-27.652,0.012-41.478,0.025c-4.251,0.004-6.586-2.152-6.146-6.342
		c0.549-5.235-1.921-10.796,1.846-15.783c0.63-0.835,0.224-2.901-0.885-4.531c-2.952-4.339-0.032-9.33,5.235-9.334
		c34.482-0.023,68.964-0.02,103.446-0.002C12.008,594.931,13.274,596.472,11.941,599.92z"/>
	<path fill-rule="evenodd" clip-rule="evenodd" fill="#F8F9FA" d="M-134.041,599.92c-0.286-2.687-1.703-4.018-4.481-3.998
		c-6.328,0.047-12.883-1.074-18.942,0.2c-18.874,3.973-37.863,1.593-56.718,1.344c-8.61-0.113-17.442-1.27-26.209-1.644
		c-3.221-0.137-5.088,1.438-6.42,3.657c-1.174,1.957,0.583,3.446,1.769,5.084c1.454,2.01,2.487,4.558-0.516,6.439
		c-2.179,1.365-1.396,3.5-1.456,5.391c-0.434,13.594-0.088,13.796,13.512,13.564c11.82-0.201,23.646-0.042,35.47-0.042
		c-0.237,1.565-1.402,0.979-2.299,0.979c-13.826,0.011-27.652,0.012-41.478,0.025c-4.251,0.004-6.586-2.153-6.146-6.342
		c0.549-5.235-1.922-10.796,1.845-15.783c0.63-0.835,0.224-2.901-0.885-4.531c-2.952-4.339-0.032-9.33,5.235-9.334
		c34.482-0.023,68.964-0.02,103.446-0.002C-133.974,594.931-132.708,596.472-134.041,599.92z"/>
	<path fill-rule="evenodd" clip-rule="evenodd" fill="#F8F9FA" d="M-280.022,599.92c-0.286-2.688-1.704-4.018-4.482-3.998
		c-6.327,0.047-12.883-1.074-18.941,0.2c-18.874,3.973-37.863,1.593-56.719,1.344c-8.609-0.113-17.441-1.27-26.209-1.644
		c-3.221-0.137-5.088,1.438-6.419,3.657c-1.175,1.957,0.583,3.446,1.768,5.084c1.454,2.01,2.487,4.558-0.516,6.44
		c-2.179,1.365-1.395,3.499-1.455,5.39c-0.434,13.594-0.088,13.796,13.512,13.564c11.82-0.201,23.646-0.042,35.47-0.042
		c-0.237,1.566-1.401,0.979-2.298,0.979c-13.826,0.011-27.652,0.012-41.478,0.025c-4.251,0.004-6.586-2.152-6.146-6.342
		c0.549-5.235-1.921-10.796,1.846-15.783c0.629-0.835,0.224-2.901-0.885-4.531c-2.952-4.339-0.032-9.33,5.234-9.334
		c34.482-0.023,68.964-0.02,103.447-0.002C-279.955,594.931-278.689,596.472-280.022,599.92z"/>
	<path fill-rule="evenodd" clip-rule="evenodd" fill="#FEFEFE" d="M128.702,594.921c13.973,0,27.95,0.202,41.914-0.128
		c4.003-0.094,4.515,1.215,4.421,4.644c-0.073,2.656-1.177,5.56,0.834,8.127c0.322,0.411,0.458,1.725-0.433,2.201
		c-0.521,0.278-1.356,0.35-1.896,0.132c-0.956-0.387-0.736-1.432-0.587-2.175c0.15-0.74,0.868-1.372,0.993-2.11
		c1.455-8.609,0.53-9.691-8.122-9.691c-26.115,0-52.231,0.111-78.344-0.115c-4.091-0.035-5.164,1.294-4.539,4.877
		c0.385,2.203-0.88,4.554,0.804,6.686c0.49,0.62,0.669,1.991-0.492,2.526c-0.507,0.233-1.461,0.168-1.857-0.173
		c-0.819-0.706-0.82-1.859-0.104-2.594c1.146-1.175,0.591-2.51,0.611-3.754c0.142-8.452,0.116-8.452,8.373-8.452
		C103.086,594.921,115.894,594.921,128.702,594.921z"/>
	<path fill-rule="evenodd" clip-rule="evenodd" fill="#FEFEFE" d="M285.112,595.92c-13.807,0-27.614,0.08-41.418-0.064
		c-2.819-0.029-4.488,0.271-3.792,3.604c0.554,2.661-1.012,5.556,0.961,8.125c0.326,0.424,0.45,1.729-0.449,2.195
		c-0.524,0.271-1.363,0.332-1.897,0.105c-0.943-0.399-0.889-1.613-0.56-2.163c1.945-3.254,0.736-6.753,0.87-10.113
		c0.083-2.1,0.452-2.753,2.708-2.746c29.277,0.087,58.552,0.092,87.828-0.005c2.392-0.008,2.498,0.896,2.614,2.841
		c0.202,3.362-1.093,6.863,0.88,10.114c0.325,0.537,0.392,1.708-0.635,2.1c-0.436,0.166-1.007,0.111-1.482,0.008
		c-1.145-0.252-0.929-1.239-0.801-1.969c0.103-0.589,0.848-1.104,0.861-1.663c0.074-3.286,0.946-7.008-0.313-9.718
		c-0.88-1.896-4.866-0.589-7.448-0.608C310.396,595.869,297.754,595.92,285.112,595.92z"/>
	<path fill-rule="evenodd" clip-rule="evenodd" fill="#FEFEFE" d="M285.137,630.916c-14.304,0-28.609-0.038-42.913,0.039
		c-2.282,0.013-3.587-0.079-3.419-3.053c0.169-2.999,0.899-6.187-0.847-9.101c-0.224-0.373,0.072-1.408,0.458-1.701
		c0.433-0.327,1.325-0.373,1.867-0.16c0.966,0.38,0.736,1.424,0.592,2.165c-0.114,0.586-0.866,1.041-1,1.632
		c-1.647,7.178-0.074,9.179,7.131,9.179c25.614,0,51.229,0,76.844,0c7.165,0,8.741-2.036,7.071-9.213
		c-0.103-0.44-0.746-0.752-0.857-1.193c-0.225-0.902-0.638-2.026,0.511-2.566c0.503-0.236,1.587-0.167,1.827,0.173
		c0.41,0.581,0.701,1.644,0.432,2.216c-0.406,0.861-0.954,1.503-0.988,2.627c-0.088,2.927,1.413,7.075-0.608,8.464
		c-2.153,1.48-6.042,0.48-9.173,0.485C309.754,630.928,297.446,630.916,285.137,630.916z"/>
	<path fill-rule="evenodd" clip-rule="evenodd" fill="#FEFEFE" d="M128.325,630.916c-14.307,0-28.614-0.073-42.918,0.064
		c-2.696,0.026-3.687-0.487-3.576-3.414c0.107-2.838,0.951-5.86-0.85-8.611c-0.326-0.498-0.405-1.701,0.691-2.035
		c0.457-0.139,1.02-0.127,1.484-0.001c1.118,0.304,0.845,1.295,0.765,2.034c-1.181,10.964-1.189,10.963,9.44,10.963
		c25.451,0,50.904-0.075,76.355,0.09c3.409,0.022,4.901-0.635,4.22-4.206c-0.415-2.18,0.806-4.566-0.966-6.634
		c-0.343-0.399-0.418-1.733,0.506-2.165c0.529-0.247,1.368-0.244,1.897,0.006c0.921,0.436,0.679,1.498,0.506,2.208
		c-0.213,0.877-0.975,1.445-1.036,2.599c-0.164,3.053,1.591,7.262-0.813,8.854c-2.186,1.448-6.113,0.253-9.273,0.251
		C152.612,630.912,140.468,630.916,128.325,630.916z"/>
	<path fill-rule="evenodd" clip-rule="evenodd" fill="#FAFBFC" d="M424.615,595.92c-4.651,0-9.303,0.094-13.949-0.043
		c-1.998-0.059-3.211,0.206-2.783,2.585c0.541,2.996-1.037,6.197,0.959,9.104c0.316,0.46,0.454,1.729-0.438,2.202
		c-0.522,0.276-1.355,0.347-1.894,0.128c-0.954-0.387-0.908-1.601-0.575-2.147c1.978-3.245,0.702-6.741,0.874-10.097
		c0.104-2.019,0.338-2.826,2.661-2.793c10.294,0.146,20.592,0.06,30.889,0.067c1.24,0.001,2.545-0.469,2.593,1.783
		c0.083,3.856-0.838,7.798,0.886,11.578c0.531,1.163-0.308,1.724-1.599,1.665c-1.066-0.049-1.311-0.489-1.397-1.48
		c-0.086-0.991,0.884-1.48,0.912-2.161c0.134-3.28,0.998-6.998-0.247-9.712c-0.895-1.947-4.848-0.499-7.428-0.638
		C430.933,595.791,427.77,595.92,424.615,595.92z"/>
	<path fill-rule="evenodd" clip-rule="evenodd" fill="#FAFBFC" d="M424.938,630.916c-4.982,0-9.974-0.196-14.94,0.077
		c-2.766,0.153-3.157-0.825-3.2-3.283c-0.05-2.847,1.071-5.868-0.859-8.604c-0.347-0.492-0.387-1.752,0.555-2.151
		c0.534-0.228,1.371-0.172,1.894,0.098c0.9,0.463,0.518,1.476,0.469,2.233c-0.027,0.408-0.707,0.742-0.822,1.181
		c-1.921,7.288-0.287,9.45,7.091,9.45c7.805,0,15.614-0.15,23.411,0.078c2.91,0.085,3.854-0.839,3.346-3.537
		c-0.442-2.345,0.998-4.906-0.928-7.135c-0.321-0.371,0.017-1.609,0.419-2.192c0.234-0.34,1.303-0.408,1.82-0.188
		c1.203,0.514,0.986,1.933,0.51,2.492c-0.875,1.029-0.786,2.055-0.83,3.194c-0.316,8.287-0.328,8.287-8.47,8.287
		C431.248,630.916,428.093,630.916,424.938,630.916z"/>
	<path fill-rule="evenodd" clip-rule="evenodd" fill="#F8F9FA" d="M-310.019,629.916c8.927,0,17.857-0.109,26.782,0.06
		c3.176,0.06,4.407-0.91,4.272-4.188c-0.216-5.282-0.059-10.579-0.059-15.869c2.215,4.417,0.736,9.114,0.931,13.667
		c0.356,8.299,0.467,7.341-7.366,7.332c-7.265-0.009-14.53,0.029-21.794-0.044C-308.188,630.865-309.667,631.83-310.019,629.916z"/>
	<path fill-rule="evenodd" clip-rule="evenodd" fill="#F8F9FA" d="M-18.055,629.916c8.928,0,17.857-0.109,26.783,0.06
		c3.176,0.06,4.406-0.91,4.272-4.188c-0.216-5.282-0.059-10.579-0.059-15.869c2.215,4.417,0.736,9.114,0.932,13.667
		c0.355,8.296,0.469,7.342-7.367,7.332c-7.265-0.009-14.53,0.029-21.794-0.044C-16.225,630.865-17.703,631.83-18.055,629.916z"/>
	<path fill-rule="evenodd" clip-rule="evenodd" fill="#F8F9FA" d="M-164.037,629.916c8.928,0,17.858-0.109,26.783,0.06
		c3.176,0.06,4.406-0.91,4.272-4.188c-0.216-5.282-0.059-10.579-0.059-15.869c2.215,4.417,0.736,9.114,0.932,13.667
		c0.355,8.296,0.47,7.342-7.366,7.332c-7.265-0.009-14.53,0.029-21.794-0.044C-162.206,630.865-163.685,631.83-164.037,629.916z"/>
	<path fill-rule="evenodd" clip-rule="evenodd" fill="#F8F9FA" d="M-343.015,628.916c0.538-1.653,1.645-2.033,3.364-2.02
		c8.444,0.07,16.889-0.031,25.334-0.076c0.765-0.006,1.214,0.316,1.298,1.096c-7.308,0-14.617,0.013-21.925-0.007
		C-337.681,627.902-340.426,627.762-343.015,628.916z"/>
	<path fill-rule="evenodd" clip-rule="evenodd" fill="#F8F9FA" d="M-197.033,628.916c0.538-1.653,1.644-2.033,3.364-2.02
		c8.444,0.07,16.889-0.031,25.333-0.076c0.765-0.006,1.215,0.316,1.298,1.096c-7.308,0-14.617,0.013-21.925-0.007
		C-191.699,627.902-194.444,627.762-197.033,628.916z"/>
	<path fill-rule="evenodd" clip-rule="evenodd" fill="#F8F9FA" d="M-51.051,628.916c0.538-1.653,1.645-2.033,3.364-2.02
		c8.444,0.07,16.889-0.031,25.334-0.076c0.765-0.006,1.214,0.316,1.298,1.096c-7.308,0-14.617,0.013-21.925-0.007
		C-45.717,627.902-48.463,627.762-51.051,628.916z"/>
	<path fill-rule="evenodd" clip-rule="evenodd" fill="#FEFEFE" d="M-193.835,629.062c8.867,0,17.734,0,26.601,0
		c0.002,0.186,0.005,0.372,0.007,0.558c-8.868,0-17.737,0-26.605,0C-193.833,629.434-193.834,629.247-193.835,629.062z"/>
	<path fill-rule="evenodd" clip-rule="evenodd" fill="#FEFEFE" d="M-47.957,629.098c8.866,0,17.733,0,26.599,0
		c0.005,0.162,0.009,0.325,0.014,0.488c-8.801,0-17.603,0-26.404,0C-47.817,629.423-47.887,629.26-47.957,629.098z"/>
	<path fill-rule="evenodd" clip-rule="evenodd" fill="#FEFEFE" d="M-313.21,629.769c-8.867,0-17.734,0-26.601,0
		c-0.003-0.185-0.005-0.369-0.008-0.554c8.864,0,17.729,0,26.592,0C-313.221,629.399-313.215,629.584-313.21,629.769z"/>
	<path fill-rule="evenodd" clip-rule="evenodd" fill="#162850" d="M637.862,629.916c-1-0.667-1.999-1.333-2.999-2
		c-0.17-0.752-0.673-1.035-1.407-1.029c-8.392,0.068-16.784,0.049-25.175-0.004c-1.671-0.01-2.876,0.344-3.414,2.033
		c-0.683-0.016-1.016,0.317-1,1c-13.825,0-27.649,0.006-41.475-0.003c-5.944-0.003-7.506-1.614-7.519-7.7
		c-0.006-2.498,0.005-4.996-0.003-7.495c-0.004-1.158-0.201-2.401,0.924-3.188c3.35-2.344,2.822-4.868,0.556-7.664
		c-2.594-3.198-0.923-7.686,3.2-7.861c7.148-0.307,14.782-1.655,21.374,0.286c9.759,2.877,19.296,0.979,28.888,1.508
		c9.964,0.549,20.299,1.645,29.875-0.353c7.849-1.637,15.411-0.711,23.051-1.504c2.866-0.297,4.842,0.814,5.12,3.979
		c0.069,3.359-0.392,6.771,1,9.999c0,5.282-0.179,10.573,0.064,15.846c0.155,3.363-1.193,4.251-4.316,4.201
		C655.693,629.824,646.777,629.916,637.862,629.916z"/>
	<path fill-rule="evenodd" clip-rule="evenodd" fill="#16284F" d="M929.826,629.916c-1-0.667-2-1.333-3-2
		c-0.17-0.752-0.673-1.035-1.407-1.029c-8.392,0.068-16.783,0.051-25.174-0.004c-1.671-0.01-2.876,0.344-3.415,2.033
		c-0.683-0.016-1.016,0.317-1,1c-13.824,0-27.648,0.006-41.473-0.003c-5.946-0.003-7.508-1.613-7.52-7.7
		c-0.006-2.498,0.004-4.996-0.004-7.495c-0.004-1.158-0.199-2.401,0.924-3.188c3.351-2.344,2.823-4.868,0.556-7.665
		c-2.593-3.197-0.923-7.685,3.201-7.86c7.148-0.307,14.782-1.655,21.374,0.286c9.759,2.878,19.296,0.979,28.888,1.508
		c9.964,0.549,20.299,1.645,29.876-0.353c7.848-1.637,15.41-0.711,23.05-1.504c2.865-0.297,4.842,0.813,5.12,3.979
		c0.069,3.359-0.393,6.771,1,9.999c0,5.282-0.179,10.573,0.064,15.846c0.155,3.363-1.193,4.251-4.317,4.201
		C947.657,629.824,938.741,629.916,929.826,629.916z"/>
	<path fill-rule="evenodd" clip-rule="evenodd" fill="#F8F9FA" d="M959.822,599.92c-0.285-2.688-1.703-4.018-4.481-3.998
		c-6.328,0.047-12.884-1.074-18.941,0.2c-18.875,3.973-37.864,1.593-56.72,1.344c-8.609-0.113-17.441-1.271-26.209-1.644
		c-3.222-0.137-5.089,1.438-6.42,3.657c-1.174,1.958,0.584,3.446,1.769,5.084c1.454,2.011,2.487,4.558-0.516,6.439
		c-2.179,1.365-1.396,3.5-1.456,5.391c-0.434,13.596-0.086,13.795,13.513,13.564c11.82-0.201,23.646-0.042,35.47-0.042
		c-0.237,1.566-1.402,0.979-2.299,0.979c-13.826,0.011-27.651,0.012-41.478,0.025c-4.253,0.004-6.585-2.154-6.146-6.342
		c0.549-5.235-1.923-10.796,1.845-15.783c0.63-0.834,0.224-2.901-0.884-4.531c-2.952-4.339-0.033-9.33,5.233-9.334
		c34.481-0.023,68.965-0.02,103.447-0.002C959.89,594.931,961.155,596.472,959.822,599.92z"/>
	<path fill-rule="evenodd" clip-rule="evenodd" fill="#EEEFF2" d="M814.523,599.82c-1.278-3.55-3.921-4.359-7.273-3.92
		c-0.982,0.129-2.007-0.076-2.993,0.033c-23.329,2.622-46.785,2.643-70.136,1.604c-8.849-0.394-17.783-1.326-26.713-1.718
		c-3.011-0.131-4.742,1.326-6.117,3.308c-1.525,2.197,0.334,3.701,1.587,5.497c1.377,1.973,2.504,4.584-0.606,6.435
		c-1.777,1.056-1.403,2.771-1.427,4.406c-0.205,14.308-0.925,14.77,14.098,14.493c11.595-0.214,23.195-0.043,35.333-0.043
		c-1.734,1.647-3.245,0.952-4.572,0.959c-12.984,0.068-25.97,0.046-38.956,0.038c-4.809-0.003-7.118-2.017-6.825-6.654
		c0.331-5.247-1.625-10.758,1.839-15.749c0.573-0.825,0.214-2.615-0.751-4.094c-3.088-4.733-0.275-9.486,5.406-9.489
		c34.295-0.014,68.591,0.017,102.885-0.042C812.771,594.878,814.924,595.803,814.523,599.82z"/>
	<path fill-rule="evenodd" clip-rule="evenodd" fill="#F8F9FA" d="M667.858,599.92c-0.285-2.688-1.702-4.018-4.481-3.998
		c-6.327,0.047-12.883-1.074-18.941,0.2c-18.873,3.973-37.863,1.593-56.719,1.344c-8.609-0.113-17.441-1.27-26.21-1.644
		c-3.222-0.137-5.088,1.438-6.419,3.657c-1.175,1.958,0.584,3.446,1.769,5.084c1.453,2.011,2.487,4.558-0.516,6.44
		c-2.18,1.364-1.396,3.499-1.456,5.39c-0.434,13.594-0.088,13.796,13.512,13.564c11.821-0.201,23.646-0.042,35.471-0.042
		c-0.237,1.566-1.402,0.979-2.299,0.979c-13.826,0.011-27.652,0.012-41.479,0.025c-4.251,0.004-6.586-2.153-6.146-6.342
		c0.55-5.235-1.921-10.796,1.846-15.783c0.631-0.835,0.225-2.901-0.885-4.531c-2.951-4.339-0.031-9.33,5.234-9.334
		c34.483-0.023,68.965-0.02,103.447-0.002C667.926,594.931,669.191,596.472,667.858,599.92z"/>
	<path fill-rule="evenodd" clip-rule="evenodd" fill="#FEFEFE" d="M1233.843,594.921c13.973,0,27.945,0.076,41.917-0.062
		c2.961-0.028,4.379,0.346,4.144,3.863c-0.199,2.981-1.026,6.188,0.832,9.106c0.33,0.519,0.399,1.705-0.646,2.085
		c-0.439,0.16-1.009,0.115-1.482,0.006c-1.14-0.262-0.945-1.262-0.795-1.979c0.254-1.209,1.013-2.163,1.054-3.594
		c0.242-8.429,0.33-8.427-7.959-8.427c-26.28,0-52.563,0.066-78.843-0.082c-3.292-0.018-5.014,0.455-4.28,4.129
		c0.5,2.502-0.999,5.232,0.96,7.631c0.329,0.402,0.447,1.726-0.455,2.188c-0.525,0.27-1.363,0.323-1.897,0.094
		c-0.94-0.403-0.885-1.627-0.552-2.163c1.813-2.923,0.963-6.105,0.849-9.109c-0.116-3.031,0.601-3.822,3.742-3.777
		C1204.899,595.036,1219.372,594.921,1233.843,594.921z"/>
	<path fill-rule="evenodd" clip-rule="evenodd" fill="#FEFEFE" d="M1076.821,594.921c13.973,0,27.947,0.152,41.915-0.104
		c3.643-0.067,4.354,1.017,4.172,4.361c-0.154,2.829-0.913,5.854,0.847,8.609c0.335,0.525,0.395,1.755-0.61,2.109
		c-0.554,0.195-1.594,0.169-1.837-0.171c-0.413-0.579-0.618-1.544-0.452-2.235c0.17-0.706,0.898-1.161,1.021-2.104
		c1.16-8.979,0.758-9.467-8.407-9.467c-26.114,0-52.23,0.115-78.344-0.121c-3.967-0.037-4.911,1.188-4.308,4.624
		c0.413,2.351-0.942,4.905,0.944,7.138c0.313,0.369-0.055,1.615-0.475,2.186c-0.25,0.339-1.301,0.362-1.844,0.15
		c-0.969-0.379-0.927-1.62-0.583-2.137c1.935-2.913,0.891-6.107,0.845-9.114c-0.046-2.931,0.479-3.87,3.705-3.821
		C1047.878,595.046,1062.351,594.921,1076.821,594.921z"/>
	<path fill-rule="evenodd" clip-rule="evenodd" fill="#FEFEFE" d="M1075.776,630.916c-14.138,0-28.275-0.063-42.413,0.057
		c-2.576,0.021-3.807-0.262-3.656-3.331c0.14-2.832,0.909-5.854-0.847-8.608c-0.334-0.523-0.387-1.704,0.621-2.109
		c0.429-0.172,1.002-0.106,1.481-0.008c1.154,0.238,0.892,1.209,0.825,1.959c-0.039,0.43-0.491,0.808-0.616,1.249
		c-2.198,7.771-0.749,9.792,6.995,9.792c26.28,0,52.561-0.129,78.839,0.127c4.35,0.043,5.542-1.242,4.792-5.145
		c-0.331-1.723,0.729-3.584-0.679-5.229c-0.665-0.776-0.646-1.916,0.19-2.596c0.411-0.333,1.399-0.394,1.869-0.126
		c1.039,0.592,0.919,1.844,0.396,2.569c-0.636,0.883-0.789,1.682-0.794,2.705c-0.013,2.786,0.818,7.247-0.463,7.994
		c-2.368,1.382-6.007,0.676-9.116,0.685C1100.727,630.938,1088.252,630.916,1075.776,630.916z"/>
	<path fill-rule="evenodd" clip-rule="evenodd" fill="#FEFEFE" d="M1233.158,630.916c-14.305,0-28.609-0.076-42.912,0.067
		c-2.733,0.027-3.657-0.553-3.552-3.438c0.104-2.841,0.931-5.858-0.853-8.61c-0.325-0.503-0.395-1.698,0.713-2.016
		c0.461-0.132,1.023-0.133,1.484,0c1.107,0.32,0.827,1.316,0.743,2.056c-1.247,10.942-1.256,10.941,9.457,10.941
		c25.449,0,50.898-0.076,76.347,0.091c3.421,0.022,4.888-0.655,4.213-4.213c-0.413-2.179,0.794-4.561-0.962-6.632
		c-0.351-0.412-0.424-1.732,0.5-2.164c0.528-0.248,1.367-0.238,1.897,0.012c0.922,0.436,0.681,1.502,0.506,2.207
		c-0.217,0.876-1.063,1.408-1.02,2.606c0.106,2.935,0.854,7.664-0.502,8.438c-2.518,1.436-6.35,0.635-9.635,0.643
		C1257.442,630.935,1245.3,630.916,1233.158,630.916z"/>
	<path fill-rule="evenodd" clip-rule="evenodd" fill="#FAFBFC" d="M1373.2,594.921c4.982,0,9.966,0.042,14.947-0.024
		c1.629-0.021,2.712-0.116,2.703,2.208c-0.014,3.688-0.85,7.487,0.869,11.081c0.191,0.402-0.159,1.412-0.557,1.655
		c-0.46,0.281-1.346,0.225-1.872-0.037c-0.909-0.451-0.795-1.7-0.475-2.189c1.907-2.912,0.465-6.101,0.966-9.101
		c0.385-2.305-0.655-2.668-2.737-2.643c-9.465,0.113-18.935,0.149-28.398-0.02c-2.477-0.043-3.227,0.648-2.896,3.012
		c0.42,3.009-0.759,6.171,0.976,9.092c0.319,0.536,0.365,1.692-0.766,1.965c-0.471,0.113-1.036,0.149-1.48-0.005
		c-1.054-0.366-0.911-1.436-0.659-2.081c0.46-1.181,1.086-2.18,1.015-3.608c-0.146-2.949-1.108-7.098,0.401-8.593
		c2.102-2.079,6.236-0.549,9.495-0.687C1367.55,594.826,1370.377,594.921,1373.2,594.921z"/>
	<path fill-rule="evenodd" clip-rule="evenodd" fill="#FAFBFC" d="M1372.521,630.916c-4.815,0-9.635-0.094-14.445,0.041
		c-2.297,0.064-3.574-0.102-3.41-3.056c0.167-2.995,0.876-6.166-0.847-9.085c-0.324-0.55-0.33-1.686,0.831-1.901
		c0.482-0.089,1.061-0.173,1.479,0.01c0.974,0.425,0.749,1.417,0.607,2.155c-0.112,0.585-0.85,1.043-0.986,1.632
		c-1.669,7.166-0.087,9.204,7.06,9.204c7.639,0,15.287-0.238,22.91,0.103c3.671,0.164,4.682-1.072,4.047-4.36
		c-0.392-2.03,0.867-4.221-0.802-6.184c-0.519-0.607-0.655-1.978,0.464-2.53c0.495-0.245,1.453-0.181,1.859,0.156
		c0.839,0.694,0.833,1.851,0.139,2.588c-1.253,1.328-0.601,2.84-0.62,4.237c-0.102,6.989-0.059,6.99-6.827,6.99
		C1380.158,630.916,1376.34,630.916,1372.521,630.916z"/>
	<path fill-rule="evenodd" clip-rule="evenodd" fill="#F8F9FA" d="M637.862,629.916c8.928,0,17.858-0.109,26.783,0.06
		c3.175,0.06,4.405-0.91,4.271-4.188c-0.217-5.282-0.059-10.579-0.059-15.869c2.213,4.417,0.736,9.114,0.932,13.667
		c0.355,8.302,0.466,7.341-7.366,7.332c-7.265-0.009-14.529,0.029-21.794-0.044C639.693,630.865,638.214,631.83,637.862,629.916z"/>
	<path fill-rule="evenodd" clip-rule="evenodd" fill="#F8F9FA" d="M929.826,629.916c8.928,0,17.858-0.109,26.782,0.06
		c3.176,0.06,4.406-0.91,4.272-4.188c-0.217-5.282-0.059-10.579-0.059-15.869c2.213,4.417,0.736,9.114,0.932,13.667
		c0.355,8.302,0.466,7.341-7.366,7.332c-7.265-0.009-14.529,0.029-21.794-0.044C931.657,630.865,930.178,631.83,929.826,629.916z"/>
	<path fill-rule="evenodd" clip-rule="evenodd" fill="#EEEFF2" d="M815.827,610.159c0,5.927-0.06,11.854,0.035,17.78
		c0.03,1.845-0.775,2.954-2.426,2.969c-9.851,0.09-19.703,0.045-29.554-0.992c8.729,0,17.465-0.162,26.188,0.078
		c3.62,0.1,5.049-0.884,4.84-4.668c-0.282-5.075-0.07-10.178-0.07-15.268C815.17,610.092,815.498,610.126,815.827,610.159z"/>
	<path fill-rule="evenodd" clip-rule="evenodd" fill="#F8F9FA" d="M604.867,628.916c0.537-1.653,1.644-2.033,3.364-2.02
		c8.443,0.07,16.889-0.029,25.333-0.076c0.766-0.006,1.215,0.316,1.299,1.096c-7.309,0-14.617,0.013-21.926-0.007
		C610.2,627.902,607.455,627.762,604.867,628.916z"/>
	<path fill-rule="evenodd" clip-rule="evenodd" fill="#F8F9FA" d="M896.83,628.916c0.538-1.653,1.645-2.033,3.365-2.02
		c8.443,0.07,16.889-0.029,25.332-0.076c0.766-0.006,1.215,0.316,1.299,1.096c-7.309,0-14.616,0.013-21.925-0.007
		C902.163,627.902,899.419,627.762,896.83,628.916z"/>
	<path fill-rule="evenodd" clip-rule="evenodd" fill="#EEEFF2" d="M750.999,628.109c9.806-2.092,19.773-0.674,29.653-1.299
		c0.014,0.432,0.027,0.865,0.041,1.299C770.795,628.109,760.896,628.109,750.999,628.109z"/>
	<path fill-rule="evenodd" clip-rule="evenodd" fill="#FEFEFE" d="M634.616,629.755c-8.867,0-17.733,0-26.601,0
		c-0.002-0.188-0.003-0.376-0.004-0.563c8.899,0,17.799,0,26.698,0C634.679,629.379,634.647,629.567,634.616,629.755z"/>
	<path fill-rule="evenodd" clip-rule="evenodd" fill="#FEFEFE" d="M754.15,629.097c8.867,0,17.733,0,26.601,0
		c0,0.189,0,0.38,0,0.569c-8.936,0-17.871,0-26.807,0C754.014,629.477,754.082,629.286,754.15,629.097z"/>
	<path fill-rule="evenodd" clip-rule="evenodd" fill="#FEFEFE" d="M900.028,629.062c8.866,0,17.732,0,26.6,0
		c0.003,0.186,0.005,0.372,0.008,0.558c-8.868,0-17.737,0-26.604,0C900.03,629.434,900.029,629.247,900.028,629.062z"/>
	<path fill-rule="evenodd" clip-rule="evenodd" fill="#17244A" d="M783.845,109.981c-1-0.667-2-1.333-3-2
		c-0.17-0.752-0.672-1.036-1.407-1.03c-8.392,0.068-16.784,0.05-25.175-0.003c-1.67-0.01-2.875,0.343-3.414,2.033
		c-0.682-0.016-1.016,0.318-1,1c-13.824,0-27.649,0.006-41.474-0.002c-5.945-0.004-7.507-1.614-7.52-7.7
		c-0.006-2.499,0.005-4.997-0.003-7.496c-0.004-1.158-0.201-2.401,0.924-3.188c3.351-2.344,2.823-4.869,0.556-7.665
		c-2.594-3.198-0.924-7.685,3.201-7.861c7.148-0.307,14.782-1.655,21.373,0.287c9.76,2.876,19.295,0.979,28.888,1.507
		c9.964,0.548,20.299,1.644,29.875-0.353c7.849-1.637,15.411-0.711,23.051-1.504c2.866-0.298,4.843,0.815,5.121,3.979
		c0.069,3.359-0.393,6.772,1,9.999c0,5.283-0.179,10.574,0.064,15.845c0.155,3.364-1.193,4.251-4.317,4.202
		C801.675,109.89,792.759,109.981,783.845,109.981z"/>
	<path fill-rule="evenodd" clip-rule="evenodd" fill="#17244A" d="M929.826,109.981c-1-0.667-2-1.333-3-2
		c-0.17-0.752-0.672-1.036-1.407-1.03c-8.392,0.068-16.783,0.05-25.174-0.003c-1.671-0.01-2.876,0.343-3.415,2.033
		c-0.682-0.016-1.016,0.318-1,1c-13.824,0-27.648,0.006-41.473-0.002c-5.946-0.004-7.508-1.614-7.52-7.7
		c-0.006-2.499,0.004-4.997-0.004-7.496c-0.004-1.158-0.201-2.401,0.924-3.188c3.351-2.344,2.823-4.869,0.556-7.665
		c-2.593-3.198-0.924-7.685,3.201-7.861c7.148-0.307,14.782-1.655,21.373,0.287c9.76,2.876,19.296,0.979,28.888,1.507
		c9.964,0.548,20.299,1.644,29.876-0.353c7.849-1.637,15.411-0.711,23.051-1.504c2.865-0.298,4.842,0.815,5.12,3.979
		c0.069,3.359-0.393,6.772,1,9.999c0,5.283-0.179,10.574,0.064,15.845c0.155,3.364-1.193,4.251-4.317,4.202
		C947.657,109.89,938.741,109.981,929.826,109.981z"/>
	<path fill-rule="evenodd" clip-rule="evenodd" fill="#F8F9FA" d="M959.822,79.985c-0.286-2.687-1.703-4.018-4.481-3.997
		c-6.328,0.046-12.884-1.075-18.941,0.2c-18.874,3.972-37.863,1.593-56.72,1.344c-8.609-0.113-17.441-1.271-26.209-1.644
		c-3.221-0.137-5.088,1.437-6.42,3.656c-1.174,1.958,0.584,3.446,1.769,5.085c1.454,2.01,2.487,4.557-0.516,6.439
		c-2.179,1.366-1.396,3.5-1.456,5.391c-0.434,13.597-0.084,13.795,13.513,13.565c11.82-0.201,23.646-0.042,35.47-0.042
		c-0.237,1.565-1.402,0.978-2.299,0.979c-13.826,0.01-27.652,0.012-41.478,0.025c-4.253,0.004-6.585-2.154-6.146-6.341
		c0.549-5.235-1.923-10.795,1.844-15.784c0.631-0.834,0.225-2.9-0.883-4.53c-2.952-4.339-0.033-9.331,5.234-9.334
		c34.481-0.023,68.964-0.02,103.446-0.002C959.89,74.996,961.155,76.538,959.822,79.985z"/>
	<path fill-rule="evenodd" clip-rule="evenodd" fill="#EEEFF2" d="M603.715,110.951c-14.931,0-29.861,0.088-44.79-0.073
		c-3.091-0.033-5.249-2.173-4.967-5.398c0.487-5.569-1.881-11.423,1.826-16.758c0.663-0.955,0.138-2.896-0.979-4.504
		c-2.811-4.044,0.082-9.208,4.976-9.214c34.795-0.038,69.589-0.01,104.384-0.023c3.203-0.001,4.619,1.561,4.48,4.764
		c-1.479-2.713-3.41-4.037-6.727-3.851c-5.808,0.327-11.86-0.909-17.437,0.274c-18.855,4.003-37.85,1.634-56.697,1.364
		c-8.609-0.124-17.438-1.259-26.202-1.646c-3.207-0.142-5.09,1.376-6.457,3.592c-1.211,1.963,0.443,3.458,1.686,5.092
		c1.703,2.239,2.393,4.739-0.744,6.833c-2.417,1.613-1.089,4.305-1.112,6.473c-0.034,3.066-0.938,6.365,0.645,9.177
		c1.23,2.187,3.291,3.091,6.216,3.039c13.935-0.247,27.875-0.111,41.814-0.111C603.657,110.304,603.686,110.627,603.715,110.951z"/>
	<path fill-rule="evenodd" clip-rule="evenodd" fill="#F8F9FA" d="M813.841,79.985c-0.286-2.687-1.703-4.018-4.482-3.997
		c-6.327,0.046-12.883-1.075-18.94,0.2c-18.874,3.972-37.863,1.593-56.72,1.344c-8.609-0.113-17.441-1.271-26.21-1.644
		c-3.22-0.137-5.087,1.437-6.419,3.656c-1.175,1.958,0.584,3.446,1.769,5.085c1.454,2.01,2.487,4.557-0.516,6.439
		c-2.179,1.366-1.396,3.5-1.456,5.391c-0.435,13.597-0.084,13.795,13.512,13.565c11.821-0.201,23.646-0.042,35.471-0.042
		c-0.237,1.565-1.402,0.978-2.299,0.979c-13.826,0.01-27.652,0.012-41.478,0.025c-4.253,0.004-6.586-2.154-6.146-6.341
		c0.549-5.235-1.922-10.795,1.845-15.784c0.631-0.834,0.225-2.9-0.884-4.53c-2.951-4.339-0.032-9.331,5.234-9.334
		c34.482-0.023,68.965-0.02,103.446-0.002C813.908,74.996,815.174,76.538,813.841,79.985z"/>
	<path fill-rule="evenodd" clip-rule="evenodd" fill="#FEFEFE" d="M1233.551,74.986c13.972,0,27.948,0.196,41.914-0.125
		c3.964-0.091,4.548,1.159,4.437,4.626c-0.085,2.652-1.189,5.561,0.829,8.127c0.313,0.398-0.052,1.62-0.471,2.193
		c-0.248,0.339-1.349,0.404-1.833,0.149c-1.086-0.571-0.736-1.678-0.471-2.593c0.172-0.592,0.76-1.084,0.859-1.672
		c1.458-8.586,0.508-9.707-8.114-9.707c-26.113,0-52.229,0.109-78.343-0.114c-4.058-0.035-5.194,1.247-4.554,4.862
		c0.391,2.202-0.876,4.554,0.798,6.687c0.502,0.639,0.66,1.989-0.474,2.538c-0.499,0.241-1.459,0.176-1.86-0.163
		c-0.828-0.701-0.834-1.861-0.121-2.591c1.149-1.174,0.599-2.507,0.62-3.752c0.143-8.465,0.118-8.466,8.359-8.466
		C1207.935,74.986,1220.742,74.986,1233.551,74.986z"/>
	<path fill-rule="evenodd" clip-rule="evenodd" fill="#FEFEFE" d="M1076.319,74.986c14.139,0,28.28,0.15,42.415-0.104
		c3.638-0.066,4.358,1.01,4.174,4.358c-0.155,2.828-0.914,5.853,0.845,8.608c0.338,0.53,0.397,1.754-0.604,2.112
		c-0.552,0.198-1.594,0.172-1.838-0.167c-0.414-0.578-0.62-1.541-0.456-2.234c0.167-0.707,0.899-1.16,1.021-2.104
		c1.163-8.974,0.754-9.471-8.404-9.471c-26.114,0-52.229,0.114-78.343-0.122c-3.959-0.036-4.919,1.177-4.312,4.621
		c0.414,2.351-0.941,4.906,0.945,7.138c0.313,0.37-0.055,1.616-0.475,2.187c-0.249,0.339-1.299,0.363-1.843,0.152
		c-0.972-0.376-0.928-1.618-0.585-2.133c1.938-2.913,0.889-6.107,0.845-9.114c-0.042-2.925,0.47-3.875,3.701-3.825
		C1047.708,75.112,1062.015,74.986,1076.319,74.986z"/>
	<path fill-rule="evenodd" clip-rule="evenodd" fill="#FEFEFE" d="M1076.364,110.981c-14.304,0-28.609-0.117-42.911,0.091
		c-3.137,0.045-3.868-0.738-3.751-3.774c0.103-2.661,1.056-5.543-0.841-8.118c-0.351-0.476-0.392-1.75,0.548-2.155
		c0.534-0.23,1.372-0.179,1.897,0.089c0.902,0.461,0.52,1.477,0.474,2.236c-0.024,0.407-0.712,0.743-0.827,1.182
		c-1.919,7.309-0.292,9.45,7.125,9.45c26.28,0,52.561-0.114,78.839,0.117c4.174,0.037,5.699-0.973,4.889-5.048
		c-0.369-1.859,0.803-3.931-0.926-5.662c-0.317-0.318,0.006-1.602,0.404-2.188c0.231-0.34,1.298-0.41,1.82-0.193
		c1.227,0.507,0.982,1.942,0.516,2.49c-0.878,1.03-0.788,2.058-0.831,3.199c-0.315,8.285-0.327,8.284-8.502,8.284
		C1101.646,110.981,1089.005,110.981,1076.364,110.981z"/>
	<path fill-rule="evenodd" clip-rule="evenodd" fill="#FEFEFE" d="M1233.335,110.981c-14.305,0-28.61-0.119-42.912,0.093
		c-3.158,0.046-3.854-0.773-3.737-3.786c0.104-2.663,1.018-5.54-0.844-8.118c-0.351-0.485-0.388-1.752,0.555-2.153
		c0.535-0.227,1.373-0.168,1.897,0.104c0.899,0.465,0.51,1.48,0.467,2.24c-0.023,0.406-0.718,0.741-0.833,1.18
		c-1.912,7.308-0.286,9.441,7.141,9.441c26.281,0,52.562-0.116,78.84,0.118c4.194,0.038,5.679-1.005,4.878-5.06
		c-0.367-1.858,0.807-3.932-0.934-5.657c-0.315-0.313,0.014-1.603,0.416-2.188c0.233-0.34,1.307-0.411,1.822-0.188
		c1.197,0.518,0.987,1.932,0.504,2.498c-0.883,1.031-0.781,2.063-0.824,3.202c-0.313,8.274-0.324,8.274-8.513,8.274
		C1258.617,110.981,1245.976,110.981,1233.335,110.981z"/>
	<path fill-rule="evenodd" clip-rule="evenodd" fill="#FAFBFC" d="M1372.638,74.986c5.148,0,10.301,0.113,15.443-0.055
		c2.151-0.07,2.733,0.458,2.779,2.681c0.068,3.352-1.009,6.838,0.858,10.091c0.314,0.548,0.425,1.749-0.492,2.188
		c-0.526,0.252-1.363,0.258-1.896,0.014c-0.928-0.425-0.836-1.648-0.518-2.175c1.86-3.084,0.497-6.422,0.962-9.594
		c0.258-1.762-0.416-2.209-2.175-2.192c-9.798,0.091-19.596,0.097-29.394-0.004c-1.924-0.02-2.79,0.438-2.435,2.427
		c0.539,3.007-1.057,6.191,0.876,9.134c0.393,0.597,0.655,1.981-0.634,2.478c-0.434,0.167-1.038,0.164-1.474-0.001
		c-1.291-0.486-1.057-2.003-0.639-2.438c1.106-1.153,0.842-2.403,0.871-3.682c0.204-8.872,0.204-8.872,8.896-8.872
		C1366.659,74.986,1369.648,74.986,1372.638,74.986z"/>
	<path fill-rule="evenodd" clip-rule="evenodd" fill="#FAFBFC" d="M1372.826,110.981c-4.981,0-9.974-0.193-14.94,0.077
		c-2.75,0.149-3.172-0.803-3.208-3.276c-0.042-2.846,1.064-5.865-0.855-8.603c-0.35-0.499-0.393-1.75,0.544-2.156
		c0.533-0.23,1.37-0.178,1.896,0.089c0.903,0.458,0.522,1.472,0.478,2.231c-0.023,0.406-0.708,0.742-0.823,1.181
		c-1.923,7.296-0.292,9.458,7.083,9.458c7.805,0,15.613-0.149,23.411,0.078c2.898,0.084,3.863-0.822,3.353-3.531
		c-0.442-2.345,0.996-4.904-0.924-7.135c-0.322-0.374,0.011-1.609,0.411-2.194c0.231-0.339,1.297-0.409,1.818-0.192
		c1.216,0.506,0.988,1.933,0.52,2.487c-0.869,1.029-0.79,2.052-0.834,3.193c-0.318,8.294-0.331,8.294-8.464,8.294
		C1379.136,110.981,1375.981,110.981,1372.826,110.981z"/>
	<path fill-rule="evenodd" clip-rule="evenodd" fill="#EEEFF2" d="M637.896,109.981c8.73,0,17.464-0.162,26.188,0.077
		c3.614,0.099,5.055-0.875,4.844-4.666c-0.281-5.075-0.069-10.177,0.957-15.276c0,6.126,0.024,12.253-0.018,18.38
		c-0.011,1.496-0.916,2.49-2.408,2.497c-9.854,0.047-19.709,0.024-29.563,0.024C637.896,110.672,637.896,110.327,637.896,109.981z"
		/>
	<path fill-rule="evenodd" clip-rule="evenodd" fill="#F8F9FA" d="M783.845,109.981c8.927,0,17.857-0.109,26.782,0.059
		c3.176,0.06,4.406-0.909,4.272-4.188c-0.217-5.282-0.059-10.579-0.059-15.869c2.212,4.417,0.735,9.114,0.931,13.667
		c0.356,8.307,0.459,7.34-7.366,7.332c-7.265-0.008-14.529,0.03-21.794-0.043C785.675,110.93,784.197,111.895,783.845,109.981z"/>
	<path fill-rule="evenodd" clip-rule="evenodd" fill="#F8F9FA" d="M929.826,109.981c8.928,0,17.858-0.109,26.782,0.059
		c3.176,0.06,4.406-0.909,4.272-4.188c-0.217-5.282-0.059-10.579-0.059-15.869c2.213,4.417,0.736,9.114,0.932,13.667
		c0.356,8.307,0.459,7.34-7.366,7.332c-7.265-0.008-14.529,0.03-21.794-0.043C931.657,110.93,930.179,111.895,929.826,109.981z"/>
	<path fill-rule="evenodd" clip-rule="evenodd" fill="#EEEFF2" d="M634.604,108.348c-9.753,0-19.506,0-29.259,0
		c9.703-2.297,19.594-0.754,29.366-1.522C634.676,107.333,634.64,107.841,634.604,108.348z"/>
	<path fill-rule="evenodd" clip-rule="evenodd" fill="#F8F9FA" d="M750.849,108.981c0.537-1.653,1.645-2.034,3.363-2.02
		c8.444,0.069,16.89-0.03,25.334-0.077c0.766-0.004,1.215,0.318,1.299,1.097c-7.309,0-14.616,0.013-21.925-0.006
		C756.182,107.968,753.437,107.827,750.849,108.981z"/>
	<path fill-rule="evenodd" clip-rule="evenodd" fill="#F8F9FA" d="M896.83,108.981c0.537-1.653,1.645-2.034,3.364-2.02
		c8.444,0.069,16.89-0.03,25.333-0.077c0.766-0.004,1.215,0.318,1.299,1.097c-7.309,0-14.616,0.013-21.925-0.006
		C902.163,107.968,899.419,107.827,896.83,108.981z"/>
	<path fill-rule="evenodd" clip-rule="evenodd" fill="#FEFEFE" d="M608.113,109.143c8.867,0,17.733,0,26.601,0
		c0.002,0.188,0.003,0.376,0.005,0.563c-8.9,0-17.8,0-26.699,0C608.051,109.519,608.082,109.331,608.113,109.143z"/>
	<path fill-rule="evenodd" clip-rule="evenodd" fill="#FEFEFE" d="M899.925,109.163c8.867,0,17.732,0,26.599,0
		c0.005,0.163,0.01,0.326,0.015,0.488c-8.802,0-17.603,0-26.403,0C900.064,109.489,899.995,109.326,899.925,109.163z"/>
	<path fill-rule="evenodd" clip-rule="evenodd" fill="#FEFEFE" d="M780.582,109.815c-8.867,0-17.733,0-26.601,0
		c-0.001-0.188-0.003-0.377-0.004-0.565c8.91,0,17.82,0,26.729,0C780.666,109.438,780.624,109.626,780.582,109.815z"/>
	<path fill-rule="evenodd" clip-rule="evenodd" fill="#17244A" d="M87.932,79.985c0.068,3.359-0.393,6.772,1,9.999
		c0,5.433-0.095,10.868,0.039,16.297c0.068,2.774-1.002,3.797-3.751,3.738c-5.759-0.124-11.523-0.038-17.285-0.038
		c-1-0.667-2-1.333-3-2c-0.17-0.752-0.672-1.036-1.407-1.03c-8.392,0.068-16.784,0.05-25.175-0.003
		c-1.67-0.01-2.875,0.343-3.415,2.033c-0.682-0.016-1.016,0.318-1,1c-13.972,0-27.943,0.01-41.915-0.005
		c-5.3-0.005-7.037-1.776-7.075-7.133c-0.019-2.661,0.021-5.323-0.014-7.984c-0.018-1.344-0.091-2.623,1.237-3.528
		c3.072-2.097,2.352-4.78,0.473-6.989c-1.314-1.545-2.432-3.198-1.471-4.773c1.125-1.845,2.571-3.733,5.464-3.645
		c6.481,0.197,13.194-1.019,19.417,0.264c18.927,3.902,37.94,0.851,56.882,1.649c5.245,0.221,10.357-2.606,15.896-1.94
		C85.647,76.235,87.654,76.829,87.932,79.985z"/>
	<path fill-rule="evenodd" clip-rule="evenodd" fill="#17244A" d="M-91.046,108.981c-0.682-0.016-1.015,0.318-1,1
		c-13.972,0-27.943,0.01-41.916-0.005c-5.299-0.005-7.037-1.776-7.075-7.133c-0.019-2.661,0.021-5.322-0.014-7.983
		c-0.018-1.344-0.091-2.623,1.237-3.528c3.072-2.097,2.352-4.78,0.474-6.989c-1.315-1.545-2.433-3.198-1.472-4.773
		c1.125-1.845,2.571-3.733,5.464-3.645c6.481,0.197,13.194-1.019,19.417,0.264c18.926,3.902,37.939,0.851,56.882,1.649
		c5.245,0.221,10.356-2.606,15.895-1.94c2.817,0.339,4.823,0.933,5.101,4.088c0.069,3.359-0.392,6.772,1,9.999
		c0,5.433-0.095,10.868,0.039,16.297c0.069,2.774-1.002,3.797-3.751,3.738c-5.76-0.124-11.524-0.038-17.286-0.038
		c-1-0.667-2-1.333-3-2c-0.17-0.752-0.672-1.036-1.407-1.03c-8.392,0.068-16.784,0.05-25.174-0.003
		C-89.302,106.938-90.507,107.292-91.046,108.981z"/>
	<path fill-rule="evenodd" clip-rule="evenodd" fill="#17244A" d="M-343.015,108.981c-0.682-0.016-1.016,0.318-1,1
		c-13.972,0-27.943,0.01-41.915-0.005c-5.299-0.005-7.037-1.776-7.075-7.133c-0.019-2.661,0.021-5.323-0.014-7.984
		c-0.018-1.344-0.091-2.623,1.236-3.528c3.073-2.097,2.352-4.78,0.474-6.989c-1.314-1.545-2.432-3.198-1.472-4.773
		c1.124-1.845,2.571-3.733,5.464-3.645c6.481,0.197,13.195-1.019,19.417,0.264c18.927,3.902,37.939,0.851,56.882,1.649
		c5.244,0.221,10.356-2.606,15.895-1.94c2.817,0.339,4.823,0.933,5.101,4.088c0.069,3.359-0.393,6.772,1,9.999
		c0,5.433-0.095,10.868,0.039,16.297c0.069,2.774-1.002,3.797-3.751,3.738c-5.759-0.124-11.523-0.038-17.285-0.038
		c-1-0.667-2-1.333-3-2c-0.17-0.752-0.672-1.036-1.407-1.03c-8.392,0.068-16.784,0.05-25.175-0.003
		C-341.27,106.938-342.476,107.292-343.015,108.981z"/>
	<path fill-rule="evenodd" clip-rule="evenodd" fill="#17244A" d="M-184.035,109.981c-1-0.667-2-1.333-3-2
		c-0.17-0.752-0.672-1.036-1.407-1.03c-8.391,0.068-16.783,0.05-25.174-0.003c-1.67-0.01-2.875,0.343-3.415,2.033
		c-0.682-0.016-1.016,0.318-1,1c-13.965,0-27.93,0.01-41.895-0.005c-5.325-0.005-7.055-1.756-7.096-7.111
		c-0.021-2.66,0.018-5.32-0.013-7.979c-0.015-1.337-0.118-2.63,1.218-3.533c3.095-2.091,2.359-4.778,0.501-7.002
		c-1.292-1.545-2.449-3.174-1.483-4.772c1.122-1.854,2.569-3.736,5.457-3.653c6.645,0.189,13.714-1.381,19.853,0.391
		c9.752,2.814,19.355,1.131,28.99,1.571c9.788,0.446,19.702,0.866,29.38-0.255c4.255-0.493,8.573-1.521,12.971-1.661
		c2.88-0.091,4.831,0.86,5.108,4.014c0.069,3.359-0.392,6.772,1,9.999c0,5.431-0.092,10.864,0.038,16.292
		c0.066,2.761-0.982,3.81-3.743,3.743C-173.17,109.89-178.604,109.981-184.035,109.981z"/>
	<path fill-rule="evenodd" clip-rule="evenodd" fill="#F8F9FA" d="M-38.053,79.985c0.111-2.455-1.754-4.213-3.469-3.925
		c-4.405,0.74-9.372-2.31-13.308,1.872c-0.388,0.412-1.595,0.054-2.421,0.054c-17.485,0-35.065,1.075-52.413-0.469
		c-8.252-0.735-16.512-0.89-24.743-1.607c-3.237-0.282-5.09,1.419-6.42,3.637c-1.173,1.957,0.589,3.445,1.772,5.084
		c1.449,2.01,2.486,4.557-0.519,6.438c-2.181,1.365-1.394,3.5-1.454,5.391c-0.434,13.589-0.091,13.793,13.513,13.563
		c11.82-0.201,23.646-0.042,35.469-0.042c-0.237,1.565-1.402,0.978-2.299,0.979c-13.826,0.01-27.651,0.012-41.477,0.025
		c-4.251,0.004-6.587-2.151-6.147-6.34c0.549-5.235-1.922-10.795,1.846-15.784c0.63-0.834,0.225-2.9-0.884-4.531
		c-2.951-4.339-0.033-9.331,5.232-9.335c31.15-0.024,62.3-0.021,93.45-0.002C-37.985,74.996-36.72,76.537-38.053,79.985z"/>
	<path fill-rule="evenodd" clip-rule="evenodd" fill="#F8F9FA" d="M-290.021,79.985c0.111-2.455-1.753-4.213-3.469-3.925
		c-4.405,0.74-9.371-2.31-13.307,1.872c-0.388,0.412-1.595,0.054-2.422,0.054c-17.484,0-35.065,1.075-52.412-0.469
		c-8.252-0.735-16.513-0.89-24.744-1.607c-3.236-0.282-5.09,1.419-6.419,3.637c-1.174,1.957,0.589,3.445,1.771,5.084
		c1.449,2.01,2.487,4.557-0.52,6.438c-2.18,1.365-1.393,3.5-1.453,5.391c-0.434,13.589-0.091,13.793,13.513,13.563
		c11.82-0.201,23.646-0.042,35.469-0.042c-0.237,1.565-1.401,0.978-2.298,0.979c-13.826,0.01-27.651,0.012-41.477,0.025
		c-4.251,0.004-6.587-2.151-6.147-6.34c0.549-5.235-1.921-10.795,1.846-15.784c0.629-0.834,0.225-2.9-0.884-4.531
		c-2.951-4.339-0.033-9.331,5.231-9.335c31.15-0.024,62.3-0.021,93.45-0.002C-289.954,74.996-288.688,76.537-290.021,79.985z"/>
	<path fill-rule="evenodd" clip-rule="evenodd" fill="#F8F9FA" d="M87.932,79.985c0.111-2.455-1.754-4.213-3.47-3.925
		c-4.404,0.74-9.371-2.31-13.307,1.872c-0.389,0.413-1.596,0.054-2.422,0.054c-17.485,0-35.066,1.075-52.413-0.469
		c-8.252-0.735-16.513-0.89-24.743-1.607c-3.237-0.282-5.09,1.419-6.42,3.637c-1.173,1.957,0.589,3.445,1.771,5.084
		c1.45,2.01,2.487,4.557-0.519,6.438c-2.181,1.365-1.394,3.5-1.454,5.391c-0.434,13.589-0.091,13.793,13.513,13.563
		c11.82-0.201,23.646-0.042,35.469-0.042c-0.237,1.565-1.401,0.978-2.298,0.979c-13.826,0.01-27.651,0.012-41.477,0.025
		c-4.251,0.004-6.587-2.151-6.147-6.34c0.549-5.235-1.921-10.795,1.846-15.784c0.63-0.834,0.225-2.901-0.884-4.531
		c-2.951-4.339-0.033-9.331,5.232-9.335c31.15-0.024,62.299-0.021,93.45-0.002C87.999,74.996,89.264,76.538,87.932,79.985z"/>
	<path fill-rule="evenodd" clip-rule="evenodd" fill="#F8F9FA" d="M-165.037,79.985c-0.249-3.09-2.13-4.176-4.979-3.998
		c-3.974,0.25-7.768,0.098-11.848,1.648c-4.075,1.548-9.206,0.149-13.857,0.383c-21.286,1.07-42.451-1.38-63.673-2.122
		c-3.191-0.111-5.515,0.728-7.179,3.214c-1.754,2.622,0.786,3.955,1.833,5.89c0.979,1.809,2.257,4.405-0.804,6.092
		c-2.251,1.241-1.408,3.477-1.467,5.367c-0.434,13.589-0.091,13.794,13.513,13.563c11.82-0.201,23.646-0.042,35.469-0.042
		c-0.237,1.565-1.402,0.978-2.298,0.979c-13.826,0.01-27.651,0.012-41.478,0.025c-4.251,0.004-6.586-2.151-6.147-6.34
		c0.549-5.235-1.922-10.795,1.845-15.784c0.63-0.834,0.225-2.9-0.883-4.53c-2.952-4.339-0.033-9.332,5.231-9.336
		c30.817-0.024,61.633-0.021,92.45-0.002C-164.97,74.996-163.704,76.537-165.037,79.985z"/>
	<path fill-rule="evenodd" clip-rule="evenodd" fill="#FDFDFE" d="M315.612,74.986c10.974,0,21.951,0.113,32.922-0.077
		c2.885-0.05,3.515,0.799,3.455,3.532c-0.07,3.185-0.858,6.506,0.865,9.599c0.311,0.559,0.354,1.695-0.793,1.945
		c-0.477,0.104-1.048,0.161-1.482-0.006c-1.024-0.393-0.726-1.37-0.651-2.129c0.042-0.425,0.683-0.808,0.69-1.217
		c0.07-3.417,0.928-7.194-0.272-10.114c-0.675-1.642-4.868-0.495-7.466-0.502c-19.787-0.057-39.574,0.061-59.36-0.124
		c-3.185-0.03-4.127,0.828-3.626,3.798c0.451,2.675-0.842,5.535,0.967,8.115c0.35,0.499,0.383,1.756-0.563,2.151
		c-0.536,0.224-1.373,0.158-1.896-0.117c-0.896-0.47-0.769-1.81-0.443-2.191c1.907-2.228,1.131-4.875,0.823-7.116
		c-0.696-5.06,1.359-5.832,5.907-5.666C294.983,75.244,305.303,74.986,315.612,74.986z"/>
	<path fill-rule="evenodd" clip-rule="evenodd" fill="#FDFDFE" d="M188.334,74.986c11.142,0,22.286,0.093,33.426-0.069
		c2.599-0.038,3.266,0.573,3.259,3.202c-0.009,3.18-1.006,6.519,0.849,9.608c0.319,0.533,0.411,1.753-0.515,2.181
		c-0.53,0.245-1.368,0.233-1.897-0.02c-0.918-0.439-0.815-1.675-0.495-2.186c1.83-2.921,0.508-6.102,0.973-9.109
		c0.354-2.296-0.637-2.665-2.735-2.657c-21.785,0.08-43.571,0.092-65.357-0.012c-2.399-0.012-3.3,0.526-2.942,2.966
		c0.442,3.01-0.792,6.182,0.977,9.104c0.318,0.527,0.379,1.697-0.743,1.99c-0.467,0.122-1.032,0.144-1.483-0.003
		c-1.068-0.351-0.92-1.408-0.682-2.065c0.43-1.185,1.096-2.173,1.02-3.61c-0.156-2.953-1.114-7.107,0.398-8.605
		c2.103-2.084,6.245-0.644,9.506-0.68C170.705,74.921,179.52,74.986,188.334,74.986z"/>
	<path fill-rule="evenodd" clip-rule="evenodd" fill="#FDFDFE" d="M315.379,110.981c-10.973,0-21.948-0.077-32.921,0.057
		c-2.574,0.032-3.807-0.258-3.657-3.328c0.14-2.831,0.908-5.852-0.847-8.606c-0.335-0.525-0.384-1.705,0.614-2.115
		c0.427-0.175,1-0.104,1.481-0.008c1.157,0.232,0.9,1.202,0.832,1.951c-0.039,0.431-0.486,0.81-0.611,1.251
		c-2.203,7.77-0.752,9.799,6.977,9.799c19.621,0,39.242-0.08,58.861,0.074c3.539,0.027,5.659-0.452,4.8-4.598
		c-0.417-2.013,0.839-4.253-0.961-6.143c-0.32-0.335-0.451-1.713,0.443-2.184c0.525-0.276,1.414-0.386,1.89-0.122
		c1.058,0.587,0.905,1.844,0.396,2.564c-0.623,0.882-0.799,1.674-0.801,2.701c-0.007,2.786,0.831,7.243-0.451,7.996
		c-2.361,1.386-6.001,0.679-9.108,0.695C333.338,111.01,324.359,110.981,315.379,110.981z"/>
	<path fill-rule="evenodd" clip-rule="evenodd" fill="#FDFDFE" d="M187.877,110.981c-10.807,0-21.616-0.082-32.421,0.059
		c-2.602,0.034-3.779-0.312-3.638-3.348c0.132-2.833,0.917-5.853-0.848-8.606c-0.333-0.52-0.392-1.704,0.631-2.098
		c0.434-0.167,1.004-0.109,1.481-0.007c1.149,0.247,0.881,1.219,0.815,1.968c-0.038,0.43-0.496,0.807-0.621,1.248
		c-2.194,7.765-0.743,9.785,7.003,9.785c19.62,0,39.239-0.083,58.858,0.076c3.565,0.029,5.629-0.497,4.787-4.613
		c-0.412-2.013,0.829-4.251-0.962-6.141c-0.322-0.34-0.448-1.715,0.45-2.181c0.524-0.272,1.361-0.333,1.896-0.107
		c0.944,0.398,0.813,1.509,0.557,2.17c-0.395,1.023-1.056,1.829-1.007,3.113c0.104,2.776,0.924,6.951-0.476,8.012
		c-1.922,1.458-5.629,0.642-8.572,0.655C206.5,111.007,197.188,110.981,187.877,110.981z"/>
	<path fill-rule="evenodd" clip-rule="evenodd" fill="#FAFBFC" d="M424.88,74.986c4.816,0,9.652,0.267,14.441-0.092
		c3.307-0.248,3.686,0.985,3.67,3.842c-0.017,3.005-1.086,6.192,0.849,9.099c0.342,0.515,0.386,1.753-0.589,2.127
		c-0.544,0.209-1.591,0.187-1.84-0.152c-0.419-0.57-0.614-1.521-0.475-2.226c0.142-0.712,0.904-1.155,1.029-2.097
		c1.181-8.928,0.709-9.501-8.35-9.501c-7.64,0-15.279,0.056-22.917-0.039c-1.938-0.024-3.258,0.115-2.816,2.546
		c0.543,2.995-1.042,6.198,0.958,9.104c0.31,0.449-0.048,1.625-0.463,2.201c-0.245,0.339-1.285,0.363-1.836,0.165
		c-0.995-0.359-0.94-1.587-0.604-2.112c1.762-2.75,0.993-5.769,0.848-8.595c-0.169-3.306,0.459-4.669,4.152-4.362
		C415.557,75.277,420.23,74.986,424.88,74.986z"/>
	<path fill-rule="evenodd" clip-rule="evenodd" fill="#FAFBFC" d="M424.865,110.981c-4.152,0-8.357-0.421-12.44,0.107
		c-5.062,0.656-6.199-1.345-5.631-5.89c0.224-1.789,0.87-3.872-0.715-5.671c-0.505-0.574-0.668-1.979,0.483-2.518
		c0.505-0.236,1.583-0.17,1.826,0.169c0.412,0.579,0.497,1.486,0.465,2.245c-0.018,0.399-0.748,0.73-0.86,1.168
		c-1.875,7.288-0.249,9.391,7.208,9.391c7.805,0,15.61-0.08,23.413,0.048c2.361,0.039,3.856-0.228,3.284-3.088
		c-0.498-2.498,1.004-5.226-0.962-7.618c-0.322-0.392-0.453-1.719,0.439-2.191c0.523-0.276,1.411-0.387,1.884-0.123
		c1.051,0.585,0.917,1.839,0.406,2.564c-0.62,0.88-0.8,1.67-0.801,2.697c-0.003,2.784,0.841,7.232-0.442,7.99
		c-2.351,1.39-5.987,0.643-9.089,0.708C430.512,111.027,427.688,110.981,424.865,110.981z"/>
	<path fill-rule="evenodd" clip-rule="evenodd" fill="#F8F9FA" d="M-310.019,109.981c5.775,0,11.553-0.095,17.324,0.041
		c2.751,0.065,3.785-0.944,3.714-3.705c-0.14-5.441-0.041-10.889-0.041-16.334c2.216,4.407,0.745,9.094,0.929,13.637
		c0.326,8.07,0.714,7.643-7.3,7.278C-300.264,110.677-305.281,112.313-310.019,109.981z"/>
	<path fill-rule="evenodd" clip-rule="evenodd" fill="#F8F9FA" d="M-58.05,109.981c5.775,0,11.553-0.095,17.325,0.041
		c2.751,0.065,3.785-0.944,3.714-3.705c-0.14-5.441-0.041-10.889-0.041-16.334c2.215,4.407,0.745,9.094,0.928,13.637
		c0.326,8.067,0.717,7.643-7.3,7.278C-48.296,110.677-53.313,112.313-58.05,109.981z"/>
	<path fill-rule="evenodd" clip-rule="evenodd" fill="#F8F9FA" d="M67.934,109.981c5.775,0,11.552-0.095,17.325,0.041
		c2.751,0.065,3.784-0.943,3.713-3.705c-0.141-5.441-0.041-10.889-0.041-16.334c2.218,4.406,0.745,9.094,0.929,13.636
		c0.325,8.068,0.717,7.643-7.3,7.279C77.688,110.677,72.671,112.313,67.934,109.981z"/>
	<path fill-rule="evenodd" clip-rule="evenodd" fill="#F8F9FA" d="M-184.035,109.981c5.444,0,10.89-0.098,16.331,0.041
		c2.755,0.07,3.778-0.953,3.708-3.708c-0.139-5.44-0.041-10.887-0.041-16.33c2.216,4.405,0.747,9.091,0.928,13.633
		c0.322,8.04,0.75,7.615-7.292,7.292C-174.943,110.727-179.629,112.197-184.035,109.981z"/>
	<path fill-rule="evenodd" clip-rule="evenodd" fill="#F8F9FA" d="M-343.015,108.981c0.538-1.653,1.645-2.034,3.364-2.02
		c8.444,0.069,16.889-0.03,25.333-0.077c0.765-0.004,1.215,0.318,1.298,1.097c-7.308,0-14.616,0.013-21.925-0.006
		C-337.681,107.968-340.426,107.827-343.015,108.981z"/>
	<path fill-rule="evenodd" clip-rule="evenodd" fill="#F8F9FA" d="M-217.03,108.981c0.538-1.653,1.644-2.034,3.364-2.02
		c8.444,0.069,16.889-0.03,25.333-0.077c0.766-0.004,1.215,0.318,1.299,1.097c-7.308,0-14.616,0.013-21.925-0.006
		C-211.697,107.968-214.442,107.827-217.03,108.981z"/>
	<path fill-rule="evenodd" clip-rule="evenodd" fill="#F8F9FA" d="M-91.046,108.981c0.538-1.653,1.645-2.034,3.365-2.02
		c8.443,0.069,16.889-0.03,25.333-0.077c0.766-0.004,1.215,0.318,1.299,1.097c-7.308,0-14.617,0.013-21.925-0.006
		C-85.712,107.968-88.458,107.827-91.046,108.981z"/>
	<path fill-rule="evenodd" clip-rule="evenodd" fill="#F8F9FA" d="M34.938,108.981c0.538-1.653,1.645-2.034,3.364-2.02
		c8.444,0.069,16.889-0.03,25.333-0.077c0.766-0.004,1.214,0.318,1.298,1.097c-7.309,0-14.616,0.013-21.925-0.006
		C40.272,107.968,37.526,107.827,34.938,108.981z"/>
	<path fill-rule="evenodd" clip-rule="evenodd" fill="#FEFEFE" d="M64.743,109.834c-8.867,0-17.734,0-26.601,0
		c-0.002-0.185-0.005-0.369-0.008-0.554c8.864,0,17.729,0,26.592,0C64.731,109.465,64.737,109.649,64.743,109.834z"/>
	<path fill-rule="evenodd" clip-rule="evenodd" fill="#FEFEFE" d="M-87.799,109.143c8.866,0,17.733,0,26.601,0
		c0.001,0.188,0.003,0.375,0.004,0.563c-8.9,0-17.8,0-26.699,0C-87.862,109.518-87.831,109.331-87.799,109.143z"/>
	<path fill-rule="evenodd" clip-rule="evenodd" fill="#FEFEFE" d="M-187.297,109.815c-8.867,0-17.734,0-26.601,0
		c-0.001-0.188-0.002-0.377-0.003-0.565c8.91,0,17.82,0,26.73,0C-187.213,109.438-187.255,109.626-187.297,109.815z"/>
	<path fill-rule="evenodd" clip-rule="evenodd" fill="#FEFEFE" d="M-313.223,109.834c-8.866,0-17.733,0-26.601,0
		c-0.002-0.186-0.005-0.373-0.007-0.559c8.873,0,17.746,0,26.618,0C-313.217,109.461-313.22,109.648-313.223,109.834z"/>
</g>
</svg>
