<?xml version="1.0" encoding="utf-8"?>
<!-- Generator: Adobe Illustrator 16.0.0, SVG Export Plug-In . SVG Version: 6.00 Build 0)  -->
<!DOCTYPE svg PUBLIC "-//W3C//DTD SVG 1.1//EN" "http://www.w3.org/Graphics/SVG/1.1/DTD/svg11.dtd">
<svg version="1.1" id="图层_1" xmlns="http://www.w3.org/2000/svg" xmlns:xlink="http://www.w3.org/1999/xlink" x="0px" y="0px"
	 width="1920px" height="1080px" viewBox="0 0 1920 1080" enable-background="new 0 0 1920 1080" xml:space="preserve">
<path fill-rule="evenodd" clip-rule="evenodd" fill="#0A122E" d="M0,1079.984C0,721.629-1.889,363.274-2,4.921
	C-2.001,0.982,1.628,0.998,5.796,1c229.407,0.133,458.813-0.882,688.22-0.882c5.289,10.579,10.561,21.166,15.888,31.726
	c0.744,1.474,1.308,3.051,2.53,4.251c5.88,13.748,13.227,26.764,19.685,40.216c0.368,0.767,0.921,1.66,1.746,1.616
	c4.75-0.257,10.12,2.159,13.798-2.98c2.377-3.32,5.583-3.921,9.539-3.918c135.544,0.098,271.09,0.092,406.635,0.023
	c3.574-0.002,6.43,0.249,7.865,4.161c0.891,2.427,2.938,3.155,5.613,2.971c3.143-0.215,6.109-1.501,9.324-1.213
	c1.307,0.117,1.918-1.12,2.469-2.178c4.975-9.585,9.891-19.2,15.297-28.556c0.576-0.997,0.721-2.192,0.912-3.324
	c5.525-6.204,8.25-14.076,12.217-21.187c3.957-7.099,8.113-14.142,11.414-21.607c230.639,0,462.275,0,692.914,0
	c0,358.07-1,716.142-1,1074.212c0,5.654,0,6.654-5.762,6.654C1277.101,1080.984,637.999,1079.984,0,1079.984z"/>
<path fill-rule="evenodd" clip-rule="evenodd" fill="none" d="M0,1079.984c638.018,0,1278.135,0.994,1916.153,1.117
	c4.684,0,5.842-1.867,5.84-6.734c-0.143-358.084-0.131-716.167-0.131-1074.249c0.309,0.218,0.043-0.506,0.012,0.5
	c-0.043,1.332-0.012,2.666-0.012,3.999c0,357.289-0.006,714.578,0.094,1071.867c0,3.748-0.844,4.592-4.594,4.592
	c-637.253-0.098-1274.505-0.092-1911.759-0.154C4.14,1080.922,1.109,1082.074,0,1079.984z"/>
<path fill-rule="evenodd" clip-rule="evenodd" fill="#284280" d="M1228.948,0.118c-7.383,13.879-14.764,27.759-22.17,41.625
	c-0.111,0.21-0.543,0.25-0.826,0.369c-0.045-0.971-1.25-1.391-1.15-2.43c4.625-6.906,8.268-14.373,12.141-21.692
	c3.877-7.332-2.199-16.863-10.523-16.865c-59.117-0.014-118.234-0.007-177.35-0.007c-104.078,0-208.157,0-312.235,0
	c-9.563,0-15.277,9.33-10.823,17.917c2.581,4.973,4.482,10.316,7.903,14.84c0.108,1.551-1.081,1.111-1.901,1.238
	c-6.454-10.551-11.197-21.981-16.911-32.911c-0.363-0.695-0.725-1.39-1.087-2.084C872.327,0.118,1050.638,0.118,1228.948,0.118z"/>
<path fill-rule="evenodd" clip-rule="evenodd" fill="#1C3361" d="M1900.864,156.099c0,1,0,2,0,3c-2.748,2.666-0.059,5.333,0,7.999
	c0,1.333,0,2.666,0,4c-2.748,2.666-0.059,5.333,0,7.999c0,1,0,2,0,3c-2.748,2.666-0.059,5.333,0,7.999c0,0.667,0,1.333,0,2
	c-2.748,2.666-0.059,5.333,0,7.999c0,0.667,0,1.333,0,2c-2.748,2.666-0.059,5.333,0,7.999c0,0.667,0,1.333,0,2
	c-2.748,2.667-0.059,5.333,0,7.999c0,1.667,0,3.333,0,5c-1.668,4.666-1.668,9.333,0,13.998c0,191.643,0,383.285,0,574.93
	c-2.135,1.283-0.932,3.336-0.934,4.947c-0.076,77.807-0.066,155.611-0.066,233.418c0,5.602,0,5.604-5.424,5.604
	c-622.113,0-1244.229-0.006-1866.344,0.104c-4.185,0.002-5.156-0.98-5.105-5.113c0.242-19.656,0.139-39.318,0.046-58.979
	c-0.007-1.426,1.426-4.016-1.937-4.004c0-215.973,0-431.945,0-647.919c2.929-1.792,2.929-12.207,0-13.998c0-2.333,0-4.666,0-7
	c0.787,0.067,0.82,1.114,1.219,1.221c1.474,0.396,0.724-0.869,0.746-1.355c0.102-2.187,0.226-4.429-1.965-5.865c0-1.333,0-2.666,0-4
	c0.787,0.067,0.82,1.114,1.219,1.221c1.474,0.396,0.724-0.869,0.746-1.356c0.102-2.186,0.226-4.429-1.965-5.864c0-1.333,0-2.667,0-4
	c0.787,0.067,0.82,1.113,1.219,1.221c1.474,0.396,0.724-0.869,0.746-1.355c0.102-2.187,0.226-4.429-1.965-5.865c0-1.333,0-2.666,0-4
	c0.787,0.067,0.82,1.114,1.219,1.221c1.474,0.396,0.724-0.869,0.746-1.356c0.102-2.186,0.226-4.429-1.965-5.864c0-1.667,0-3.333,0-5
	c0.787,0.067,0.82,1.114,1.219,1.221c1.474,0.396,0.724-0.869,0.746-1.356c0.102-2.186,0.226-4.429-1.965-5.864c0-2,0-4,0-6
	c0.787,0.067,0.82,1.114,1.219,1.221c1.474,0.396,0.724-0.869,0.746-1.356c0.102-2.186,0.226-4.429-1.965-5.864c0-1.667,0-3.333,0-5
	c0.787,0.067,0.82,1.114,1.219,1.221c1.474,0.396,0.724-0.868,0.746-1.355c0.102-2.187,0.225-4.429-1.965-5.865c0-2,0-4,0-5.999
	c0.787,0.067,0.82,1.114,1.219,1.221c1.474,0.396,0.724-0.869,0.746-1.356c0.102-2.186,0.225-4.429-1.965-5.865
	c0-2.333,0-4.666,0-6.999c1.943,0.233,2.024-0.955,2.019-2.44c-0.035-11.705-0.035-23.41,0-35.115
	c0.005-1.485-0.076-2.673-2.019-2.44c0-7.666,0-15.332,0-22.998c4.393,3.283,8.89,6.417,13.386,9.6
	c1.34-1.185-0.01-3.01,1.183-4.121c0.503-0.085,1.04-0.275,1.062-0.811c0.266-6.471,1.418-12.987-0.868-19.346
	c-0.546-0.247-0.864-0.665-0.955-1.257c-4.188-5.509-4.022-11.883-3.853-18.343c0.187-7.139,0.506-14.324-0.073-21.42
	c-0.757-9.283,1.336-17.066,9.015-22.833c3.643-1.617,5.936-4.708,8.342-7.681c1.806-0.395,3.149-2.161,5.227-1.75
	c12.449-0.126,24.893,0.127,37.328-0.126c4.894-1.48,7.955,2.447,11.815,4.025c0.515,0.032,1.023,0.104,1.527,0.219
	c0.564,2.503,3.016,1.44,4.429,2.345c4.679,0.763,9.351,0.986,14.01-0.129c1.864-0.367,3.908-0.398,4.802-2.577
	c1.822,0.502,2.886,0.007,2.748-2.082c0.429-1.076,0.785-2.067,0.573-3.344c-0.933-5.59-0.244-6.35,5.458-6.351
	c64.298-0.007,128.596-0.004,192.894-0.004c121.932,0,243.865,0.077,365.797-0.139c10.265-0.018,18.88,2.833,26.579,9.239
	c0.899,0.749,1.719,1.572,2.874,1.9c1.213,4.377,3.867,6.653,8.624,6.017c1.795-0.24,3.568-0.013,5.14,1.037
	c2.625,1.918,5.88,0.143,8.61,1.474c0.375,0.281,0.633,0.581,1.246,0.58c141.98-0.169,283.96-0.151,425.941-0.011
	c0.604,0.001,0.879-0.284,1.246-0.562c5.242-1.48,10.688-1.326,16.035-1.938c1.852-2.355,5-3.911,4.713-7.599
	c2.598-2.083,2.398-5.916,4.998-7.999c0.027,0.814-0.08,1.635,0.098,2.443c0.814,0.705,1.227-0.131,1.457-0.544
	c2.672-4.771,6.518-6.991,12.074-5.926c1.52,0.291,1.336-1.013,1.369-1.973c214.975,0,429.947,0,644.92,0
	c0.846,2.063,2.691,1.062,3.863,0.905c4.463-0.598,7.615,1.078,10.031,4.708c0.936,1.404,1.066,1.316,2.104-0.614
	c5.934,6.731,12.268,13.063,18.998,18.998c-1.617-0.018-3.143,0.703-1.281,2.052c4.365,3.166,4.785,7.412,4.266,12.107
	c-0.186,1.667,0.682,1.952,2.014,1.839c0,8.999,0,17.998,0,26.997c-2.748,2.666-0.059,5.333,0,7.999c0,1.333,0,2.666,0,4
	C1898.116,150.766,1900.806,153.432,1900.864,156.099z"/>
<path fill-rule="evenodd" clip-rule="evenodd" fill="#FFFFFF" d="M21.101,989.994c3.456-0.168,1.928,2.477,1.935,3.846
	c0.095,19.828,0.18,39.656-0.034,59.482c-0.042,3.852,0.935,4.754,4.767,4.754c558.184-0.094,1116.368-0.09,1674.554-0.09
	c64.316,0,128.633-0.045,192.949,0.105c4,0.008,4.68-1.158,4.676-4.84c-0.107-78.313-0.09-156.625-0.01-234.938
	c0.002-1.375-1.371-3.322,0.928-4.297c2.123,0.555,0.941,2.242,0.941,3.297c0.066,79.641,0.043,159.281,0.125,238.92
	c0.004,2.889-0.369,4.396-3.65,3.791c-1.289-0.238-2.66-0.039-3.992-0.039c-622.457,0-1244.915-0.008-1867.373,0.141
	c-5.191,0.002-5.989-1.445-5.931-6.156C21.25,1032.648,21.101,1011.32,21.101,989.994z"/>
<path fill-rule="evenodd" clip-rule="evenodd" fill="#1D3462" d="M725.012,85.107c-5.988-5.009-12.053-9.795-19.975-11.593
	c-1.666-0.378-3.227-0.366-4.803-0.366c-188.176-0.042-376.354-0.039-564.53-0.039c-6.066,0-6.164,0.023-4.62,6.406
	c0.45,1.859-1.454,2.909-0.997,4.592c-3.723-2.985-4.708-7.827-7.647-11.394c-0.829-1.005-2.011-2.127-2.352-3.604
	c195.642,0,391.284,0,586.927,0c-0.318,3.034,2.009,2.024,3.317,1.938c3.229-0.213,5.693,0.354,7.106,3.763
	c0.49,1.182,2.102,3.784,3.575,0.299c2.471,2.553,3.19,6.079,5,8.999C726.022,84.784,725.689,85.117,725.012,85.107z"/>
<path fill-rule="evenodd" clip-rule="evenodd" fill="#FFFFFF" d="M961.23,72.109c67.485,0,134.972,0,202.458,0
	c0.834,0,1.666-0.001,2.496-0.004c1.762-0.006,2.875,0.827,2.736,2.624c-0.129,1.683-1.146,2.589-2.98,2.377
	c-0.82-0.095-1.664,0.001-2.496,0.001c-134.973,0.001-269.945,0.001-404.917,0c-0.833,0-1.677-0.097-2.498-0.001
	c-1.834,0.215-2.851-0.693-2.985-2.373c-0.143-1.798,0.973-2.631,2.731-2.629c0.833,0.001,1.665,0.005,2.497,0.005
	C825.924,72.109,893.578,72.109,961.23,72.109z"/>
<path fill-rule="evenodd" clip-rule="evenodd" fill="#FFFFFF" d="M120.088,69.109c3.807,4.683,5.652,10.675,9.999,14.998
	c-0.439,2.016-2.031,0.574-3,1c-7.666,0-15.332,0-22.997,0c-0.333,0-0.667,0-1,0c-2.441-7.601-2.968-7.999-10.582-7.999
	c-13.463,0-26.928,0.067-40.39-0.06c-2.519-0.024-4.285,0.625-6.03,2.477c-4.443,4.717-9.107,9.225-13.708,13.791
	c-2.886,2.863-4.492,5.977-4.389,10.362c0.304,12.958,0.481,25.943-0.057,38.885c-0.251,6.038,1.716,9.584,7.164,11.536
	c0,6.999,0,13.999,0,20.998c0,1.284,0,2.567,0,4.118c-4.837-3.496-9.418-6.807-13.998-10.118c0-24.293,0.043-48.586-0.063-72.879
	c-0.011-2.516,0.576-4.281,2.414-6.051c6.35-6.117,12.588-12.356,18.706-18.706c1.771-1.837,3.534-2.426,6.051-2.415
	C72.167,69.153,96.127,69.109,120.088,69.109z"/>
<path fill-rule="evenodd" clip-rule="evenodd" fill="#1E3564" d="M746.01,92.106c-2.674-0.278-5.514,0.785-7.999-1
	c0-0.666,0-1.333,0-2c147.981,0,295.963,0,443.943,0c3.145,2.22,6.695,0.393,10,1c-0.076,0.763-0.525,1.205-1.262,1.074
	c-4.992-0.884-9.805,0.956-14.736,0.925C1032.642,92.106,889.325,92.106,746.01,92.106z"/>
<path fill-rule="evenodd" clip-rule="evenodd" fill="#2295A7" d="M1204.952,41.113c0.682-0.016,1.016,0.318,1,1
	c-4.961,11.386-11.557,21.927-17.105,33.012c-1.818,3.633-14.615,4.34-16.402,0.811c-2.254-4.445-5.439-4.943-9.969-4.938
	c-135.721,0.137-271.442,0.134-407.164-0.013c-3.582-0.004-5.683,1.498-7.424,3.839c-3.869,5.201-9.299,2.769-14.125,3.175
	c-0.7,0.059-1.285-1.085-1.758-2.043c-6.573-13.324-13.296-26.574-19.963-39.853c-0.133-0.268-0.024-0.657-0.028-0.99
	c0.667,0,1.333,0,2,0c2.898,8.296,8.285,15.339,11.739,23.364c1.774,4.122,3.978,8.052,5.979,12.072
	c2.522,5.066,10.511,6.817,14.408,2.77c3.189-3.313,6.646-4.289,11.102-4.284c98.754,0.096,197.514,0.652,296.261-0.228
	c36.586-0.326,73.178-0.099,109.76-0.749c4.537-0.081,8.178,0.591,9.986,5.431c0.859,2.296,3.027,3.125,5.377,2.488
	c1.941-0.527,3.836-1.08,5.859-0.86c1.918,0.208,2.527-1.167,3.26-2.507C1193.479,62.112,1198.88,51.429,1204.952,41.113z"/>
<path fill-rule="evenodd" clip-rule="evenodd" fill="#FEFEFF" d="M21.101,192.094c1.837-0.227,2.044,0.69,2.032,2.329
	c-0.086,11.779-0.086,23.559,0,35.337c0.012,1.638-0.195,2.555-2.032,2.329C21.101,218.757,21.101,205.426,21.101,192.094z"/>
<path fill-rule="evenodd" clip-rule="evenodd" fill="#F5ECEB" d="M1876.868,74.109c-0.057,0.926-0.869,2.601-1.201,1.829
	c-2.963-6.9-9.27-5.486-14.662-6.372c-0.068-0.011-0.092-0.298-0.135-0.457C1867.267,66.351,1871.655,67.722,1876.868,74.109z"/>
<path fill-rule="evenodd" clip-rule="evenodd" fill="#F4ECEB" d="M1215.95,69.109c-0.088,0.763,0.09,2.194-0.826,1.965
	c-6.701-1.681-10.496,2.209-14.172,8.341c0-2.374,0-3.34,0-4.307C1204.188,68.7,1209.847,68.346,1215.95,69.109z"/>
<path fill-rule="evenodd" clip-rule="evenodd" fill="#F3EBEB" d="M1900.864,109.104c-2.447,0.336-2.152-1.367-1.982-2.803
	c0.508-4.296-0.113-8.03-4.008-10.783c-1.889-1.336-1.463-2.47,0.992-2.412C1901.372,97.239,1901.343,103.102,1900.864,109.104z"/>
<path fill-rule="evenodd" clip-rule="evenodd" fill="#F4ECEB" d="M721.013,75.109c-0.626,0.799-1.146,3.263-2.349,0.986
	c-2.446-4.627-6.083-5.639-10.816-5.008c-0.977,0.13-0.756-1.21-0.833-1.978C713.016,67.995,717.823,69.665,721.013,75.109z"/>
<path fill-rule="evenodd" clip-rule="evenodd" fill="#F1E9E8" d="M1191.954,90.107c-3.309-0.569-6.846,1.133-10-1
	c0.045-0.159,0.088-0.457,0.135-0.457c5.346-0.045,10.389-0.826,13.865-5.543C1196.495,86.512,1193.378,87.826,1191.954,90.107z"/>
<path fill-rule="evenodd" clip-rule="evenodd" fill="#EDE5E5" d="M738.011,89.107c0,0.667,0,1.333,0,2
	c-2.002-1.468-4.317-1.04-6.526-0.971c-3.614,0.111-5.774-1.473-6.473-5.028c0.683,0.016,1.016-0.318,1-1
	C728.903,88.433,733.946,87.597,738.011,89.107z"/>
<path fill-rule="evenodd" clip-rule="evenodd" fill="#F7F8F9" d="M1900.864,239.088c-1.676-4.666-1.676-9.332,0-13.998
	C1902.542,229.756,1902.542,234.422,1900.864,239.088z"/>
<path fill-rule="evenodd" clip-rule="evenodd" fill="#FBFBFD" d="M21.101,328.077c0.752,0.102,1.955-0.234,1.986,0.848
	c0.119,4.098,0.119,8.204,0,12.302c-0.031,1.083-1.233,0.746-1.986,0.848C21.101,337.409,21.101,332.743,21.101,328.077z"/>
<path fill-rule="evenodd" clip-rule="evenodd" fill="#D7D8DF" d="M1900.864,156.099c-0.168-2.667-2.529-5.333,0-7.999
	C1901.034,150.766,1903.396,153.432,1900.864,156.099z"/>
<path fill-rule="evenodd" clip-rule="evenodd" fill="#D7D8DF" d="M1900.864,167.097c-0.168-2.666-2.529-5.333,0-7.999
	C1901.034,161.764,1903.396,164.431,1900.864,167.097z"/>
<path fill-rule="evenodd" clip-rule="evenodd" fill="#D7D8DF" d="M1900.864,179.096c-0.168-2.666-2.529-5.333,0-7.999
	C1901.034,173.763,1903.396,176.43,1900.864,179.096z"/>
<path fill-rule="evenodd" clip-rule="evenodd" fill="#D7D8DF" d="M1900.864,190.094c-0.168-2.666-2.529-5.333,0-7.999
	C1901.034,184.761,1903.396,187.428,1900.864,190.094z"/>
<path fill-rule="evenodd" clip-rule="evenodd" fill="#D7D8DF" d="M1900.864,200.093c-0.168-2.666-2.529-5.333,0-7.999
	C1901.034,194.76,1903.396,197.427,1900.864,200.093z"/>
<path fill-rule="evenodd" clip-rule="evenodd" fill="#D7D8DF" d="M1900.864,210.092c-0.168-2.666-2.529-5.333,0-7.999
	C1901.034,204.759,1903.396,207.426,1900.864,210.092z"/>
<path fill-rule="evenodd" clip-rule="evenodd" fill="#D7D8DF" d="M1900.864,220.09c-0.168-2.666-2.529-5.333,0-7.999
	C1901.034,214.758,1903.396,217.424,1900.864,220.09z"/>
<path fill-rule="evenodd" clip-rule="evenodd" fill="#D7D8DF" d="M1900.864,144.1c-0.168-2.666-2.529-5.333,0-7.999
	C1901.034,138.767,1903.396,141.434,1900.864,144.1z"/>
<path fill-rule="evenodd" clip-rule="evenodd" fill="#CACDD9" d="M21.101,239.088c2.788,2.125,1.805,5.049,2.027,7.923
	c-1.394-0.292-0.59-2.14-2.027-1.924C21.101,243.087,21.101,241.088,21.101,239.088z"/>
<path fill-rule="evenodd" clip-rule="evenodd" fill="#CBCED9" d="M21.101,251.086c2.788,2.125,1.805,5.049,2.027,7.923
	c-1.394-0.292-0.59-2.14-2.027-1.924C21.101,255.086,21.101,253.086,21.101,251.086z"/>
<path fill-rule="evenodd" clip-rule="evenodd" fill="#CBCDD9" d="M21.101,262.085c2.788,2.124,1.805,5.049,2.027,7.923
	c-1.394-0.292-0.59-2.141-2.027-1.924C21.101,266.085,21.101,264.085,21.101,262.085z"/>
<path fill-rule="evenodd" clip-rule="evenodd" fill="#CBCDD9" d="M21.101,274.084c2.788,2.124,1.805,5.049,2.027,7.923
	c-1.394-0.292-0.59-2.14-2.027-1.924C21.101,278.083,21.101,276.083,21.101,274.084z"/>
<path fill-rule="evenodd" clip-rule="evenodd" fill="#C3C5D3" d="M21.101,295.081c2.788,2.125,1.805,5.049,2.027,7.923
	c-1.394-0.292-0.59-2.14-2.027-1.924C21.101,299.081,21.101,297.081,21.101,295.081z"/>
<path fill-rule="evenodd" clip-rule="evenodd" fill="#C3C5D3" d="M21.101,305.08c2.788,2.124,1.805,5.049,2.027,7.923
	c-1.394-0.292-0.59-2.14-2.027-1.924C21.101,309.08,21.101,307.08,21.101,305.08z"/>
<path fill-rule="evenodd" clip-rule="evenodd" fill="#CBCDD9" d="M21.101,315.079c2.788,2.124,1.805,5.049,2.027,7.923
	c-1.394-0.292-0.59-2.141-2.027-1.924C21.101,319.078,21.101,317.078,21.101,315.079z"/>
<path fill-rule="evenodd" clip-rule="evenodd" fill="#C2C5D3" d="M21.101,285.083c2.788,2.124,1.805,5.049,2.027,7.923
	c-1.394-0.292-0.59-2.141-2.027-1.924C21.101,289.082,21.101,287.082,21.101,285.083z"/>
<path fill-rule="evenodd" clip-rule="evenodd" fill="#1D3367" d="M1204.952,41.113c-5.838,10.681-11.709,21.345-17.477,32.063
	c-0.766,1.42-1.414,2.153-3.207,2.019c-1.52-0.113-3.033-0.157-4.729,0.578c-2.686,1.164-5.432,0.494-6.58-2.909
	c-1.359-4.024-4.449-4.812-8.334-4.801c-31.322,0.083-62.654-0.463-93.965,0.14c-105.326,2.03-210.657,0.293-315.982,0.854
	c-2.813,0.015-5.326,0.582-6.827,2.814c-3.341,4.97-8.368,2.684-12.703,3.283c-0.586,0.08-1.61-0.73-1.935-1.377
	c-6.444-12.866-12.815-25.768-19.201-38.662c-2.487-4.986-4.957-9.98-7.465-14.955c-3.567-7.075-2.273-12.677,3.735-17.936
	c1.702-1.489,3.364-1.08,5.08-1.08c119.63-0.029,239.262-0.026,358.89-0.026c44.154,0,88.309,0.156,132.459-0.142
	c8.051-0.054,13.688,11.286,10.42,16.646c-4.271,7.008-7.924,14.396-11.805,21.64C1205.044,39.793,1205.071,40.492,1204.952,41.113z
	"/>
<path fill-rule="evenodd" clip-rule="evenodd" fill="#172449" d="M47.097,87.107c5.512-4.317,12.17-4.648,18.67-4.914
	c8.484-0.347,16.994-0.026,25.492-0.125c2.173-0.025,4.307,0.193,5.823,1.639c4.631,4.416,10.076,5.917,16.321,5.439
	c2.982-0.228,6.003-0.175,8.994-0.009c5.147,0.286,8.799-1.736,10.703-6.571c1.113-2.827,2.99-3.537,6.021-3.536
	c186.967,0.087,373.934,0.081,560.901,0.066c6.587,0,12.069,3.071,16.491,7.231c9.914,9.327,21.573,12.813,34.831,12.809
	c140.976-0.05,281.951,0.003,422.926-0.095c11.23-0.008,21.355-3.721,29.779-11.504c6.059-5.599,12.957-8.532,21.543-8.527
	c209.629,0.126,419.258,0.093,628.887,0.111c12.965,0.001,21.684,7.674,29.406,16.843c5.607,6.655,7.051,14.549,7.049,23.118
	c-0.078,305.113-0.066,610.225-0.064,915.338c0,9.414-5.076,14.566-14.381,14.566c-610.391,0-1220.784,0.002-1831.175-0.023
	c-9.108,0-14.188-4.914-14.189-14.211c-0.029-282.115-0.02-564.233-0.066-846.35c0-3.018,0.52-5.015,3.555-6.635
	c3.012-1.608,4.841-4.591,4.542-8.519c-0.265-3.479-0.185-7-0.025-10.492c0.243-5.281-0.057-10.271-3.986-14.467
	c-1.112-1.188-1.105-3.18-1.087-4.995c0.094-9.664,0.104-19.33,0.02-28.995c-0.045-5.177-0.109-10.322,2.024-15.193
	c3.122,0,6.253-0.152,9.362,0.051c2.244,0.146,2.973-0.683,2.635-2.759C47.594,93.318,49.165,90.017,47.097,87.107z"/>
<path fill-rule="evenodd" clip-rule="evenodd" fill="#1D4571" d="M35.099,154.099c-5.214-1.903-7.438-5.102-7.177-11.148
	c0.574-13.271,0.289-26.585,0.103-39.879c-0.049-3.492,0.963-6.239,3.278-8.666c0.344-0.361,0.702-0.708,1.056-1.059
	c5.431-5.377,10.003-12.767,16.538-15.553c6.321-2.695,14.662-0.664,22.116-0.682c7.313-0.018,14.625-0.004,21.938-0.004
	c7.176,0,7.836,0.522,10.14,7.999c-3.608-1.794-7.037-3.984-10.999-5c-11.869,0-23.738-0.044-35.606,0.057
	c-1.445,0.012-3.313-1.09-4.388,0.943c-1.333,0.667-2.667,1.333-4,2c-3.516,1.15-5.849,3.483-6.999,7
	c-7.178,4.927-10.805,11.33-10.134,20.437c0.631,8.562,0.466,17.223,0.027,25.808C30.662,142.792,31.786,148.631,35.099,154.099z"/>
<path fill-rule="evenodd" clip-rule="evenodd" fill="#1D3462" d="M746.01,92.106c143.315,0,286.632,0,429.946,0
	c-0.977,2.296-2.922,0.928-4.299,0.928c-137.785,0.077-275.568,0.087-413.352-0.004C754.229,93.027,749.953,94.358,746.01,92.106z"
	/>
<path fill-rule="evenodd" clip-rule="evenodd" fill="#F9FAFB" d="M47.097,87.107c2.389,3.559,0.462,7.503,0.913,11.247
	c0.143,1.19-1.579,0.712-2.464,0.729c-3.148,0.06-6.298,0.023-9.447,0.023c-0.284-0.263-0.567-0.525-0.851-0.787
	C39.197,94.581,43.147,90.844,47.097,87.107z"/>
<path fill-rule="evenodd" clip-rule="evenodd" fill="#1D4571" d="M104.09,85.107c7.666,0,15.332,0,22.997,0
	c-0.574,2.183-2.277,2.112-4,2c-4.999,0-9.999,0-14.998,0C106.367,87.219,104.665,87.291,104.09,85.107z"/>
<path fill-rule="evenodd" clip-rule="evenodd" fill="#1D3462" d="M52.097,81.108c0.543-2.117,2.22-0.932,3.271-0.94
	c12.241-0.096,24.483-0.061,36.724-0.06c-0.543,2.118-2.22,0.932-3.271,0.94C76.58,81.144,64.338,81.108,52.097,81.108z"/>
<path fill-rule="evenodd" clip-rule="evenodd" fill="#1D4571" d="M35.099,175.096c0-6.999,0-13.999,0-20.998
	c2.358,1.355,1.999,3.646,1.999,5.811c0.002,3.786-0.069,7.574,0.027,11.357C37.169,173.01,37.113,174.523,35.099,175.096z"/>
<path fill-rule="evenodd" clip-rule="evenodd" fill="#1D3462" d="M108.089,87.107c5,0,9.999,0,14.998,0
	C118.088,88.744,113.089,88.744,108.089,87.107z"/>
<path fill-rule="evenodd" clip-rule="evenodd" fill="#1D3462" d="M41.098,90.107c1.149-3.517,3.482-5.85,6.999-7
	C46.177,85.854,43.844,88.187,41.098,90.107z"/>
</svg>
