<?xml version="1.0" encoding="utf-8"?>
<!-- Generator: Adobe Illustrator 16.0.0, SVG Export Plug-In . SVG Version: 6.00 Build 0)  -->
<!DOCTYPE svg PUBLIC "-//W3C//DTD SVG 1.1//EN" "http://www.w3.org/Graphics/SVG/1.1/DTD/svg11.dtd">
<svg version="1.1" id="图层_1" xmlns="http://www.w3.org/2000/svg" xmlns:xlink="http://www.w3.org/1999/xlink" x="0px" y="0px"
	 width="1920px" height="1080px" viewBox="0 0 1920 1080" enable-background="new 0 0 1920 1080" xml:space="preserve">
<path fill-rule="evenodd" clip-rule="evenodd" fill="#0A122E" d="M1232.994,0.094c229.138,0,458.275,0.011,687.414-0.093
	c0,0-0.508,723.044-0.408,1080c0,0-1283.079-0.045-1919.999,0.052L0,0c229.471,0.104,468.589,0.094,698.061,0.094
	c2.815,8.118,7.977,15.056,11.491,22.841c2.019,4.471,3.89,9.1,6.916,13.082c5.068,12.109,11.538,23.526,17.237,35.318
	c1.656,3.425,2.481,7.551,8.176,6.91c4.029-0.454,7.974-0.021,10.542-4.008c1.973-3.062,5.007-3.202,8.33-3.2
	c135.815,0.057,271.631,0.06,407.446-0.015c3.452-0.002,6.122,0.279,7.438,4.033c0.962,2.742,3.289,3.248,6.046,3.088
	c2.975-0.173,5.753-1.582,8.825-1.128c1.305,0.192,2.012-0.951,2.547-2.041c6.804-13.859,14.891-27.053,21.308-41.102
	c4.032-4.636,5.769-10.594,8.979-15.736C1226.945,12.361,1229.586,6.01,1232.994,0.094z"/>
<path fill-rule="evenodd" clip-rule="evenodd" fill="#284078" d="M1228.847,2c-6,10.999-11.999,21.997-17.998,32.996
	c-0.84-0.107-1.987,0.245-1.881-1.269c3.729-5.671,7.034-11.588,9.837-17.753c2.372-5.22-2.66-12.76-8.44-12.969
	c-0.999-0.036-2-0.005-3-0.005c-164.302,0-328.603,0-492.905,0c-9.128,0-13.825,7.554-9.661,15.707
	c2.716,5.318,4.947,10.893,8.284,15.885c0.095,1.037-1.173,1.411-1.172,2.404C705.443,25.572,699.513,13.871,693.913,2
	C872.225,2,1050.535,2,1228.847,2z"/>
<path fill-rule="evenodd" clip-rule="evenodd" fill="#1E3463" d="M981.877,89.989c66.659,0,133.316,0,199.976,0
	c0.002,0.497-0.138,1.251,0.185,1.436c5.726,3.273,12.86-0.076,13.813-6.436c1.968-3.355,3.898-6.839,5.423-10.303
	c1.934-4.395,4.666-4.75,8.621-4.748c216.957,0.06,433.916,0.053,650.873,0.053c-0.332,2.533,1.498,2.109,2.882,1.974
	c4.738-0.464,8.81,0.278,11.175,5.103c0.547,1.114,0.832,0.974,1.941-1.077c6.745,5.919,13.078,12.252,18.997,18.998
	c-1.616-0.018-3.141,0.703-1.281,2.052c4.366,3.166,4.787,7.412,4.266,12.107c-0.185,1.667,0.683,1.952,2.016,1.839
	c0,315.272-0.013,630.544,0.128,945.815c0.002,4.576-1.326,5.155-5.393,5.154c-306.773-0.097-613.547-0.087-920.32-0.16
	c-1.376-0.001-3.323,1.372-4.299-0.929c3.644-0.244,7.363,0.506,11.129-0.438c-0.65-2.376-2.25-1.494-3.336-1.523
	c-5.673-0.158-5.63-0.117-5.824-5.607c-0.05-1.392,0.973-3.613-1.969-3.43c0-316.294,0-632.588,0-948.882
	c3.776-0.354,1.96-3.341,1.854-4.873c-0.242-3.478,0.793-4.513,4.271-4.271C978.536,91.95,981.523,93.766,981.877,89.989z"/>
<path fill-rule="evenodd" clip-rule="evenodd" fill="#1B3260" d="M20.998,306.962c0-1.333,0-2.667,0-4
	c0.787,0.067,0.82,1.113,1.219,1.221c1.474,0.396,0.724-0.868,0.746-1.355c0.102-2.187,0.226-4.429-1.965-5.865c0-1.333,0-2.666,0-4
	c0.787,0.067,0.82,1.114,1.219,1.221c1.474,0.396,0.724-0.869,0.746-1.356c0.102-2.186,0.226-4.429-1.965-5.864c0-1.667,0-3.333,0-5
	c0.787,0.067,0.82,1.114,1.219,1.221c1.474,0.396,0.724-0.869,0.746-1.356c0.102-2.186,0.226-4.429-1.965-5.864c0-2,0-4,0-6
	c0.787,0.067,0.82,1.114,1.219,1.221c1.474,0.396,0.724-0.869,0.746-1.356c0.102-2.186,0.226-4.429-1.965-5.864c0-1.667,0-3.333,0-5
	c0.787,0.067,0.82,1.114,1.219,1.221c1.474,0.396,0.724-0.868,0.746-1.355c0.102-2.187,0.225-4.429-1.965-5.865c0-2,0-4,0-5.999
	c0.787,0.067,0.82,1.114,1.219,1.221c1.474,0.396,0.724-0.869,0.746-1.356c0.102-2.186,0.225-4.429-1.965-5.864c0-2.333,0-4.666,0-7
	c1.943,0.233,2.024-0.955,2.019-2.44c-0.035-11.705-0.035-23.41,0-35.115c0.005-1.485-0.076-2.673-2.019-2.44
	c0-7.333,0-14.665,0-21.998c5.277,1.608,8.746,6.134,13.594,8.515c0.888-0.903,0.047-2.313,1.042-3.097
	c1.962-0.74,1.304-2.454,1.334-3.817c0.082-3.654-0.157-7.323,0.076-10.965c0.271-4.245-0.953-7.831-3.807-10.909
	c-1.81-1.953-2.294-4.256-2.275-6.875c0.08-11.3-0.063-22.603,0.072-33.902c0.077-6.405,1.642-12.251,7.013-16.583
	c2.701-2.179,4.95-4.913,7.452-7.345c2.302-2.238,4.961-3.805,8.271-4.003c13.86-0.219,27.723,0.406,41.568-0.317
	c4.291,1.678,6.853,6.516,12.023,6.604c5.644,1.34,11.315,0.807,16.987,0.264c1.341-0.588,2.327-1.565,3.081-2.801
	c1.934,0.602,2.807-0.146,2.711-2.132c0.738-1.376,0.993-2.76,0.505-4.318c-1.231-3.932,1.071-5.068,4.371-5.295
	c0.995-0.068,1.998-0.011,2.998-0.011c186.856,0,373.712-0.001,560.568,0.002c8.524,0,15.687,3.274,21.898,8.996
	c1.442,1.328,2.739,3.767,5.431,2c1.759,5.089,5.747,5.084,10.272,5.076c61.567-0.114,123.135-0.077,184.703-0.077
	c0.695,1.859,2.278,0.941,3.422,0.955c7.13,0.089,14.265,0.159,21.392-0.015c2.58-0.063,3.297,0.606,3.255,3.256
	c-0.172,10.777-0.1,21.558-0.037,32.337c0.008,1.389-0.995,3.632,1.965,3.461c0,3,0,5.999,0,8.999
	c-0.787-0.067-0.82-1.113-1.219-1.221c-1.474-0.396-0.724,0.868-0.746,1.355c-0.102,2.187-0.226,4.429,1.965,5.865c0,2,0,4,0,5.999
	c-0.787-0.067-0.82-1.113-1.219-1.221c-1.474-0.396-0.724,0.868-0.746,1.355c-0.102,2.187-0.226,4.429,1.965,5.865
	c0,1.666,0,3.333,0,4.999c-0.787-0.067-0.82-1.113-1.219-1.221c-1.474-0.396-0.724,0.869-0.746,1.355
	c-0.102,2.187-0.226,4.429,1.965,5.865c0,2,0,4,0,5.999c-0.787-0.067-0.82-1.113-1.219-1.221c-1.474-0.396-0.724,0.869-0.746,1.355
	c-0.102,2.187-0.226,4.429,1.965,5.865c0,1.666,0,3.333,0,5c-0.787-0.067-0.82-1.114-1.219-1.221
	c-1.474-0.396-0.724,0.869-0.746,1.356c-0.102,2.186-0.226,4.429,1.965,5.864c0,1.333,0,2.666,0,4
	c-0.787-0.067-0.82-1.114-1.219-1.221c-1.474-0.396-0.724,0.869-0.746,1.356c-0.102,2.186-0.226,4.429,1.965,5.865
	c0,1.333,0,2.666,0,4c-0.787-0.067-0.82-1.114-1.219-1.221c-1.474-0.396-0.724,0.869-0.746,1.355
	c-0.102,2.187-0.226,4.429,1.965,5.865c0,1.333,0,2.666,0,4c-0.787-0.067-0.82-1.114-1.219-1.221
	c-1.474-0.396-0.724,0.869-0.746,1.356c-0.102,2.186-0.226,4.429,1.965,5.864c0,1.667,0,3.333,0,5
	c-2.929,1.792-2.929,12.207,0,13.999c0,271.867,0.003,543.734-0.071,815.6c0,1.376,1.371,3.322-0.928,4.297
	c0-46.63,0-93.26,0-140.976c-2.762,2.436-1.956,4.366-1.958,6.003c-0.054,42.656-0.11,85.313,0.063,127.969
	c0.017,4.201-1.061,5.104-5.174,5.102c-304.927-0.107-609.855-0.107-914.783,0.004c-4.13,0.002-5.294-0.883-5.145-5.086
	c0.349-9.819,0.143-19.658,0.076-29.488c-0.009-1.403,1.002-3.654-1.964-3.522c0-225.639,0-451.276,0-676.915
	c2.929-1.792,2.929-12.207,0-13.998c0-2.333,0-4.666,0-6.999c0.787,0.067,0.82,1.113,1.219,1.221
	c1.474,0.396,0.724-0.869,0.746-1.355c0.102-2.187,0.226-4.429-1.965-5.865c0-1.333,0-2.666,0-4c0.787,0.067,0.82,1.114,1.219,1.221
	c1.474,0.396,0.724-0.869,0.746-1.356C23.065,310.64,23.188,308.397,20.998,306.962z"/>
<path fill-rule="evenodd" clip-rule="evenodd" fill="#1D3462" d="M725.909,85.989c-1.816,0.492-3.159,0.328-4.473-1.01
	c-7.563-7.701-16.767-10.102-27.418-10.093c-185.953,0.146-371.907,0.105-557.861,0.105c-5.415,0-6.142,0.798-5.115,5.897
	c0.383,1.903-1.216,3.3-1.058,5.101c-3.723-2.985-4.708-7.827-7.647-11.394c-0.829-1.005-2.011-2.127-2.352-3.604
	c196.627,0,393.253,0.042,589.88-0.192c6.325-0.008,9.711,2.039,12.072,7.308C723.14,80.789,724.578,83.365,725.909,85.989z"/>
<path fill-rule="evenodd" clip-rule="evenodd" fill="#FFFFFF" d="M20.998,1020.872c3.021-0.293,1.961,1.973,1.969,3.346
	c0.058,10.496,0.129,20.993-0.039,31.486c-0.042,2.625,0.626,3.626,3.24,3.185c0.81-0.137,1.663-0.021,2.496-0.021
	c304.719,0,609.437-0.014,914.156,0.129c4.582,0.002,5.169-1.333,5.155-5.395c-0.15-42.483-0.093-84.968-0.093-127.451
	c0-0.166-0.045-0.349,0.007-0.497c0.538-1.521-1.214-4.356,1.135-4.43c1.834-0.058,0.796,2.742,0.802,4.195
	c0.083,20.991,0.057,41.983,0.057,62.976c0,24.157,0,48.315,0,72.473c-307.856,0-615.712-0.013-923.568,0.118
	c-4.663,0.002-5.542-1.313-5.423-5.632C21.207,1043.867,20.998,1032.367,20.998,1020.872z"/>
<path fill-rule="evenodd" clip-rule="evenodd" fill="#FFFFFF" d="M960.627,78.99c-67.486,0-134.973,0-202.458,0
	c-0.833,0-1.665,0.003-2.497,0.005c-1.759,0.002-2.874-0.831-2.73-2.629c0.134-1.68,1.151-2.588,2.985-2.373
	c0.821,0.096,1.664-0.001,2.497-0.001c134.973-0.001,269.944-0.001,404.917,0c0.834,0,1.677,0.096,2.498,0.001
	c1.833-0.211,2.85,0.695,2.979,2.378c0.138,1.796-0.975,2.629-2.734,2.623c-0.832-0.003-1.665-0.004-2.497-0.004
	C1095.934,78.99,1028.279,78.99,960.627,78.99z"/>
<path fill-rule="evenodd" clip-rule="evenodd" fill="#FFFFFF" d="M119.985,70.991c3.807,4.683,5.652,10.675,9.999,14.998
	c-0.439,2.016-2.031,0.574-3,1c-6.318,0-12.639-0.104-18.954,0.046c-2.938,0.07-5.027-0.546-6.28-3.545
	c-1.553-3.717-4.45-4.729-8.606-4.627c-13.792,0.337-27.598,0.121-41.399,0.136c-1.601,0.002-3.175-0.324-4.542,1.216
	c-5.492,6.184-12.048,11.334-17.119,17.977c-1.569,2.056-2.118,3.864-2.11,6.24c0.047,14.133,0.186,28.27-0.089,42.398
	c-0.069,3.585,0.684,6.162,3.971,7.428c2.877,1.107,3.271,3.053,3.194,5.764c-0.171,5.981-0.053,11.97-0.053,17.957
	c0,0.819,0,1.638,0,2.754c-5.074-2.473-8.635-7.103-13.998-8.754c0-24.626,0.042-49.252-0.063-73.878
	c-0.011-2.516,0.575-4.281,2.413-6.051c6.35-6.118,12.588-12.356,18.706-18.707c1.77-1.836,3.533-2.427,6.05-2.416
	C72.063,71.035,96.024,70.991,119.985,70.991z"/>
<path fill-rule="evenodd" clip-rule="evenodd" fill="#2295A7" d="M1208.849,34.996c0.667,0,1.333,0,2,0
	c-7.207,13.716-14.462,27.406-21.568,41.174c-1.006,1.948-1.936,3.1-4.321,2.888c-1.537-0.137-3.122,0.313-4.688,0.648
	c-3.807,0.815-8.04,1.285-9.538-4.204c-0.479-1.757-1.94-2.61-4.318-2.608c-137.399,0.108-274.799,0.112-412.198-0.001
	c-3.292-0.003-4.926,1.851-6.411,3.824c-3.901,5.183-9.317,2.756-14.142,3.167c-0.7,0.06-1.289-1.082-1.761-2.041
	c-6.574-13.325-13.297-26.577-19.963-39.856c-0.134-0.268-0.025-0.658-0.029-0.991c-0.016-0.682,0.318-1.016,1-1
	c6.003,12.738,13.397,24.765,19.21,37.605c0.981,3.099,3.28,3.702,6.175,3.414c2.107-0.21,4.253,0.202,6.361-0.297
	c3.43-4.696,7.938-5.938,13.757-5.867c26.256,0.323,52.518,0.141,78.782,0.141c91.681,0,183.359,0.006,275.037-0.055
	c1.466-0.001,3.313,1.081,4.479-0.841c12.086-0.245,24.178-0.012,36.267-0.131c1.617-0.016,3.297,0.476,4.861-0.335
	c3.35,2.678,7.286,0.783,10.898,1.382c2.715-0.225,2.958,2.363,3.888,3.817c1.8,2.815,3.903,4.017,7.031,2.681
	c1.304-0.557,2.612-0.653,3.892-0.475c2.227,0.308,3.192-0.801,4.156-2.61c6.876-12.899,13.91-25.713,21.101-38.441
	C1208.953,35.72,1208.856,35.328,1208.849,34.996z"/>
<path fill-rule="evenodd" clip-rule="evenodd" fill="#FFFFFF" d="M950.881,130.984c-2.989,0.299-1.965-1.938-1.972-3.312
	c-0.052-10.758-0.129-21.517,0.042-32.271c0.044-2.761-0.619-3.571-3.447-3.486c-7.275,0.219-14.563,0.105-21.843,0.032
	c-0.938-0.01-2.42,0.959-2.776-0.958c0.362-1.925,1.853-0.948,2.793-0.958c7.651-0.074,15.31,0.146,22.952-0.129
	c3.344-0.121,4.436,0.517,4.355,4.157C950.712,106.362,950.881,118.675,950.881,130.984z"/>
<path fill-rule="evenodd" clip-rule="evenodd" fill="#FEFEFF" d="M20.998,193.976c1.837-0.227,2.044,0.69,2.032,2.329
	c-0.086,11.779-0.086,23.559,0,35.337c0.012,1.638-0.195,2.555-2.032,2.329C20.998,220.639,20.998,207.308,20.998,193.976z"/>
<path fill-rule="evenodd" clip-rule="evenodd" fill="#FEF5F3" d="M970.879,1049.869c2.954-0.308,2.138,1.949,1.938,3.263
	c-0.675,4.451,0.499,6.74,5.517,5.817c1.03-0.189,3.233-0.938,3.313,0.702c0.121,2.497-2.23,0.999-3.386,1.131
	c-2.433,0.279-4.919,0.085-7.382,0.085C970.879,1057.201,970.879,1053.535,970.879,1049.869z"/>
<path fill-rule="evenodd" clip-rule="evenodd" fill="#FEF5F3" d="M981.877,89.989c-0.223,4.033-3.372,1.921-4.829,1.836
	c-3.516-0.207-4.541,0.818-4.334,4.333c0.086,1.457,2.197,4.607-1.835,4.83c0.102-3.565-1.15-8.482,0.684-10.315
	C973.395,88.839,978.313,90.09,981.877,89.989z"/>
<path fill-rule="evenodd" clip-rule="evenodd" fill="#F5EDEC" d="M1876.766,75.991c-0.095,1.067-0.724,3.167-1.565,1.511
	c-2.847-5.597-7.453-6.026-12.64-5.482c-1.811,0.19-1.805-0.817-1.793-2.028C1866.905,69.844,1873.35,68.878,1876.766,75.991z"/>
<path fill-rule="evenodd" clip-rule="evenodd" fill="#F3EBEB" d="M1900.763,110.986c-2.449,0.336-2.154-1.367-1.983-2.803
	c0.509-4.296-0.114-8.03-4.008-10.783c-1.889-1.336-1.463-2.47,0.991-2.412C1901.27,99.121,1901.24,104.983,1900.763,110.986z"/>
<path fill-rule="evenodd" clip-rule="evenodd" fill="#F2EAEA" d="M1195.851,84.989c-0.824,6.358-8.366,9.879-13.829,6.411
	c-0.253-0.161-0.121-0.927-0.169-1.411c1.14,0,2.289-0.091,3.42,0.017c3.953,0.375,7.59,0.27,8.849-4.6
	C1194.191,85.136,1195.251,85.122,1195.851,84.989z"/>
<path fill-rule="evenodd" clip-rule="evenodd" fill="#FAFBFD" d="M950.881,240.97c-0.752-0.102-1.955,0.234-1.986-0.848
	c-0.119-4.098-0.119-8.204,0-12.302c0.031-1.083,1.233-0.746,1.986-0.848C950.881,231.638,950.881,236.304,950.881,240.97z"/>
<path fill-rule="evenodd" clip-rule="evenodd" fill="#FBFBFD" d="M20.998,329.959c0.752,0.102,1.955-0.234,1.986,0.848
	c0.119,4.099,0.119,8.204,0,12.302c-0.031,1.083-1.233,0.746-1.986,0.848C20.998,339.291,20.998,334.625,20.998,329.959z"/>
<path fill-rule="evenodd" clip-rule="evenodd" fill="#CCCED9" d="M950.881,145.982c-2.786-2.125-1.806-5.049-2.027-7.923
	c1.393,0.292,0.589,2.14,2.027,1.924C950.881,141.982,950.881,143.982,950.881,145.982z"/>
<path fill-rule="evenodd" clip-rule="evenodd" fill="#CCCED9" d="M950.881,157.98c-2.786-2.125-1.806-5.049-2.027-7.923
	c1.393,0.292,0.589,2.14,2.027,1.924C950.881,153.981,950.881,155.98,950.881,157.98z"/>
<path fill-rule="evenodd" clip-rule="evenodd" fill="#CCCED9" d="M950.881,168.979c-2.786-2.124-1.806-5.049-2.027-7.923
	c1.393,0.292,0.589,2.14,2.027,1.924C950.881,164.979,950.881,166.979,950.881,168.979z"/>
<path fill-rule="evenodd" clip-rule="evenodd" fill="#CCCED9" d="M950.881,180.978c-2.786-2.125-1.806-5.049-2.027-7.923
	c1.393,0.292,0.589,2.14,2.027,1.924C950.881,176.978,950.881,178.978,950.881,180.978z"/>
<path fill-rule="evenodd" clip-rule="evenodd" fill="#CCCED9" d="M950.881,191.976c-2.786-2.124-1.806-5.049-2.027-7.923
	c1.393,0.292,0.589,2.141,2.027,1.924C950.881,187.977,950.881,189.977,950.881,191.976z"/>
<path fill-rule="evenodd" clip-rule="evenodd" fill="#CCCED9" d="M950.881,201.975c-2.786-2.125-1.806-5.049-2.027-7.923
	c1.393,0.292,0.589,2.14,2.027,1.924C950.881,197.976,950.881,199.975,950.881,201.975z"/>
<path fill-rule="evenodd" clip-rule="evenodd" fill="#CCCED9" d="M950.881,211.974c-2.786-2.124-1.806-5.049-2.027-7.923
	c1.393,0.292,0.589,2.14,2.027,1.924C950.881,207.974,950.881,209.974,950.881,211.974z"/>
<path fill-rule="evenodd" clip-rule="evenodd" fill="#CCCED9" d="M950.881,221.972c-2.786-2.124-1.806-5.049-2.027-7.923
	c1.393,0.292,0.589,2.141,2.027,1.924C950.881,217.973,950.881,219.973,950.881,221.972z"/>
<path fill-rule="evenodd" clip-rule="evenodd" fill="#CCCED9" d="M20.998,240.97c2.788,2.124,1.805,5.049,2.027,7.923
	c-1.394-0.292-0.59-2.141-2.027-1.924C20.998,244.97,20.998,242.97,20.998,240.97z"/>
<path fill-rule="evenodd" clip-rule="evenodd" fill="#CCCED9" d="M20.998,252.968c2.788,2.125,1.805,5.049,2.027,7.923
	c-1.394-0.292-0.59-2.14-2.027-1.924C20.998,256.968,20.998,254.968,20.998,252.968z"/>
<path fill-rule="evenodd" clip-rule="evenodd" fill="#CCCED9" d="M20.998,263.967c2.788,2.124,1.805,5.049,2.027,7.923
	c-1.394-0.292-0.59-2.141-2.027-1.924C20.998,267.967,20.998,265.967,20.998,263.967z"/>
<path fill-rule="evenodd" clip-rule="evenodd" fill="#CCCED9" d="M20.998,275.966c2.788,2.124,1.805,5.049,2.027,7.923
	c-1.394-0.292-0.59-2.141-2.027-1.924C20.998,279.965,20.998,277.965,20.998,275.966z"/>
<path fill-rule="evenodd" clip-rule="evenodd" fill="#CCCED9" d="M20.998,286.964c2.788,2.124,1.805,5.049,2.027,7.923
	c-1.394-0.292-0.59-2.141-2.027-1.924C20.998,290.964,20.998,288.964,20.998,286.964z"/>
<path fill-rule="evenodd" clip-rule="evenodd" fill="#CCCED9" d="M20.998,306.962c2.788,2.124,1.805,5.049,2.027,7.923
	c-1.394-0.292-0.59-2.141-2.027-1.924C20.998,310.961,20.998,308.961,20.998,306.962z"/>
<path fill-rule="evenodd" clip-rule="evenodd" fill="#CCCED9" d="M20.998,316.96c2.788,2.125,1.805,5.049,2.027,7.923
	c-1.394-0.292-0.59-2.14-2.027-1.924C20.998,320.96,20.998,318.96,20.998,316.96z"/>
<path fill-rule="evenodd" clip-rule="evenodd" fill="#CCCED9" d="M20.998,296.963c2.788,2.125,1.805,5.049,2.027,7.923
	c-1.394-0.292-0.59-2.14-2.027-1.924C20.998,300.962,20.998,298.963,20.998,296.963z"/>
<path fill-rule="evenodd" clip-rule="evenodd" fill="#263D73" d="M731.908,72.991c-6.333-12.332-12.665-24.664-18.998-36.996
	c-1.912-6.446-5.728-11.992-8.562-18.002c-3.339-7.08,1.178-14.994,8.79-14.994c165.452,0,330.903,0,496.355,0
	c7.218,0,11.92,7.764,8.589,14.272c-3.034,5.93-6.151,11.818-9.233,17.724c-5.159,9.658-10.302,19.324-15.484,28.969
	c-2.05,3.814-4.343,7.508-6.199,11.412c-0.716,1.504-1.445,1.672-2.863,1.668c-1.708-0.004-3.327-0.069-5.146,0.78
	c-2.235,1.044-4.998,0.127-6.2-2.418c-0.805-1.706-2.134-2.903-3.102-4.415c-3.496-2.196-7.353-0.444-10.998-1
	c-13.999,0-27.997,0-41.995,0c-91.675,0-183.351-0.008-275.026,0.065c-1.608,0.001-3.658-1.203-4.939,0.935
	c-25.157,0-50.315,0.155-75.469-0.103c-6.787-0.07-13.054,0.091-17.519,6.102C740.048,75.237,736.345,73.012,731.908,72.991z"/>
<path fill-rule="evenodd" clip-rule="evenodd" fill="#17244A" d="M979.877,575.898c0-153.464-0.061-306.93,0.119-460.394
	c0.014-11.774,4.648-16.337,16.388-16.392c59.151-0.272,118.305-0.186,177.458-0.072c11.538,0.022,21.445-3.689,29.83-11.429
	c6.4-5.907,13.848-8.636,22.487-8.635c208.619,0.018,417.239,0.01,625.857,0.024c13.573,0.001,23.538,6.783,31.813,16.937
	c6.3,7.73,7.958,16.654,7.957,26.259c-0.027,304.764,0.016,609.526-0.168,914.29c-0.007,11.573-4.151,16.223-15.995,16.23
	c-293.267,0.193-586.532,0.199-879.799-0.026c-11.403-0.009-15.752-4.083-15.773-15.897
	C979.789,883.162,979.877,729.53,979.877,575.898z"/>
<path fill-rule="evenodd" clip-rule="evenodd" fill="#FEF5F3" d="M1899.751,1053.984c-0.404,1.646,1.005,5.189-0.597,5.547
	c-3.761,0.839-7.838,0.269-11.786,0.189c-0.186-0.003-0.581-0.836-0.487-1.174c0.203-0.731,0.908-0.645,1.582-0.701
	c3.071-0.255,7.153,1.418,8.93-0.753c1.466-1.794,0.36-5.702,0.357-8.673c0-0.694,0.03-1.373,0.854-1.441
	c1.173-0.098,1.191,0.719,1.162,1.619C1899.712,1050.255,1899.751,1051.914,1899.751,1053.984z"/>
<path fill-rule="evenodd" clip-rule="evenodd" fill="#F2EAEA" d="M1201.141,79.995c0.094-3.865,2.063-6.737,4.912-8.442
	c2.666-1.597,6.054-0.318,9.116-0.48c0.18-0.01,0.602,0.786,0.539,1.142c-0.056,0.313-0.694,0.815-0.969,0.754
	C1208.337,71.543,1204.418,74.942,1201.141,79.995z"/>
<path fill-rule="evenodd" clip-rule="evenodd" fill="#17244A" d="M47.994,88.989c3.67-2.74,7.673-4.137,12.375-4.058
	c10.994,0.184,21.994,0.062,32.991,0.054c1.626-0.001,3.182-0.255,4.49,1.304c3.259,3.886,7.563,5.047,12.553,4.758
	c4.65-0.27,9.33-0.143,13.992-0.03c3.769,0.091,6.433-1.312,7.96-4.857c1.643-3.814,4.326-5.279,8.768-5.276
	c184.287,0.125,368.574,0.145,552.861,0.002c9.706-0.007,17.776,3.069,24.664,9.429c8.017,7.403,17.479,10.646,28.157,10.653
	c59.652,0.041,119.303,0.018,178.955,0.021c8.919,0,15.117,6.089,15.118,14.906c0.005,306.756,0.015,613.512-0.043,920.267
	c-0.002,9.418-6.421,14.67-14.775,14.672c-293.426,0.041-586.853,0.039-880.278,0.016c-8.619,0-14.792-6.044-14.792-15.227
	c0.01-280.596,0.017-561.191-0.071-841.787c-0.001-4.412,0.569-8.022,4.395-10.746c2.997-2.133,4.038-5.239,3.735-8.966
	c-0.256-3.146-0.178-6.333-0.024-9.492c0.256-5.281-0.055-10.27-3.986-14.465c-1.112-1.187-1.103-3.181-1.085-4.995
	c0.093-9.663,0.18-19.331-0.011-28.992c-0.103-5.211,0.434-10.254,2.055-15.192c3.894-0.183,9.059,1.617,11.337-0.661
	C49.611,98.048,47.811,92.883,47.994,88.989z"/>
<path fill-rule="evenodd" clip-rule="evenodd" fill="#1B426E" d="M34.996,177.978c0-4.664-0.08-9.33,0.022-13.992
	c0.104-4.731,0.813-9.567-5.575-11.158c-1.527-0.38-1.487-2.249-1.482-3.815c0.054-15.324,0.122-30.65-0.031-45.973
	c-0.038-3.829,2.835-5.752,4.765-8.016c4.307-5.055,9.392-9.439,13.955-14.29c1.601-1.702,3.294-1.775,5.315-1.768
	c13.825,0.047,27.653,0.161,41.475-0.064c3.782-0.062,6.742,0.7,8.137,4.29c1.322,3.4,3.708,3.937,6.92,3.848
	c6.159-0.171,12.325-0.05,18.488-0.05c-0.255,1.078-0.922,1.744-2,2c-5.999,0-11.999,0-17.998,0
	c-4.645,0.186-6.942-3.54-9.999-5.999c-0.249-1.078-1.083-1.017-1.918-1.015c-13.386,0.024-26.771,0.024-40.157,0
	c-0.836-0.001-1.67-0.063-1.919,1.015c-9.63,3.304-14.939,11.47-20.876,18.844c-0.814,1.011-0.072,3.179-0.292,4.778
	c-1.895,13.796-0.283,27.662-0.822,41.484c-0.027,0.687,0.449,1.592,0.982,2.07c8.031,7.209,4.011,16.833,5.083,25.418
	C37.205,176.678,36.303,177.707,34.996,177.978z"/>
<path fill-rule="evenodd" clip-rule="evenodd" fill="#F9FAFB" d="M47.994,88.989c-0.102,3.898,1.278,9.278-0.721,11.278
	c-2,2-7.379,0.619-11.277,0.721c-0.165-0.023-0.329-0.047-0.494-0.071C39.002,96.246,42.535,91.608,47.994,88.989z"/>
<path fill-rule="evenodd" clip-rule="evenodd" fill="#1D3462" d="M52.993,82.99c0.15-1.136,0.915-1.033,1.798-1.031
	c13.467,0.031,26.933,0.031,40.399,0c0.883-0.002,1.647-0.105,1.797,1.031C82.323,82.99,67.658,82.99,52.993,82.99z"/>
<path fill-rule="evenodd" clip-rule="evenodd" fill="#1D3462" d="M106.987,88.989c5.999,0,11.999,0,17.998,0
	C118.985,90.646,112.986,90.646,106.987,88.989z"/>
<path fill-rule="evenodd" clip-rule="evenodd" fill="#284078" d="M836.896,70.991c0.973-2.3,2.919-0.927,4.294-0.928
	c91.89-0.08,183.78-0.072,275.671-0.072c-0.974,2.3-2.92,0.927-4.294,0.928C1020.676,70.999,928.786,70.991,836.896,70.991z"/>
<path fill-rule="evenodd" clip-rule="evenodd" fill="#284078" d="M731.908,72.991c4.479-0.105,8.095,2.378,11.999,4
	c-1.832,0-3.712-0.264-5.486,0.056C734.894,77.681,732.865,76.292,731.908,72.991z"/>
<path fill-rule="evenodd" clip-rule="evenodd" fill="#284078" d="M1158.855,69.991c3.637,0.656,7.518-1.373,10.998,1
	C1166.217,70.335,1162.336,72.364,1158.855,69.991z"/>
<path fill-rule="evenodd" clip-rule="evenodd" fill="#1B2D5F" d="M960.949,7.999c78.129,0,156.257,0.02,234.385-0.073
	c3.123-0.004,6.084,0.756,8.968,1.381c5.681,1.231,7.933,7.967,4.523,14.643c-5.933,11.617-12.129,23.134-18.887,34.285
	c-6.397,10.555-13.392,11.196-24.815,8.545c-3.86-0.896-7.854-1.713-11.787-1.715c-127.27-0.089-254.541-0.13-381.812,0.085
	c-6.735,0.012-13.634,0.681-20.345,2.728c-8.362,2.551-16.372-1.827-21.25-11.169c-5.873-11.248-11.555-22.601-17.033-34.046
	c-3.043-6.358-0.187-13.582,7.564-13.929c3.469-0.156,7.063-0.704,10.602-0.706C807.692,7.99,884.32,7.999,960.949,7.999z"/>
</svg>
