<?xml version="1.0" encoding="utf-8"?>
<!-- Generator: Adobe Illustrator 16.0.0, SVG Export Plug-In . SVG Version: 6.00 Build 0)  -->
<!DOCTYPE svg PUBLIC "-//W3C//DTD SVG 1.1//EN" "http://www.w3.org/Graphics/SVG/1.1/DTD/svg11.dtd">
<svg version="1.1" id="图层_1" xmlns="http://www.w3.org/2000/svg" xmlns:xlink="http://www.w3.org/1999/xlink" x="0px" y="0px"
	 width="1920px" height="1080px" viewBox="0 0 1920 1080" enable-background="new 0 0 1920 1080" xml:space="preserve">
<g>
	<path fill-rule="evenodd" clip-rule="evenodd" fill="#0A122E" d="M1228.847,2c229.138,0,458.275,0.011,687.414-0.093
		c3.748-0.002,4.593,0.844,4.592,4.593c-0.1,356.955-0.1,713.911,0,1070.866c0.001,3.749-0.844,4.594-4.592,4.593
		c-636.921-0.097-1273.841-0.097-1910.761,0c-3.749,0.001-4.594-0.844-4.593-4.593C1.007,718.91,1,360.455,1,2
		c230.971,0,461.942,0,692.913,0c3.542,3.583,5.475,8.188,7.734,12.541c4.02,7.744,7.819,15.602,11.839,23.359
		c6.01,11.905,11.893,23.864,17.893,35.764c2.923,5.799,10.074,7.204,14.719,2.482c3.473-3.53,7.236-4.668,12.032-4.665
		c134.633,0.091,269.265,0.051,403.899,0.031c4.491-0.001,8.227,0.314,11.104,4.818c2.725,4.266,13.118,2.16,15.772-2.792
		c6.761-12.613,13.411-25.286,20.088-37.933c4.537-7.703,8.849-15.54,12.897-23.522C1223.752,8.413,1225.125,4.393,1228.847,2z"/>
	<path fill-rule="evenodd" clip-rule="evenodd" fill="#284078" d="M711.858,37.333C705.298,25.85,699.529,13.964,693.913,2
		c178.312,0,356.622,0,534.934,0c-5.999,11.053-11.998,22.106-17.996,33.16c-0.963,0.337-1.873,0.511-2.324-0.748
		c-0.252-3.219,1.586-5.708,2.994-8.317c1.74-3.223,3.803-6.29,5.017-9.763c1.986-5.688-1.397-10.894-7.345-11.451
		c-2.158-0.202-4.326-0.127-6.491-0.127c-161.041-0.002-322.084-0.002-483.125,0c-1.999,0-3.999-0.064-5.994,0.087
		c-6.343,0.482-9.94,6.105-7.613,12.071c1.575,4.036,3.805,7.775,5.654,11.689c0.99,2.096,2.227,4.129,2.01,6.601
		C713.438,36.242,712.825,36.936,711.858,37.333z"/>
	<path fill-rule="evenodd" clip-rule="evenodd" fill="#1D3362" d="M655.006,1049.94c-0.036-2.165-0.104-4.329-0.104-6.495
		c-0.009-148.447-0.013-296.896-0.018-445.346c0.076-2.832,0.042-5.665,0.051-8.497c0.008-2.488,1.17-3.65,3.658-3.658
		c2.833-0.01,5.666,0.024,8.498-0.052c194.109,0.005,388.22,0.009,582.329,0.019c2.165,0,4.329,0.067,6.494,0.104
		c1.899,1.567,4.161,0.79,6.259,0.896c2.452,0.122,3.745,1.146,3.615,3.981c0.194-1.861-0.414-3.579,0.982-4.879
		c1.651,1.01,1.077,2.668,1.078,4.073c0.011,152.619-0.004,305.237-0.021,457.857c0,0.333-0.049,0.665-0.074,0.997
		c-1.689,2.602-0.729,5.512-0.89,8.276c-0.143,2.476-1.195,3.528-3.672,3.671c-2.764,0.16-5.674-0.8-8.276,0.89
		c-3.498,0.035-6.996,0.103-10.493,0.103c-194.281,0.009-388.563,0.017-582.845-0.038c-2.179,0-4.676,1.076-6.572-1.047
		c1.3-1.396,3.018-0.788,4.576-0.954c-2.514,0.082-3.561-1.184-3.68-3.643C655.8,1054.101,656.574,1051.839,655.006,1049.94z"/>
	<path fill-rule="evenodd" clip-rule="evenodd" fill="#1D3361" d="M654.005,555.003c-0.035-4.328-0.102-8.657-0.102-12.984
		c-0.007-151.204-0.008-302.407-0.005-453.609c0-1.831,0.069-3.661,0.106-5.492c1.328-1.581,0.98-3.501,0.877-5.275
		c-0.201-3.449,1.233-4.889,4.685-4.688c1.773,0.103,3.694,0.455,5.271-0.885c14.044,0,28.088-0.001,42.132-0.001
		c0.499,0.425,1.035,0.887,1.705,0.834c4.305-0.339,8.029,0.448,10.175,4.77c0.288,0.58,1.13,0.495,1.769,0.209
		c3.228,0.811,4.856,3.906,7.642,5.349c2.529,3.149,5.295,5.754,9.856,4.818c1.164-0.239,2.197,0.454,3.198,1.031
		c5.631,0.504,11.25,1.125,16.898,1.089c27.299-0.169,54.601-0.027,81.893,0.407c39.943,0.636,79.886,0.4,119.828,0.7
		c16.145,0.121,32.302-0.292,48.43,0.285c34.947,1.25,69.903,0.031,104.843,0.728c18.8,0.375,37.601-0.342,56.397,0.535
		c6.607,0.309,13.215-1.076,19.833-1.37c3.572-0.59,4.414-3.878,6.16-6.278c1.654-2.057,3.308-4.115,4.961-6.173
		c0.167-0.007,0.43,0.051,0.485-0.032c3.553-5.225,9.063-6.248,14.75-6.902c13.709,0.001,27.419,0.001,41.129,0.002
		c1.577,1.34,3.499,0.988,5.271,0.885c3.452-0.201,4.887,1.238,4.686,4.688c-0.104,1.774-0.451,3.693,0.877,5.274
		c0.036,4.329,0.102,8.657,0.102,12.985c0.007,150.537,0.007,301.073,0.003,451.609c0,1.831-0.068,3.662-0.105,5.491
		c-1.691,2.603-0.729,5.513-0.89,8.276c-0.144,2.477-1.196,3.529-3.673,3.673c-2.764,0.16-5.674-0.802-8.276,0.89
		c-3.662,0.036-7.325,0.103-10.987,0.103c-191.364,0.007-382.728,0.009-574.091,0.006c-1.664,0-3.328-0.07-4.992-0.107
		c-1.582-1.328-3.501-0.98-5.276-0.877c-3.451,0.202-4.889-1.236-4.687-4.688C654.985,558.505,655.333,556.584,654.005,555.003z"/>
	<path fill-rule="evenodd" clip-rule="evenodd" fill="#1E3462" d="M1300.012,585.894c194.109,0.005,388.219,0.01,582.328,0.02
		c2.165,0,4.329,0.068,6.494,0.104c1.9,1.563,4.162,0.792,6.261,0.893c2.46,0.118,3.725,1.168,3.643,3.682
		c0.166-1.559-0.442-3.276,0.955-4.576c1.651,1.012,1.074,2.669,1.074,4.074c0.012,152.617-0.004,305.235-0.021,457.854
		c0,0.332-0.049,0.664-0.075,0.997c-1.685,2.603-0.727,5.512-0.887,8.277c-0.143,2.476-1.195,3.528-3.672,3.671
		c-2.765,0.16-5.674-0.798-8.277,0.887c-3.664,0.036-7.329,0.103-10.993,0.104c-194.113,0.009-388.228,0.017-582.342-0.038
		c-2.178-0.001-4.675,1.075-6.572-1.044c1.3-1.395,3.016-0.793,4.574-0.953c-2.513,0.08-3.562-1.186-3.68-3.644
		c-0.101-2.1,0.671-4.361-0.893-6.26c-0.036-2.165-0.104-4.33-0.104-6.495c-0.01-148.449-0.014-296.898-0.019-445.346
		c0.072-2.833,0.041-5.666,0.05-8.497c0.007-2.489,1.17-3.65,3.658-3.658C1294.346,585.936,1297.179,585.968,1300.012,585.894z"/>
	<path fill-rule="evenodd" clip-rule="evenodd" fill="#1E3463" d="M35.168,585.896c193.443,0.003,386.887,0.007,580.33,0.016
		c2.166,0,4.33,0.068,6.495,0.104c1.583,1.324,3.503,0.978,5.277,0.874c3.451-0.202,4.889,1.236,4.687,4.687
		c-0.104,1.774-0.45,3.694,0.874,5.278c0.037,2.163,0.105,4.329,0.105,6.493c0.009,148.449,0.013,296.898,0.017,445.348
		c-0.063,2.661-0.1,5.324-0.022,7.981c0.086,2.947-1.193,4.178-4.158,4.228c-2.598,0.045-5.342-0.748-7.779,0.871
		c-3.998,0.035-7.997,0.102-11.995,0.102c-193.636,0.01-387.272,0.016-580.908,0.008c-8.009,0-7.11,0.799-7.111-7.313
		c-0.014-154.143-0.014-308.284,0.026-462.427c0-2.085-0.749-4.346,0.817-6.257c2.025,1.478,0.755,3.681,1.297,5.66
		c-0.727-4.246,0.981-5.995,5.127-5.656C30.539,586.081,32.86,585.954,35.168,585.896z"/>
	<path fill-rule="evenodd" clip-rule="evenodd" fill="#1E3463" d="M1876.961,75.968c6.28,6.312,12.56,12.625,18.839,18.938
		c-0.094,0.136-0.291,0.371-0.268,0.395c4.217,4.393,4.063,10.218,5.14,15.637c0.034,1.832,0.101,3.663,0.101,5.495
		c0.009,147.445,0.016,294.889,0.008,442.334c-0.001,8.039,0.827,7.18-7.241,7.18c-196.925,0.011-393.852,0.006-590.777-0.002
		c-1.665,0-3.329-0.069-4.994-0.106c-1.584-1.321-3.504-0.977-5.277-0.872c-3.452,0.202-4.89-1.236-4.688-4.688
		c0.104-1.773,0.449-3.693-0.872-5.277c-0.035-4.33-0.101-8.662-0.102-12.992c-0.009-154.621-0.016-309.24-0.008-463.861
		c0.001-8.045-0.818-7.164,7.247-7.175c35.99-0.051,71.982,0.277,107.967-0.151c151.595-1.806,303.193-0.332,454.788-0.84
		c1.332-0.004,2.665,0.066,3.997,0.102c0.244,0.221,0.521,0.557,0.797,0.537C1867.512,70.182,1872.571,72.104,1876.961,75.968z"/>
	<path fill-rule="evenodd" clip-rule="evenodd" fill="#1D3462" d="M633.816,202.85c-0.004,1.767-0.008,3.533-0.012,5.3
		c-1.394,4.548-1.391,9.097-0.002,13.646c0.045,23.636,0.129,47.272,0.125,70.908c-0.008,44.111-0.067,88.223-0.105,132.333
		c-1.447,2.118-0.875,4.525-0.877,6.808c-0.036,41.982-0.021,83.965-0.03,125.948c-0.001,7.113-0.022,7.132-7.262,7.132
		c-198.75,0.005-397.501,0.005-596.252,0.001c-7.387,0-7.394-0.018-7.402-7.499c-0.01-8.997,0.019-17.993-0.02-26.989
		c-0.008-1.799,0.362-3.694-0.86-5.311c-0.046-28.975-0.129-57.95-0.128-86.925c0.001-31.473,0.08-62.946,0.125-94.419
		c1.388-4.548,1.387-9.096,0.001-13.643c-0.012-2.417-0.023-4.833-0.035-7.25c2.007-1.929,0.459-3.869,0.018-5.806
		c-0.006-1.398-0.012-2.795-0.018-4.192c2.006-1.929,0.459-3.87,0.018-5.807c-0.006-1.397-0.012-2.795-0.018-4.192
		c2.007-1.929,0.459-3.869,0.018-5.806c-0.006-1.397-0.012-2.795-0.018-4.192c2.006-1.929,0.459-3.87,0.018-5.806
		c-0.006-1.731-0.012-3.461-0.018-5.192c2.006-1.929,0.459-3.87,0.019-5.806c-0.006-2.064-0.013-4.128-0.019-6.193
		c2.007-1.929,0.459-3.869,0.018-5.806c-0.006-1.731-0.012-3.462-0.018-5.193c2.007-1.929,0.459-3.869,0.018-5.806
		c-0.006-2.064-0.012-4.127-0.018-6.192c2.006-1.93,0.459-3.87,0.018-5.807c0.006-2.435,0.012-4.87,0.018-7.306
		c0.69-0.796,0.847-1.763,0.851-2.766c0.047-11.364,0.047-22.727,0-34.09c-0.004-1.003-0.158-1.97-0.85-2.766
		c-0.058-7.71-0.116-15.42-0.174-23.13c5.585,0.653,9.055,4.67,12.768,8.201c1.215,1.155,0.346,2.403-0.917,3.225
		c-4.717,1.022-6.093,3.993-6.059,8.674c0.144,19.993,0.064,39.989,0.063,59.983c-0.004,95.142-0.007,190.283,0.017,285.425
		c0.001,3.48-0.269,6.981,0.693,10.425c2.351,8.417,6.904,12.271,15.615,13.001c2.657,0.222,5.329,0.157,7.994,0.157
		c184.285,0,368.57,0.003,552.854-0.019c3.648,0,7.321,0.3,10.928-0.687c8.494-2.322,12.292-6.779,13.057-15.541
		c0.217-2.49,0.159-4.995,0.159-7.494c0-145.295,0-290.59,0-435.885c0-2.5,0.058-5.005-0.165-7.495
		c-0.843-9.454-6.58-15.196-16.037-16.053c-2.489-0.226-4.994-0.161-7.494-0.161c-153.792,0-307.585,0-461.379,0
		c-0.666,0,0.167-0.001-0.5,0c-8.698,0.015-8.698,0.015-11.074,7.956c-0.951,1.582-2.483,2.183-3.591,0.651
		c-3.226-4.463-7.218-8.569-7.865-14.453c5.327,0.01,10.654,0.028,15.98,0.028c153.544,0.001,307.088,0,460.631,0.007
		c2.497,0,4.993,0.086,7.489,0.131c4.815,1.847,9.819,0.533,14.727,0.843c3.137,0.198,6.303,0.158,9.444,0.011
		c3.451-0.162,4.697,1.347,4.664,4.72c-0.094,9.779-0.063,19.56-0.01,29.339c0.011,1.946-0.467,4.006,0.859,5.774
		c0.007,3.099,0.015,6.198,0.023,9.297c-2.216,1.918-0.298,3.841-0.007,5.763c0.002,2.079,0.004,4.157,0.007,6.236
		c-2.216,1.918-0.298,3.841-0.007,5.763c0.002,1.745,0.004,3.491,0.007,5.236c-2.216,1.918-0.298,3.841-0.007,5.763
		c-0.001,2.089-0.001,4.178-0.002,6.268c-2.004,1.902-0.406,3.807-0.002,5.71c0.004,1.752,0.008,3.504,0.012,5.256
		c-2.216,1.918-0.298,3.841-0.007,5.763c0.002,1.412,0.004,2.824,0.007,4.236c-2.216,1.918-0.298,3.841-0.007,5.762
		c0.002,1.414,0.004,2.828,0.006,4.241c-2.216,1.917-0.296,3.838-0.006,5.758c0.002,1.413,0.004,2.824,0.007,4.236
		C631.607,199.005,633.525,200.929,633.816,202.85z"/>
	<path fill-rule="evenodd" clip-rule="evenodd" fill="#FFFFFF" d="M960.361,78.99c-66.975,0-133.95,0-200.925-0.001
		c-1.333,0-2.667,0.012-3.997-0.041c-1.314-0.052-2.264-0.744-2.415-2.049c-0.18-1.553,0.764-2.539,2.213-2.803
		c1.132-0.207,2.324-0.102,3.49-0.102c134.783-0.003,269.566-0.003,404.35-0.002c0.833,0,1.667,0.023,2.499,0
		c1.714-0.048,3.089,0.612,3.172,2.401c0.084,1.813-1.241,2.568-2.962,2.59c-1.333,0.017-2.666,0.008-3.999,0.008
		C1094.645,78.99,1027.502,78.99,960.361,78.99z"/>
	<path fill-rule="evenodd" clip-rule="evenodd" fill="#FFFFFF" d="M34.239,180.825c-4.431-3.263-8.862-6.526-13.293-9.79
		c-0.011-23.827,0.051-47.653-0.112-71.479c-0.024-3.481,1.03-5.886,3.514-8.235c5.808-5.494,11.467-11.157,16.963-16.962
		c2.345-2.476,4.736-3.56,8.227-3.534c23.492,0.17,46.986,0.108,70.478,0.121c3.283,5.085,6.567,10.169,9.851,15.254
		c0.336,0.522,0.254,0.967-0.246,1.342c-0.456,0.306-0.95,0.515-1.482,0.645c-1.104,0.216-2.221,0.218-3.342,0.234
		c-6.825-0.154-13.656,0.386-20.474-0.301c-0.89-0.251-1.642-0.724-2.27-1.395c-2.307-4.901-5.906-6.636-11.521-6.392
		c-11.613,0.504-23.265,0.291-34.896,0.082c-4.498-0.081-8.084,1.234-11.055,4.529c-1.445,1.603-2.828,3.384-4.515,4.626
		c-9.326,6.863-11.554,16.133-10.723,27.182c0.721,9.586,0.243,19.27,0.098,28.908c-0.049,3.269,0.71,5.892,3.57,7.65
		c2.74,1.685,3.453,4.249,3.424,7.262c-0.054,5.65,0.05,11.301-0.047,16.955C36.126,178.923,36.312,180.612,34.239,180.825z"/>
	<path fill-rule="evenodd" clip-rule="evenodd" fill="#1D3362" d="M1191.854,92.161c-8.435,1.116-16.819,2.842-25.413,1.962
		c-1.65-0.169-3.325-0.129-4.988-0.129c-46.123-0.006-92.266,0.852-138.362-0.231c-52.254-1.227-104.512,0.483-156.728-1.004
		c-37.107-1.056-74.194-0.049-111.276-0.91c-5.047-0.117-10.563,0.602-15.179-2.708c0.077-0.697,0.452-1.1,1.16-1.175
		c20.825,0.037,41.666-0.43,62.472,0.21c51.954,1.598,103.927-0.231,155.862,1.053c49.962,1.236,99.925-0.182,149.865,1.017
		c24.14,0.579,48.269,0.432,72.4,0.722C1185.041,91.55,1188.691,89.782,1191.854,92.161z"/>
	<path fill-rule="evenodd" clip-rule="evenodd" fill="#FFFFFF" d="M21.12,525.126c3.023-0.054,1.806,2.284,1.819,3.593
		c0.106,10.33,0.246,20.666-0.019,30.989c-0.093,3.639,1.076,4.295,4.455,4.281c31.826-0.126,63.651-0.059,95.478-0.06
		c167.793-0.004,335.587-0.039,503.38,0.112c5.011,0.005,5.803-1.414,5.783-6.021c-0.183-42.823-0.123-85.647,0.011-128.47
		c0.004-1.427-1.905-4.301,1.796-4.514c0.032,45.825,0.048,91.649,0.142,137.473c0.005,2.479-0.488,3.845-3.263,3.437
		c-0.815-0.119-1.664-0.018-2.497-0.018c-200.134,0-400.269,0-600.403,0c-6.802,0-6.818-0.003-6.801-6.813
		C21.029,547.786,21.079,536.457,21.12,525.126z"/>
	<path fill-rule="evenodd" clip-rule="evenodd" fill="#2295A7" d="M1208.945,35.31c0.636-0.051,1.271-0.103,1.906-0.152
		c-7.043,13.32-14.054,26.654-21.142,39.948c-3.34,6.261-15.23,6.825-18.69,0.684c-1.93-3.426-4.617-3.155-7.601-3.152
		c-127.313,0.132-254.624,0.254-381.936,0.376c-8.165,0.008-16.334,0.158-24.494-0.062c-3.574-0.096-6.538,0.502-8.78,3.466
		c-3.874,5.12-9.391,2.953-14.343,3.061c-1.522,0.033-1.878-1.715-2.456-2.872c-6.531-13.087-13.04-26.185-19.553-39.276
		c0.322-0.355,0.644-0.713,0.964-1.071c2.376,0.378,2.961,2.468,3.816,4.177c5.39,10.777,11.398,21.234,16.64,32.086
		c2.684,3.586,5.624,4.078,10.892,1.784c4.05-4.048,8.935-5.199,14.579-5.14c26.15,0.272,52.303-0.137,78.458,0.22
		c1.993,0.237,3.992,0.14,5.987,0.141c88.352,0.006,176.703,0.003,265.055,0.013c2.833,0,5.657,0.044,8.394-0.845
		c13.771-0.788,27.549-0.717,41.325-0.092c3.56,1.319,7.326,0.756,10.983,1.14c1.558,0.302,2.604,1.337,3.627,2.469
		c5.534,6.115,11.548,5.343,15.656-1.982c5.613-10.01,11.165-20.054,16.577-30.175C1205.815,38.178,1206.621,36.064,1208.945,35.31z
		"/>
	<path fill-rule="evenodd" clip-rule="evenodd" fill="#FFFFFF" d="M633.8,111.8c-3.012,0.057-1.811-2.272-1.824-3.583
		c-0.104-10.473-0.191-20.949,0.001-31.419c0.056-3.062-0.714-3.98-3.837-3.866c-6.807,0.249-13.63,0.129-20.444,0.002
		c-1.311-0.024-3.641,1.195-3.58-1.821c8.829-0.041,17.659,0.009,26.484-0.177c2.64-0.056,3.41,0.759,3.375,3.383
		C633.813,86.812,633.84,99.306,633.8,111.8z"/>
	<path fill-rule="evenodd" clip-rule="evenodd" fill="#FEFEFF" d="M21.12,194.166c1.667-0.241,1.886,0.76,1.884,2.087
		c-0.018,11.815-0.017,23.63,0,35.446c0.002,1.327-0.22,2.327-1.886,2.088C21.119,220.58,21.119,207.373,21.12,194.166z"/>
	<path fill-rule="evenodd" clip-rule="evenodd" fill="#FEF5F3" d="M667.091,585.893c-2.392,2.183-5.289,0.896-7.91,0.949
		c-2.588,0.052-3.296,0.759-3.348,3.348c-0.052,2.621,1.232,5.519-0.949,7.91c-2.064-3.836-0.483-7.956-0.913-11.922
		c-0.082-0.76,0.437-1.28,1.197-1.197C659.134,585.409,663.254,583.828,667.091,585.893z"/>
	<path fill-rule="evenodd" clip-rule="evenodd" fill="#FEF5F3" d="M35.168,585.896c-2.397,2.164-5.293,0.896-7.916,0.943
		c-2.599,0.047-3.432,0.756-3.304,3.36c0.125,2.523,0.484,5.149-0.928,7.664c-1.789-3.837-0.535-8.024-1.198-11.975
		C26.272,584.355,30.72,584.344,35.168,585.896z"/>
	<path fill-rule="evenodd" clip-rule="evenodd" fill="#FEF5F3" d="M1300.012,585.894c-2.395,2.176-5.291,0.895-7.912,0.946
		c-2.587,0.052-3.297,0.758-3.348,3.348c-0.051,2.621,1.228,5.518-0.945,7.912c-2.068-3.836-0.484-7.956-0.915-11.922
		c-0.082-0.759,0.438-1.28,1.198-1.197C1292.055,585.41,1296.175,583.827,1300.012,585.894z"/>
	<path fill-rule="evenodd" clip-rule="evenodd" fill="#FEF5F3" d="M1254.915,565.842c0.486-3.594,3.404-1.978,4.91-1.793
		c5.011,0.612,6.747-1.128,6.136-6.137c-0.184-1.505-1.801-4.424,1.793-4.908C1268.12,566.209,1268.12,566.209,1254.915,565.842z"/>
	<path fill-rule="evenodd" clip-rule="evenodd" fill="#FEF5F3" d="M620.993,1061.776c-0.216-3.007,2.096-1.829,3.388-1.879
		c7.321-0.28,7.298-0.231,7.548-7.771c0.04-1.188-0.626-2.684,1.023-3.43c2.073,3.804,0.57,7.892,0.888,11.834
		c0.145,1.8-1.522,1.308-2.542,1.315C627.864,1061.871,624.428,1061.807,620.993,1061.776z"/>
	<path fill-rule="evenodd" clip-rule="evenodd" fill="#FEF5F3" d="M1254.915,1061.778c0.489-3.588,3.405-1.976,4.912-1.791
		c5.01,0.612,6.746-1.128,6.135-6.136c-0.185-1.507-1.799-4.422,1.791-4.91C1268.125,1062.15,1268.125,1062.15,1254.915,1061.778z"
		/>
	<path fill-rule="evenodd" clip-rule="evenodd" fill="#FEF5F3" d="M1887.835,1061.775c0.497-3.58,3.407-1.972,4.916-1.787
		c5.009,0.612,6.744-1.125,6.133-6.134c-0.185-1.508-1.795-4.418,1.788-4.914
		C1901.053,1062.158,1901.053,1062.158,1887.835,1061.775z"/>
	<path fill-rule="evenodd" clip-rule="evenodd" fill="#FEF5F3" d="M1899.692,586.016c-0.076,3.617,0.612,7.3-0.632,11.539
		c-1.537-3.917-5.777-7.941-10.042-10.131c-0.238-0.123-0.13-0.922-0.184-1.406C1892.454,586.017,1896.072,586.017,1899.692,586.016
		z"/>
	<path fill-rule="evenodd" clip-rule="evenodd" fill="#FEF5F3" d="M664.838,72.07c-0.113,3.729-3.07,1.899-4.398,1.795
		c-3.729-0.291-4.943,0.898-4.646,4.641c0.106,1.332,1.929,4.281-1.788,4.411C653.7,71.784,653.7,71.784,664.838,72.07z"/>
	<path fill-rule="evenodd" clip-rule="evenodd" fill="#FEF5F3" d="M1267.755,82.917c-3.609-0.474-1.862-3.333-1.8-4.913
		c0.129-3.258-0.89-4.249-4.134-4.127c-1.575,0.06-4.443,1.818-4.899-1.807C1268.061,71.784,1268.061,71.784,1267.755,82.917z"/>
	<path fill-rule="evenodd" clip-rule="evenodd" fill="#FEF5F3" d="M1286.931,555.001c3.7,0.147,1.886,3.082,1.78,4.419
		c-0.294,3.732,0.908,4.931,4.639,4.638c1.336-0.104,4.272-1.922,4.418,1.781C1286.606,566.161,1286.606,566.161,1286.931,555.001z"
		/>
	<path fill-rule="evenodd" clip-rule="evenodd" fill="#FEF5F3" d="M654.005,555.003c3.715,0.131,1.894,3.077,1.789,4.409
		c-0.294,3.736,0.908,4.936,4.642,4.643c1.332-0.105,4.28-1.929,4.409,1.789C653.7,566.148,653.7,566.148,654.005,555.003z"/>
	<path fill-rule="evenodd" clip-rule="evenodd" fill="#FEF5F3" d="M632.831,596.855c-3.704-0.144-1.888-3.082-1.783-4.417
		c0.294-3.732-0.908-4.932-4.64-4.639c-1.334,0.104-4.273,1.923-4.415-1.783C633.149,585.698,633.149,585.698,632.831,596.855z"/>
	<path fill-rule="evenodd" clip-rule="evenodd" fill="#FEF5F3" d="M1266.771,586.014c-0.067,3.619,0.616,7.303-0.63,11.538
		c-1.534-3.893-5.798-7.939-10.046-10.129c-0.238-0.123-0.128-0.923-0.18-1.408C1259.533,586.015,1263.151,586.014,1266.771,586.014
		z"/>
	<path fill-rule="evenodd" clip-rule="evenodd" fill="#FEF5F3" d="M655.006,1049.94c3.41-0.041,1.967,2.68,1.815,3.926
		c-0.512,4.2,1.028,5.646,5.137,5.054c1.236-0.178,2.904-0.688,4.351,1.315c-4.003,1.175-7.687,0.495-11.306,0.56
		C655.005,1057.178,655.006,1053.559,655.006,1049.94z"/>
	<path fill-rule="evenodd" clip-rule="evenodd" fill="#FEF5F3" d="M1287.93,1049.94c3.404-0.034,1.963,2.682,1.812,3.93
		c-0.512,4.198,1.027,5.642,5.135,5.052c1.237-0.18,2.903-0.687,4.354,1.313c-4.004,1.175-7.686,0.487-11.304,0.562
		C1287.929,1057.178,1287.929,1053.559,1287.93,1049.94z"/>
	<path fill-rule="evenodd" clip-rule="evenodd" fill="#F5EDEC" d="M1876.961,75.968c-0.034,1.132-0.397,3.167-1.596,1.348
		c-3.279-4.975-7.746-5.953-13.096-5.333c-1.399,0.162-1.557-0.814-1.449-1.9C1867.171,69.383,1873.248,69.431,1876.961,75.968z"/>
	<path fill-rule="evenodd" clip-rule="evenodd" fill="#F2EAEA" d="M1215.793,72.068c0.371,2.134-1.125,2.136-2.439,1.927
		c-4.612-0.732-8.001,0.671-10.091,5.055c-0.601,1.26-1.87,3.099-2.705-0.049C1203.563,72.136,1209.181,71.009,1215.793,72.068z"/>
	<path fill-rule="evenodd" clip-rule="evenodd" fill="#F3EBEB" d="M1900.672,110.938c-3.046,0.198-1.925-2.17-1.868-3.445
		c0.176-3.917,0.025-7.524-3.656-10.07c-1.382-0.956-1.62-2.208,0.652-2.517C1901.854,98.903,1901.07,104.979,1900.672,110.938z"/>
	<path fill-rule="evenodd" clip-rule="evenodd" fill="#F1E9E8" d="M1191.854,92.161c-3.364-0.658-7.016,1.115-10.187-1.194
		c0.183-0.26,0.392-0.761,0.544-0.744c5.325,0.583,9.948-0.641,13.385-5.047C1196.439,88.623,1193.091,89.826,1191.854,92.161z"/>
	<path fill-rule="evenodd" clip-rule="evenodd" fill="#F4ECEB" d="M720.619,77.882c-0.2,1.681-1.189,2.862-2.222,0.929
		c-2.262-4.235-5.577-5.469-10.035-4.834c-1.375,0.195-1.521-0.833-1.392-1.907C712.765,71.081,717.664,72.2,720.619,77.882z"/>
	<path fill-rule="evenodd" clip-rule="evenodd" fill="#EBE3E4" d="M741.068,87.965c-0.387,0.392-0.773,0.784-1.16,1.175
		c-4.712-0.333-10.406,1.266-11.647-5.91C731.89,86.54,736.646,86.801,741.068,87.965z"/>
	<path fill-rule="evenodd" clip-rule="evenodd" fill="#FBFBFD" d="M21.118,330.139c0.835-0.018,1.797-0.059,1.814,1.083
		c0.055,3.824,0.055,7.65-0.001,11.475c-0.017,1.14-0.979,1.102-1.814,1.085C21.117,339.234,21.117,334.687,21.118,330.139z"/>
	<path fill-rule="evenodd" clip-rule="evenodd" fill="#FAFBFD" d="M633.802,221.796c-0.835,0.017-1.798,0.056-1.815-1.083
		c-0.056-3.823-0.056-7.648,0.001-11.472c0.017-1.132,0.978-1.108,1.816-1.091C633.804,212.699,633.803,217.248,633.802,221.796z"/>
	<path fill-rule="evenodd" clip-rule="evenodd" fill="#CCCED9" d="M21.101,317.083c2.303,1.663,2.034,4.125,1.921,6.481
		c-0.043,0.896-0.214,0.888-1.939-0.676C21.088,320.954,21.095,319.019,21.101,317.083z"/>
	<path fill-rule="evenodd" clip-rule="evenodd" fill="#CCCED9" d="M633.816,138.858c-2.319-1.666-2.053-4.131-1.92-6.499
		c0.05-0.902,0.224-0.893,1.927,0.736C633.821,135.017,633.818,136.937,633.816,138.858z"/>
	<path fill-rule="evenodd" clip-rule="evenodd" fill="#CCCED9" d="M633.816,126.859c-2.319-1.666-2.053-4.131-1.92-6.499
		c0.05-0.902,0.224-0.893,1.927,0.736C633.821,123.018,633.818,124.938,633.816,126.859z"/>
	<path fill-rule="evenodd" clip-rule="evenodd" fill="#CCCED9" d="M633.816,172.854c-2.319-1.666-2.053-4.131-1.92-6.498
		c0.05-0.903,0.224-0.894,1.927,0.736C633.821,169.012,633.818,170.933,633.816,172.854z"/>
	<path fill-rule="evenodd" clip-rule="evenodd" fill="#CCCED9" d="M633.816,182.852c-2.319-1.666-2.053-4.131-1.921-6.498
		c0.051-0.903,0.224-0.893,1.928,0.736C633.821,179.011,633.818,180.932,633.816,182.852z"/>
	<path fill-rule="evenodd" clip-rule="evenodd" fill="#CCCED9" d="M633.816,192.851c-2.319-1.666-2.054-4.132-1.92-6.5
		c0.051-0.903,0.224-0.894,1.926,0.742C633.82,189.013,633.818,190.932,633.816,192.851z"/>
	<path fill-rule="evenodd" clip-rule="evenodd" fill="#CCCED9" d="M633.816,149.856c-2.319-1.666-2.053-4.131-1.92-6.498
		c0.05-0.903,0.224-0.894,1.927,0.736C633.821,146.015,633.818,147.936,633.816,149.856z"/>
	<path fill-rule="evenodd" clip-rule="evenodd" fill="#D4D6E0" d="M633.812,161.834c-2.179-1.493-1.931-3.781-1.948-5.977
		c-0.004-0.606,0.033-1.434,0.844-1.206c0.47,0.132,0.744,0.958,1.107,1.472C633.813,158.027,633.813,159.931,633.812,161.834z"/>
	<path fill-rule="evenodd" clip-rule="evenodd" fill="#CCCED9" d="M633.816,202.85c-2.319-1.665-2.053-4.131-1.921-6.498
		c0.051-0.903,0.224-0.893,1.928,0.736C633.821,199.008,633.818,200.929,633.816,202.85z"/>
	<path fill-rule="evenodd" clip-rule="evenodd" fill="#CCCED9" d="M21.101,241.093c2.301,1.664,2.034,4.125,1.921,6.482
		c-0.043,0.896-0.214,0.888-1.939-0.676C21.088,244.964,21.095,243.028,21.101,241.093z"/>
	<path fill-rule="evenodd" clip-rule="evenodd" fill="#CCCED9" d="M21.101,253.091c2.303,1.664,2.034,4.125,1.921,6.482
		c-0.043,0.896-0.214,0.888-1.939-0.676C21.088,256.962,21.095,255.027,21.101,253.091z"/>
	<path fill-rule="evenodd" clip-rule="evenodd" fill="#CCCED9" d="M21.101,264.09c2.303,1.663,2.034,4.125,1.921,6.481
		c-0.043,0.896-0.215,0.888-1.939-0.676C21.088,267.961,21.095,266.025,21.101,264.09z"/>
	<path fill-rule="evenodd" clip-rule="evenodd" fill="#CCCED9" d="M21.101,276.089c2.3,1.664,2.034,4.124,1.921,6.481
		c-0.043,0.896-0.214,0.888-1.939-0.676C21.088,279.959,21.095,278.024,21.101,276.089z"/>
	<path fill-rule="evenodd" clip-rule="evenodd" fill="#CCCED9" d="M21.101,287.087c2.3,1.664,2.034,4.125,1.921,6.481
		c-0.043,0.896-0.214,0.887-1.939-0.676C21.088,290.958,21.095,289.022,21.101,287.087z"/>
	<path fill-rule="evenodd" clip-rule="evenodd" fill="#CCCED9" d="M21.101,297.086c2.303,1.663,2.034,4.125,1.921,6.481
		c-0.042,0.895-0.214,0.887-1.939-0.676C21.088,300.957,21.095,299.021,21.101,297.086z"/>
	<path fill-rule="evenodd" clip-rule="evenodd" fill="#CCCED9" d="M21.101,307.084c2.3,1.664,2.034,4.125,1.921,6.482
		c-0.043,0.896-0.214,0.887-1.939-0.676C21.088,310.956,21.095,309.02,21.101,307.084z"/>
	<path fill-rule="evenodd" clip-rule="evenodd" fill="#263D73" d="M836.967,70.779c-24.625,0.063-49.251,0.267-73.875,0.1
		c-7.222-0.049-14.167-0.288-19.188,6.1c-3.957-1.216-8.394-1.021-11.748-4.005c-6.444-12.24-12.889-24.479-19.334-36.716
		c-1.714-6.499-5.522-12.038-8.325-18.037c-3.6-7.708,1.044-15.216,9.589-15.216c164.676-0.002,329.351-0.002,494.026,0
		c8.948,0,13.411,7.396,9.522,15.491c-2.733,5.692-6.627,10.777-8.689,16.811c-7.117,13.095-14.165,26.225-21.391,39.258
		c-2.354,4.244-11.998,4.23-14.806,0.205c-0.944-1.353-1.98-2.64-2.975-3.957c-3.672-0.96-7.493,0.339-11.158-0.728
		c-13.845-0.002-27.688-0.004-41.532-0.007c-1.931,0.788-3.953,0.382-5.926,0.383c-89.411,0.024-178.822,0.019-268.232,0.035
		C840.94,70.497,838.93,70.207,836.967,70.779z"/>
	<path fill-rule="evenodd" clip-rule="evenodd" fill="#17244A" d="M961.895,594.928c92.473,0,184.945-0.001,277.418,0.002
		c14.322,0,19.524,5.21,19.524,19.542c0.002,139.627,0.002,279.253,0,418.878c0,14.311-5.214,19.513-19.553,19.513
		c-185.279,0.001-370.559,0.001-555.837,0c-14.318,0-19.526-5.208-19.526-19.541c-0.001-139.625-0.002-279.251,0-418.878
		c0-14.309,5.218-19.514,19.555-19.514C776.282,594.927,869.088,594.928,961.895,594.928z"/>
	<path fill-rule="evenodd" clip-rule="evenodd" fill="#17244A" d="M960.715,556.929c-92.641,0-185.281,0-277.921-0.005
		c-1.831,0-3.694,0.136-5.488-0.144c-9.776-1.524-14.078-6.527-14.381-16.551c-0.025-0.833-0.005-1.667-0.005-2.5
		c0-145.792,0-291.584,0.005-437.376c0-1.665-0.116-3.359,0.141-4.988c1.579-9.993,6.762-14.411,17.036-14.349
		c10.431,0.063,20.957-0.964,31.076,2.873c6.115,2.318,11.374,6.21,17.266,8.939c5.684,2.631,11.606,3.905,17.789,4.152
		c53.267,2.134,106.577-0.191,159.831,1.209c50.958,1.339,101.918-0.471,152.837,1.016c38.964,1.138,77.906,0.27,116.854,0.732
		c9.387,0.111,17.995-2.632,25.395-8.706c8.66-7.108,18.432-11.017,29.845-10.275c3.651,0.237,7.329,0.018,10.995,0.041
		c10.19,0.064,16.091,5.563,16.826,15.688c0.084,1.161,0.021,2.332,0.021,3.499c0.001,145.792,0.002,291.584-0.008,437.376
		c0,1.827,0.092,3.696-0.242,5.474c-1.885,10.026-6.675,13.868-17.451,13.88c-35.823,0.037-71.647,0.014-107.47,0.014
		C1076.016,556.929,1018.365,556.929,960.715,556.929z"/>
	<path fill-rule="evenodd" clip-rule="evenodd" fill="#172A54" d="M1594.29,592.924c93.817,0,187.635-0.001,281.452,0
		c12.535,0,18.023,5.396,18.023,17.749c0.002,142.143,0.002,284.286,0,426.428c0,12.368-5.475,17.77-18.002,17.77
		c-187.635,0.002-375.271,0.002-562.905,0c-12.542,0-18.022-5.396-18.022-17.749c-0.002-142.143-0.002-284.285,0-426.428
		c0-12.367,5.48-17.77,18.003-17.77C1406.656,592.923,1500.473,592.924,1594.29,592.924z"/>
	<path fill-rule="evenodd" clip-rule="evenodd" fill="#172A54" d="M327.989,1054.872c-94.138,0-188.277,0.002-282.415-0.002
		c-12.492,0-17.579-5.094-17.579-17.586c-0.001-142.29-0.001-284.58,0-426.87c0-12.427,5.119-17.49,17.674-17.49
		c187.61-0.001,375.22-0.001,562.83,0c12.205,0.001,17.424,5.163,17.424,17.241c0.002,142.623-0.018,285.246,0.054,427.87
		c0.004,7.65-2.754,13.166-9.855,16.329c-0.9,0.4-1.64,0.813-2.742,0.813c-95.13-0.054-190.26-0.05-285.391-0.05
		C327.989,1055.042,327.989,1054.957,327.989,1054.872z"/>
	<path fill-rule="evenodd" clip-rule="evenodd" fill="#FEF5F3" d="M33.919,1060.878c-3.031,0-6.062-0.015-9.092,0.007
		c-1.185,0.009-1.915-0.411-1.835-1.703c0.188-3.065-0.478-6.191,0.502-9.586c2.344,1.385,1.587,3.419,1.436,4.919
		c-0.344,3.409,0.671,4.866,4.29,4.411C30.72,1058.738,32.491,1058.275,33.919,1060.878z"/>
	<path fill-rule="evenodd" clip-rule="evenodd" fill="#1A315E" d="M1593.593,561.93c-93.639,0-187.276,0.02-280.915-0.036
		c-7.505-0.005-14.747-1.276-18.901-8.645c-2.055-3.646-2.937-7.733-2.937-11.961c-0.001-148.622-0.014-297.243,0.022-445.864
		c0.003-12.988,7.595-20.426,20.497-20.428c63.147-0.011,126.307,0.758,189.44-0.172c116.761-1.721,233.52-0.065,350.274-0.946
		c20.772-0.157,40.324,18.209,44.138,34.159c0.958,4.002,1.59,8.096,1.589,12.296c-0.046,139.791-0.029,279.582-0.063,419.373
		c-0.001,7.696-1.196,15.122-8.757,19.339c-4.104,2.289-8.727,2.917-13.475,2.915C1780.869,561.92,1687.23,561.93,1593.593,561.93z"
		/>
	<path fill-rule="evenodd" clip-rule="evenodd" fill="#FEF5F3" d="M1899.774,549.956c0,4.693-0.001,8.305,0,11.915
		c0,1.038-0.08,2.085-1.477,2.033c-3.813-0.142-7.695,0.561-12.864-0.819c3.703-1.701,6.316-1.203,8.75-1.096
		c2.765,0.121,3.716-0.679,3.665-3.555C1897.807,555.969,1896.746,553.104,1899.774,549.956z"/>
	<path fill-rule="evenodd" clip-rule="evenodd" fill="#FEF5F3" d="M1300.785,73.505c-2.199,0.963-4.669,0.622-6.942,0.422
		c-3.339-0.293-4.387,0.934-4.037,4.138c0.247,2.252,0.048,4.552-0.699,6.868c-1.843-3.853-1.157-7.957-1.163-11.959
		c-0.002-1.009,1.12-0.99,1.941-0.991c3.615-0.005,7.231-0.002,10.847-0.002C1300.749,72.488,1300.767,72.997,1300.785,73.505z"/>
	<path fill-rule="evenodd" clip-rule="evenodd" fill="#1B315F" d="M129.74,86.879c-0.009-0.236,0.033-0.462,0.127-0.678
		c0.364-1.613,1.286-3.337,0.993-4.821c-1.094-5.554,1.647-6.451,6.374-6.448c157.463,0.072,314.926,0.055,472.39,0.065
		c13.192,0.001,20.292,7.196,20.293,20.522c0.007,148.632,0.007,297.264,0,445.896c0,13.317-7.107,20.508-20.306,20.508
		c-188.123,0.01-376.246,0.01-564.369,0c-13.16-0.001-20.24-7.217-20.241-20.573c-0.008-115.973-0.004-231.946-0.004-347.918
		c0-9.931,0.001-9.931,9.242-12.606c1.061-0.706,0.584-1.909,0.919-2.849c1.704-6.704,0.635-13.499,0.635-20.255
		c0-1.182-0.697-2.233-1.629-2.983c-4.034-3.249-4.792-7.607-4.711-12.489c0.163-9.784,0.334-19.583-0.033-29.355
		c-0.355-9.445,3.016-16.782,10.599-22.281c2.698-1.445,4.674-3.766,6.898-5.79c0.381-0.324,0.796-0.599,1.231-0.843
		c1.599-0.719,3.206-1.421,4.889-0.213c0.074,3.238-3.443,3.549-4.662,5.74c-4.424,4.472-10.304,7.672-12.34,14.226
		c-0.99,3.237-1.237,6.545-1.236,9.895c0.001,7.831,0.062,15.663-0.022,23.494c-0.061,5.703,0.69,10.946,3.38,16.316
		c3.752,7.491,2.837,15.918,1.549,24.014c-0.48,3.019-2.606,5.428-5.177,7.118c-2.84,1.866-3.783,4.443-3.705,7.666
		c0.048,1.996-0.026,3.998-0.026,5.997c-0.001,112.139-0.001,224.276,0,336.415c0,1.667-0.017,3.333,0.023,4.999
		c0.276,11.464,5.061,16.19,16.665,16.46c1.999,0.047,3.999,0.024,5.998,0.024c182.787,0,365.574,0.001,548.36-0.002
		c2.999,0,6.005,0.121,8.992-0.18c7.825-0.786,12.339-5.341,13.11-13.195c0.245-2.491,0.172-4.995,0.172-7.494
		c0.001-144.63,0.002-289.26,0-433.89c0-16.748-3.813-20.572-20.564-20.573c-152.127-0.006-304.255-0.004-456.383,0
		c-5.578,0-11.514-1.016-14.771,5.453C131.996,87.051,130.816,87.449,129.74,86.879z"/>
	<path fill-rule="evenodd" clip-rule="evenodd" fill="#172952" d="M47.944,89.101c0.031-3.341,3.652-3.126,5.056-5.106
		c3.872-2.239,8.237-2.218,12.454-2.364c7.798-0.27,15.612-0.001,23.418-0.106c4.907-0.066,9.157,1.387,12.667,4.787
		c0.994,0.963,1.979,1.894,3.349,1.952c7.453,0.321,14.914,0.767,22.35-0.271c0.654-0.092,1.228-0.491,1.768-0.886
		c0.203-0.212,0.448-0.288,0.735-0.227c1.057-0.236,1.98-0.871,2.172-1.86c1.141-5.867,5.266-6.098,10.153-6.095
		c154.961,0.081,309.923,0.066,464.885,0.067c13.637,0,18.971,5.356,18.971,19.047c0,146.964,0,293.928,0,440.892
		c0,13.66-5.346,19.001-19.017,19.001c-186.288,0-372.575,0-558.862,0c-13.69,0-19.045-5.335-19.045-18.974
		c0-115.305,0.018-230.61-0.065-345.915c-0.003-4.65,0.261-8.45,5.435-10.408c2.799-1.059,4.29-4.256,4.361-6.917
		c0.228-8.521,1.937-17.373-3.832-25.055c-1.523-2.028-1.964-4.473-1.941-7.088c0.098-10.997,0.152-21.996-0.018-32.99
		c-0.054-3.475,1.491-6.445,2.1-9.69c2.172-1.094,4.333-1.902,6.384,0.24c1.013,1.991,0.174,3.868-0.272,5.814
		c-3.501,15.27-3.635,30.417,0.172,45.788c2.651,10.704,3.105,21.795-1.113,32.401c-1.49,3.747-1.392,7.491-1.392,11.292
		c-0.022,112.813-0.018,225.626-0.017,338.439c0,1.667-0.024,3.333,0.05,4.999c0.278,6.301,1.896,7.938,8.133,8.209
		c2.165,0.094,4.332,0.05,6.498,0.05c182.634,0.002,365.268,0.002,547.902,0.001c14.733,0,14.735-0.002,14.735-14.693
		c0-143.475,0.001-286.949,0-430.423c0-14.211-0.004-14.216-14.227-14.216c-151.306-0.001-302.613,0.009-453.919-0.038
		c-5.732-0.002-11.288,0.018-16.11,3.83c-1.555,1.229-3.632,1.804-5.639,1.868c-10.604,0.34-21.398,1.975-31.141-4.19
		c-0.835-0.528-1.831-1.038-2.793-1.039c-13.353-0.004-27.042-3.031-39.599,4.321c-1.312,0.768-2.735,1.321-4.326,0.848
		C46.37,92.778,46.622,90.981,47.944,89.101z"/>
	<path fill-rule="evenodd" clip-rule="evenodd" fill="#1C436F" d="M41.972,90.979c-7.812,5.436-11.552,12.68-11.073,22.413
		c0.458,9.288,0.296,18.622,0.015,27.924c-0.147,4.882,0.886,9.031,3.84,12.986c3.256,4.359,3.251,19.694,0.404,23.674
		c-0.048-5.827-0.266-11.66-0.078-17.479c0.103-3.159-0.461-5.536-3.706-6.67c-2.764-0.966-3.416-2.954-3.387-5.809
		c0.146-14.662,0.146-29.326,0.011-43.987c-0.027-2.911,0.848-4.988,2.885-7.01c4.729-4.692,9.378-9.482,13.797-14.465
		c2.285-2.578,4.683-3.637,8.175-3.584c13.16,0.197,26.338,0.408,39.483-0.091c5.842-0.222,8.924,1.922,10.49,7.145
		c-0.599,0.381-1.328,0.573-1.853,0.119c-4.712-4.076-10.376-3.752-16.052-3.689c-9.963,0.11-19.93-0.135-29.885,0.514
		c-2.527,0.165-4.965,0.411-7.048,2.018l0-0.001C45.61,86.606,43.634,88.635,41.972,90.979z"/>
	<path fill-rule="evenodd" clip-rule="evenodd" fill="#1D3462" d="M47.992,84.987c1.987-2.826,5.038-2.954,8.012-2.97
		c12.316-0.065,24.637,0.162,36.946-0.142c4.179-0.103,6.358,3.365,9.881,4.149c0.388,0.37,0.774,0.739,1.162,1.109
		c7.331,1.297,14.664,1.42,21.997,0.023c1.005-0.017,2.01-0.034,3.015-0.051c-0.738,2.715-2.974,2.831-5.159,2.871
		c-3.659,0.066-7.327-0.125-10.977,0.06c-5.283,0.267-10.177-0.178-14.28-4.185c-2.473-2.414-5.828-2.905-9.274-2.875
		C77.202,83.084,65.078,82.674,53,83.995C51.331,84.325,49.661,84.656,47.992,84.987z"/>
	<path fill-rule="evenodd" clip-rule="evenodd" fill="#1C436F" d="M125.989,87.157c-0.46,0.458-0.905,1.297-1.382,1.315
		c-6.912,0.256-13.947,2.152-20.615-1.338C111.325,87.142,118.657,87.149,125.989,87.157z"/>
	<path fill-rule="evenodd" clip-rule="evenodd" fill="#284078" d="M836.967,70.779c1.274-1.134,2.837-0.774,4.3-0.774
		c91.439-0.011,182.878-0.007,274.316-0.001c0.499,0,0.997,0.048,1.498,0.074c-1.523,0.939-3.229,0.665-4.871,0.667
		c-90.918,0.066-181.835,0.119-272.753,0.166C838.627,70.911,837.797,70.825,836.967,70.779z"/>
	<path fill-rule="evenodd" clip-rule="evenodd" fill="#284078" d="M732.156,72.974c4.289,0.242,7.995,2.19,11.748,4.005
		C739.708,76.466,734.149,79.948,732.156,72.974z"/>
	<path fill-rule="evenodd" clip-rule="evenodd" fill="#284078" d="M1158.616,70.085c3.72,0.238,7.537-1.006,11.159,0.728
		C1166.07,70.337,1162.264,71.42,1158.616,70.085z"/>
	<path fill-rule="evenodd" clip-rule="evenodd" fill="#1B2D5F" d="M961.127,8.001c77.307,0,154.613,0.018,231.919-0.057
		c3.542-0.003,6.959,0.529,10.357,1.198c5.395,1.063,8.387,6.134,6.404,11.274c-4.196,10.884-10.62,20.664-15.933,30.998
		c-1.516,2.949-3.207,5.831-5.061,8.58c-4.603,6.819-11.295,9.499-19.079,7.649c-8.991-2.137-17.995-2.686-27.154-2.682
		c-122.458,0.046-244.916,0.033-367.373,0.032c-7.484,0-14.9,0.868-22.226,2.225c-11.374,2.106-17.555-0.166-22.896-10.094
		c-6.074-11.291-11.704-22.829-17.229-34.401c-3.301-6.914-0.101-12.237,7.459-13.876c2.974-0.645,5.896-0.851,8.891-0.85
		C806.514,8.003,883.82,8.001,961.127,8.001z"/>
	<path fill-rule="evenodd" clip-rule="evenodd" fill="#17244A" d="M1594.337,1046.869c-92.639,0-185.278,0-277.918-0.001
		c-10.905,0-13.581-2.659-13.581-13.497c-0.001-139.625-0.001-279.25,0-418.876c0-10.894,2.663-13.569,13.509-13.569
		c185.278-0.001,370.557-0.001,555.835,0c10.906,0,13.582,2.658,13.582,13.497c0,139.626,0,279.251,0,418.876
		c0,10.894-2.663,13.569-13.51,13.569C1779.615,1046.869,1686.977,1046.869,1594.337,1046.869z"/>
	<path fill-rule="evenodd" clip-rule="evenodd" fill="#17244A" d="M326.963,1046.869c-92.473,0-184.945,0-277.417-0.001
		c-10.875,0-13.549-2.67-13.549-13.529c0-139.625,0-279.25,0-418.876c0-10.864,2.673-13.537,13.541-13.537
		c184.945-0.001,369.89-0.001,554.834,0c10.875,0,13.55,2.67,13.55,13.529c0.001,139.626,0.001,279.251,0,418.876
		c0,10.864-2.675,13.537-13.542,13.538C511.908,1046.869,419.436,1046.869,326.963,1046.869z"/>
	<path fill-rule="evenodd" clip-rule="evenodd" fill="#172A53" d="M1593.44,557.931c-93.313,0-186.628,0.001-279.941-0.001
		c-12.849,0-18.66-5.767-18.66-18.518c-0.001-147.303-0.001-294.605,0-441.909c0-12.88,5.647-18.511,18.563-18.512
		c35.325-0.003,70.656,0.375,105.977-0.069c143.429-1.802,286.864-0.31,430.291-1.152c23.05-0.135,43.468,22.013,43.382,43.451
		c-0.56,139.302-0.287,278.607-0.287,417.912c0,13.118-5.707,18.798-18.882,18.798
		C1780.401,557.931,1686.921,557.931,1593.44,557.931z"/>
	<path fill-rule="evenodd" clip-rule="evenodd" fill="#FFFFFF" d="M41.001,101.155c-1.988-0.087-3.976-0.175-5.963-0.262
		c4.078-4.177,7.249-9.345,12.907-11.792c0.072,1.631,0.145,3.262,0.217,4.892c1.744,2.486,1.981,5.14-0.29,7.218
		C45.818,103.089,43.282,102.834,41.001,101.155z"/>
	<path fill-rule="evenodd" clip-rule="evenodd" fill="#1D3462" d="M41.972,90.979c0.892-3.117,2.877-5.137,6.02-5.992
		C46.382,87.382,44.401,89.405,41.972,90.979z"/>
	<path fill-rule="evenodd" clip-rule="evenodd" fill="#17244A" d="M41.001,101.155c6.799-0.362,6.799-0.362,7.16-7.162
		c13.224-9.893,28.604-6.418,43.331-6.982c1.932-0.074,3.466,1.047,5.123,1.803c13.174,6.003,26.256,7.414,39.063-0.953
		c1.548-1.011,3.169-0.862,4.81-0.862c156.28-0.01,312.56-0.011,468.84,0c6.405,0,8.594,2.582,8.594,9.919
		c0.001,141.952,0.001,283.904,0.001,425.855c0,5.998,0.012,11.996-0.003,17.994c-0.017,6.79-2.429,9.161-9.356,9.162
		c-75.807,0.005-151.615,0.003-227.423,0.003c-111.295,0-222.59,0-333.886-0.001c-8.264,0-10.259-1.996-10.259-10.262
		C36.995,423.875,37,308.081,36.973,192.287c0-3.029,0.139-5.834,1.993-8.517c1.393-2.015,2.157-4.534,2.011-7.103
		c-0.56-9.836,1.682-19.851-3.416-29.398c-1.68-3.147-0.552-7.842-0.548-11.829C37.026,123.863,35.843,112.137,41.001,101.155z"/>
	<path fill-rule="evenodd" clip-rule="evenodd" fill="#17244A" d="M1593.73,550.932c-92.486,0-184.972,0.001-277.458-0.001
		c-11.42,0-14.435-3.029-14.435-14.5c-0.001-145.312-0.001-290.623,0-435.933c0-11.476,3.015-14.504,14.427-14.507
		c10.666-0.003,21.332,0.075,31.995-0.012c166.433-1.363,332.869-0.833,499.303-1.128c14.619-0.026,25.188,6.245,33.481,17.229
		c4.002,5.3,4.663,12.056,4.671,18.556c0.08,64.824,0.049,129.647,0.049,194.471c0,73.822,0.002,147.644,0,221.466
		c0,11.355-3.05,14.358-14.577,14.358C1778.701,550.933,1686.216,550.932,1593.73,550.932z"/>
</g>
</svg>
