<?xml version="1.0" encoding="utf-8"?>
<!-- Generator: Adobe Illustrator 16.0.0, SVG Export Plug-In . SVG Version: 6.00 Build 0)  -->
<!DOCTYPE svg PUBLIC "-//W3C//DTD SVG 1.1//EN" "http://www.w3.org/Graphics/SVG/1.1/DTD/svg11.dtd">
<svg version="1.1" id="图层_1" xmlns="http://www.w3.org/2000/svg" xmlns:xlink="http://www.w3.org/1999/xlink" x="0px" y="0px"
	 width="40px" height="40px" viewBox="0 0 40 40" enable-background="new 0 0 40 40" xml:space="preserve">
<g>
	<path fill-rule="evenodd" clip-rule="evenodd" fill="#FFFFFF" d="M21.314,2c5.821,0,11.646,0.103,17.463-0.057
		c1.954-0.054,2.275,0.531,2.261,2.333c-0.089,10.977-0.154,21.956,0.036,32.931c0.045,2.638-0.86,2.862-3.075,2.84
		c-11.143-0.11-22.288-0.106-33.431,0.001c-1.983,0.02-2.672-0.199-2.639-2.475c0.157-10.976,0.205-21.957-0.025-32.93
		C1.848,1.968,2.791,1.911,4.849,1.958C10.335,2.083,15.826,2,21.314,2z"/>
</g>
</svg>
