<?xml version="1.0" encoding="utf-8"?>
<!-- Generator: Adobe Illustrator 16.0.0, SVG Export Plug-In . SVG Version: 6.00 Build 0)  -->
<!DOCTYPE svg PUBLIC "-//W3C//DTD SVG 1.1//EN" "http://www.w3.org/Graphics/SVG/1.1/DTD/svg11.dtd">
<svg version="1.1" id="图层_1" xmlns="http://www.w3.org/2000/svg" xmlns:xlink="http://www.w3.org/1999/xlink" x="0px" y="0px"
	 width="100px" height="50px" viewBox="0 0 100 50" enable-background="new 0 0 100 50" xml:space="preserve">
<g>
	<path fill-rule="evenodd" clip-rule="evenodd" fill="#FFFFFF" d="M50.3,7c11.983,0,23.967,0.085,35.949-0.072
		c2.374-0.031,2.845,0.482,2.81,2.825c-0.159,10.649-0.12,21.303-0.028,31.953c0.02,2.282-0.126,3.393-3.037,3.374
		c-23.8-0.151-47.6-0.109-71.399-0.039c-1.934,0.006-2.703-0.118-2.667-2.446c0.166-10.982,0.208-21.971-0.022-32.951
		c-0.056-2.675,0.89-2.701,2.946-2.686C26.667,7.044,38.483,7,50.3,7z"/>
</g>
</svg>
