<?xml version="1.0" encoding="utf-8"?>
<!-- Generator: Adobe Illustrator 16.0.0, SVG Export Plug-In . SVG Version: 6.00 Build 0)  -->
<!DOCTYPE svg PUBLIC "-//W3C//DTD SVG 1.1//EN" "http://www.w3.org/Graphics/SVG/1.1/DTD/svg11.dtd">
<svg version="1.1" id="图层_1" xmlns="http://www.w3.org/2000/svg" xmlns:xlink="http://www.w3.org/1999/xlink" x="0px" y="0px"
	 width="110px" height="50px" viewBox="0 0 110 50" enable-background="new 0 0 110 50" xml:space="preserve">
<g>
	<path fill-rule="evenodd" clip-rule="evenodd" fill="#FFFFFF" d="M1.066,44.995c0-11.499,0.073-22.998-0.065-34.495
		C0.975,8.35,1.419,7.933,3.565,7.938c33.996,0.087,67.991,0.087,101.985,0c2.146-0.005,2.596,0.41,2.566,2.562
		c-0.146,10.33-0.209,20.667,0.023,30.993c0.066,2.994-0.605,3.598-3.59,3.586C70.057,44.947,35.561,44.995,1.066,44.995z"/>
	<path fill-rule="evenodd" clip-rule="evenodd" fill="#EFF2F7" d="M28.964,38.996c14.672,2.65,28.653-4.069,43.263-3.118
		c7.863,0.512,15.203,3.939,23.271,3.221c5.871-0.523,6.328-0.739,6.623-6.512c0.244-4.771-0.451-9.435-1.143-14.066
		c-0.488-3.276-2.197-6.053-6.504-5.579c-2.129,0.235-5.701,0.691-5.684-1.872c0.021-3.395,3.717-1.673,5.857-2.053
		C95.295,8.902,95.979,9,96.645,9c7.785,0,6.662,0.161,7.719,7.537c1.088,7.597,1.533,15.106,1.762,22.716
		c0.086,2.917-0.385,4.127-3.666,3.828c-3.965-0.36-7.988-0.067-11.984-0.091c-3.059-0.018-5.963-1.627-8.545-2.072
		c-9.283-1.598-18.959-2.167-28.262,0.233c-2.367,0.611-4.581,1.878-7.213,1.868c-12.825-0.052-25.652-0.149-38.474,0.044
		c-4.552,0.069-6.251-1.697-5.963-6.131c0.237-3.648,0.017-7.324,0.078-10.986c0.027-1.611,0.026-2.235,2.559-2.354
		c3.588-0.169,1.287,2.035,1.289,2.345c0.075,14.676-1.206,13.04,13.028,13.06C22.302,39,25.633,38.996,28.964,38.996z"/>
	<path fill-rule="evenodd" clip-rule="evenodd" fill="#F0F3F7" d="M7.07,18.935c-5.251-0.512-5.587-3.779-4.95-6.844
		c0.659-3.166,3.59-3.17,6.346-3.124c6.146,0.103,12.306,0.228,18.44-0.072c2.275-0.11,3.853,0.807,3.809,2.476
		c-0.052,2.004-2.294,1.645-3.885,1.637c-4.321-0.022-8.649,0.154-12.96-0.055C9.464,12.74,6.193,13.526,7.07,18.935z"/>
</g>
</svg>
